<svg width="24" height="17" viewBox="0 0 24 17" fill="none" xmlns="http://www.w3.org/2000/svg">
<path d="M16.484 8.47704L22.635 3.35571V13.5399L16.484 8.47704ZM8.558 9.34433L10.718 11.1412C11.057 11.4172 11.499 11.584 11.982 11.584H11.999H12.012C12.496 11.584 12.938 11.4162 13.281 11.1383L13.278 11.1402L15.438 9.34337L22.004 14.7474H1.995L8.558 9.34433ZM1.986 2.1415H22.016L12.395 10.1493C12.2873 10.2321 12.1531 10.2768 12.015 10.2758H12.001H11.988C11.8495 10.2768 11.7148 10.2317 11.607 10.1484L11.608 10.1493L1.986 2.1415ZM1.365 3.35475L7.515 8.47608L1.365 13.5361V3.35475ZM22.965 1.01546C22.725 0.900457 22.443 0.833374 22.144 0.833374H1.859C1.56929 0.834473 1.28367 0.89905 1.024 1.02217L1.035 1.01737C0.724866 1.16446 0.463696 1.39154 0.280854 1.67308C0.0980128 1.95463 0.00074936 2.27947 0 2.61108L0 14.2759C0.000529404 14.748 0.196452 15.2006 0.54478 15.5344C0.893108 15.8682 1.36539 16.056 1.858 16.0565H22.141C22.6336 16.056 23.1059 15.8682 23.4542 15.5344C23.8025 15.2006 23.9985 14.748 23.999 14.2759V2.61108C23.999 1.91437 23.58 1.31062 22.97 1.02025L22.959 1.01546H22.965Z" fill="#858585"/>
</svg>
