<svg width="69" height="65" viewBox="0 0 69 65" fill="none" xmlns="http://www.w3.org/2000/svg">
<path d="M68.4648 47.9325C68.4648 53.5401 65.6315 57.7763 59.9648 60.641C54.3673 63.5363 46.04 64.9839 34.9831 64.9839H33.8429C22.786 64.9839 14.4587 63.5515 8.86118 60.6867C3.26362 57.822 0.464843 53.5706 0.464843 47.9325V32.9839H68.4648V47.9325ZM5.46484 47.9325C5.46484 51.3763 7.01972 53.9058 10.1295 55.521C13.2392 57.1667 27.0705 60.641 33.6356 60.641H35.0868C41.5827 60.641 55.914 57.1515 59.0929 55.4753C62.3409 53.7991 63.9648 51.2696 63.9648 47.8867V39.841L5.46484 39.841V47.9325Z" fill="#FFFFE3"/>
<path d="M32.576 16.896V18.176H23.04L16.256 8.384L9.536 18.176H0V16.896L12.096 0H20.416L32.576 16.896Z" fill="#FFFFE3"/>
<path d="M68.201 16.896V18.176H58.665L51.881 8.384L45.161 18.176H35.625V16.896L47.721 0H56.041L68.201 16.896Z" fill="#FFFFE3"/>
</svg>
