<svg width="747" height="110" viewBox="0 0 747 110" fill="none" xmlns="http://www.w3.org/2000/svg">
<path d="M55.872 62.9436H46.336V34.0156L32.768 62.9436H23.104L9.536 33.8876V62.9436H0V20.9596H13.248L27.968 52.1276L42.624 20.9596H55.872V62.9436Z" fill="#FFFFE3"/>
<path d="M81.043 20.9596V62.9436H71.379V20.9596H81.043Z" fill="#FFFFE3"/>
<path d="M116.36 63.7116C109.448 63.7116 104.2 62.4743 100.616 59.9996C97.032 57.5249 95.24 53.8983 95.24 49.1196V48.4796H104.712V49.1196C104.712 51.1676 105.736 52.7249 107.784 53.7916C109.832 54.8583 112.819 55.3916 116.744 55.3916C120.243 55.3916 122.888 55.0289 124.68 54.3036C126.515 53.5356 127.432 52.4263 127.432 50.9756V50.5276C127.432 49.3756 126.92 48.5009 125.896 47.9036C124.872 47.2636 123.059 46.7516 120.456 46.3676L109.768 44.8316C100.552 43.4663 95.944 39.6689 95.944 33.4396V32.7996C95.944 28.8316 97.672 25.7383 101.128 23.5196C104.627 21.3009 109.512 20.1916 115.784 20.1916C122.44 20.1916 127.517 21.3863 131.016 23.7756C134.515 26.1649 136.264 29.6209 136.264 34.1436V34.7196H126.792V34.1436C126.792 30.3889 123.123 28.5116 115.784 28.5116C112.499 28.5116 109.981 28.8529 108.232 29.5356C106.525 30.2183 105.672 31.2209 105.672 32.5436V33.0556C105.672 34.0369 106.141 34.8049 107.08 35.3596C108.061 35.9143 109.725 36.3623 112.072 36.7036L122.824 38.2396C127.731 38.9649 131.336 40.2876 133.64 42.2076C135.987 44.0849 137.16 46.7089 137.16 50.0796V50.7196C137.16 54.8156 135.347 58.0156 131.72 60.3196C128.093 62.5809 122.973 63.7116 116.36 63.7116Z" fill="#FFFFE3"/>
<path d="M161.063 20.9596V62.9436H151.399V20.9596H161.063Z" fill="#FFFFE3"/>
<path d="M196.38 63.7116C189.468 63.7116 184.22 62.4743 180.636 59.9996C177.052 57.5249 175.26 53.8983 175.26 49.1196V48.4796H184.732V49.1196C184.732 51.1676 185.756 52.7249 187.804 53.7916C189.852 54.8583 192.839 55.3916 196.764 55.3916C200.263 55.3916 202.908 55.0289 204.7 54.3036C206.535 53.5356 207.452 52.4263 207.452 50.9756V50.5276C207.452 49.3756 206.94 48.5009 205.916 47.9036C204.892 47.2636 203.079 46.7516 200.476 46.3676L189.788 44.8316C180.572 43.4663 175.964 39.6689 175.964 33.4396V32.7996C175.964 28.8316 177.692 25.7383 181.148 23.5196C184.647 21.3009 189.532 20.1916 195.804 20.1916C202.46 20.1916 207.537 21.3863 211.036 23.7756C214.535 26.1649 216.284 29.6209 216.284 34.1436V34.7196H206.812V34.1436C206.812 30.3889 203.143 28.5116 195.804 28.5116C192.519 28.5116 190.001 28.8529 188.252 29.5356C186.545 30.2183 185.692 31.2209 185.692 32.5436V33.0556C185.692 34.0369 186.161 34.8049 187.1 35.3596C188.081 35.9143 189.745 36.3623 192.092 36.7036L202.844 38.2396C207.751 38.9649 211.356 40.2876 213.66 42.2076C216.007 44.0849 217.18 46.7089 217.18 50.0796V50.7196C217.18 54.8156 215.367 58.0156 211.74 60.3196C208.113 62.5809 202.993 63.7116 196.38 63.7116Z" fill="#FFFFE3"/>
<path d="M301.46 30.8796V32.2236L284.5 66.1436C283.135 68.8316 281.449 70.7729 279.444 71.9676C277.439 73.2049 274.751 73.8236 271.38 73.8236H262.996V65.6956H270.932C272.084 65.6956 272.98 65.5463 273.62 65.2476C274.303 64.9916 274.879 64.4796 275.348 63.7116L259.284 32.2236V30.8796H269.14L280.468 53.9836L291.604 30.8796H301.46Z" fill="#FFFFE3"/>
<path d="M464.993 63.7116C461.068 63.7116 457.633 63.0503 454.689 61.7276C451.788 60.4049 449.548 58.5276 447.969 56.0956C446.433 53.6636 445.665 50.7836 445.665 47.4556V46.6236C445.665 43.2529 446.433 40.3303 447.969 37.8556C449.548 35.3809 451.788 33.4823 454.689 32.1596C457.633 30.7943 461.068 30.1116 464.993 30.1116C468.62 30.1116 471.862 30.7303 474.721 31.9676C477.622 33.1623 479.862 34.8476 481.441 37.0236C483.062 39.1569 483.873 41.6103 483.873 44.3836V44.6396H474.337V44.3836C474.337 42.6769 473.462 41.2903 471.713 40.2236C470.006 39.1143 467.766 38.5596 464.993 38.5596C461.836 38.5596 459.425 39.2636 457.761 40.6716C456.097 42.0369 455.265 44.0423 455.265 46.6876V47.3916C455.265 49.9516 456.097 51.9143 457.761 53.2796C459.425 54.6023 461.836 55.2636 464.993 55.2636C467.809 55.2636 470.07 54.7516 471.777 53.7276C473.484 52.6609 474.337 51.2529 474.337 49.5036V49.2476H483.873V49.5036C483.873 52.3196 483.084 54.8156 481.505 56.9916C479.969 59.1249 477.772 60.7889 474.913 61.9836C472.097 63.1356 468.79 63.7116 464.993 63.7116Z" fill="#FFFFE3"/>
<path d="M540.081 63.7116C536.071 63.7116 532.593 63.0716 529.649 61.7916C526.705 60.4689 524.444 58.5916 522.865 56.1596C521.287 53.6849 520.497 50.7836 520.497 47.4556V46.6236C520.497 43.2103 521.266 40.2663 522.802 37.7916C524.38 35.3169 526.642 33.4183 529.586 32.0956C532.53 30.7729 536.028 30.1116 540.081 30.1116C544.092 30.1116 547.548 30.7729 550.45 32.0956C553.351 33.4183 555.569 35.3169 557.105 37.7916C558.684 40.2663 559.474 43.2103 559.474 46.6236V47.4556C559.474 50.7836 558.684 53.6849 557.105 56.1596C555.569 58.5916 553.351 60.4689 550.45 61.7916C547.548 63.0716 544.092 63.7116 540.081 63.7116ZM540.018 55.2636C543.132 55.2636 545.543 54.5809 547.25 53.2156C548.999 51.8503 549.873 49.9089 549.873 47.3916V46.6876C549.873 44.0849 549.02 42.0796 547.313 40.6716C545.607 39.2636 543.175 38.5596 540.018 38.5596C536.818 38.5596 534.364 39.2636 532.657 40.6716C530.951 42.0369 530.097 44.0423 530.097 46.6876V47.3916C530.097 49.9089 530.951 51.8503 532.657 53.2156C534.407 54.5809 536.86 55.2636 540.018 55.2636Z" fill="#FFFFE3"/>
<path d="M697.233 49.6316H668.689C668.987 51.6369 669.969 53.1729 671.633 54.2396C673.297 55.3063 675.537 55.8396 678.353 55.8396C680.913 55.8396 683.003 55.4983 684.625 54.8156C686.246 54.1329 687.185 53.1943 687.441 51.9996H697.169C696.699 55.7543 694.822 58.6556 691.536 60.7036C688.294 62.7089 683.899 63.7116 678.353 63.7116C674.427 63.7116 671.014 63.0716 668.113 61.7916C665.211 60.4689 662.993 58.5916 661.457 56.1596C659.921 53.7276 659.153 50.8689 659.153 47.5836V46.3676C659.153 43.0396 659.921 40.1596 661.457 37.7276C663.035 35.2529 665.254 33.3756 668.113 32.0956C671.014 30.7729 674.427 30.1116 678.353 30.1116C684.326 30.1116 688.955 31.5409 692.241 34.3996C695.569 37.2156 697.233 41.1836 697.233 46.3036V49.6316ZM678.289 37.8556C675.814 37.8556 673.766 38.3036 672.145 39.1996C670.523 40.0956 669.457 41.3543 668.945 42.9756H687.441C686.929 41.3543 685.883 40.0956 684.305 39.1996C682.726 38.3036 680.721 37.8556 678.289 37.8556Z" fill="#FFFFE3"/>
<path d="M727.754 63.7116C721.738 63.7116 717.045 62.7729 713.674 60.8956C710.346 58.9756 708.682 56.2663 708.682 52.7676V52.4476H717.578V52.7676C717.578 53.9623 718.389 54.8369 720.01 55.3916C721.631 55.9036 724.255 56.1596 727.882 56.1596C733.855 56.1596 736.842 55.3063 736.842 53.5996V53.2796C736.842 52.6396 736.458 52.1489 735.69 51.8076C734.922 51.4663 733.535 51.2103 731.53 51.0396L723.274 50.2076C718.538 49.7383 715.082 48.7569 712.906 47.2636C710.73 45.7703 709.642 43.6583 709.642 40.9276V40.2876C709.642 37.0876 711.221 34.5916 714.378 32.7996C717.578 31.0076 722.015 30.1116 727.69 30.1116C733.578 30.1116 738.101 31.0503 741.258 32.9276C744.415 34.8049 745.994 37.5143 745.994 41.0556V41.4396H737.098V41.0556C737.098 39.8609 736.33 39.0076 734.794 38.4956C733.301 37.9409 730.847 37.6636 727.434 37.6636C724.661 37.6636 722.527 37.8556 721.034 38.2396C719.541 38.6236 718.794 39.1783 718.794 39.9036V40.2876C718.794 40.9276 719.135 41.4183 719.818 41.7596C720.543 42.1009 721.717 42.3569 723.338 42.5276L731.722 43.3596C736.757 43.8716 740.405 44.8743 742.666 46.3676C744.97 47.8609 746.122 50.0156 746.122 52.8316V53.4716C746.122 56.7143 744.501 59.2316 741.258 61.0236C738.015 62.8156 733.514 63.7116 727.754 63.7116Z" fill="#FFFFE3"/>
<path d="M507.164 62.9436C503.751 62.9436 501.105 62.1329 499.228 60.5116C497.351 58.8476 496.412 56.5436 496.412 53.5996V0.443604H619.413V33.6316C622.271 31.2849 625.749 30.1116 629.845 30.1116C635.391 30.1116 639.594 31.5623 642.453 34.4636C645.311 37.3223 646.741 41.5463 646.741 47.1356V62.9436H637.461V47.1356C637.461 44.3623 636.693 42.2503 635.156 40.7996C633.663 39.3063 631.466 38.5596 628.565 38.5596C626.559 38.5596 624.746 39.0289 623.125 39.9676C621.503 40.9063 620.266 42.1649 619.413 43.7436V62.9436H588.531C584.861 62.9436 581.96 61.9623 579.826 59.9996C577.693 57.9943 576.627 55.2849 576.627 51.8716V39.0716H565.938V30.8796H574.515C575.411 30.8796 576.029 30.7089 576.37 30.3676C576.712 30.0263 576.883 29.4076 576.883 28.5116V22.3676H585.906V30.8796H599.219V39.0716H585.906V51.2316C585.906 52.3836 586.227 53.2796 586.867 53.9196C587.549 54.5169 588.509 54.8156 589.747 54.8156H610.133V9.9436H505.628V51.9356C505.628 52.9169 505.884 53.6423 506.396 54.1116C506.908 54.5809 507.74 54.8156 508.892 54.8156H511.644V62.9436H507.164Z" fill="#FFFFE3"/>
<path d="M367.198 62.9436H312.933V55.3916L333.093 44.0636C335.824 42.5276 337.829 41.2903 339.109 40.3516C340.432 39.4129 341.328 38.5383 341.797 37.7276C342.266 36.9169 342.501 35.9569 342.501 34.8476V34.2716C342.501 32.4369 341.648 31.0503 339.941 30.1116C338.277 29.1303 335.866 28.6396 332.709 28.6396C329.381 28.6396 326.842 29.2156 325.093 30.3676C323.386 31.4769 322.533 33.1196 322.533 35.2956V36.5756H313.061V35.2316C313.061 30.3249 314.725 26.5916 318.053 24.0316C321.381 21.4716 326.202 20.1916 332.517 20.1916C338.704 20.1916 343.525 21.4076 346.981 23.8396C350.437 26.2289 352.165 29.5569 352.165 33.8236V34.4636C352.165 36.5543 351.738 38.4316 350.885 40.0956C350.032 41.7596 348.581 43.4236 346.533 45.0876C344.528 46.7089 341.712 48.5436 338.085 50.5916L330.533 54.8156H367.198V18.3996H376.478V45.5356L393.374 30.8796H404.638V32.2236L390.494 44.7036L405.342 61.6636V62.9436H394.398L383.518 50.3996L376.478 56.6076V109.944H367.198V62.9436Z" fill="#FFFFE3"/>
</svg>
