<svg width="319" height="320" viewBox="0 0 319 320" fill="none" xmlns="http://www.w3.org/2000/svg">
<path d="M283.546 180.234C284.008 178.296 284.625 176.642 285.396 175.272C286.185 173.93 287.071 172.957 288.054 172.353C289.037 171.749 290.066 171.574 291.139 171.831L291.385 171.889L290.992 173.535L290.747 173.477C289.556 173.192 288.452 173.682 287.436 174.944C286.442 176.212 285.645 178.107 285.043 180.628C284.469 183.032 284.313 184.981 284.573 186.475C284.857 187.973 285.524 188.848 286.575 189.099L286.89 189.174C287.777 189.386 288.554 189.078 289.22 188.25C289.91 187.427 290.639 185.923 291.407 183.738L292.601 180.285C293.379 177.954 294.241 176.309 295.185 175.35C296.147 174.42 297.259 174.105 298.519 174.406L298.869 174.49C300.34 174.84 301.309 175.898 301.776 177.663C302.238 179.451 302.14 181.722 301.483 184.477C301.037 186.344 300.425 187.926 299.648 189.22C298.864 190.539 297.984 191.488 297.006 192.069C296.023 192.673 295.006 192.85 293.956 192.6L293.711 192.541L294.103 190.895L294.349 190.954C295.516 191.232 296.605 190.752 297.616 189.513C298.627 188.274 299.42 186.452 299.994 184.047C300.523 181.83 300.658 180.024 300.398 178.629C300.139 177.235 299.507 176.418 298.503 176.179L298.188 176.103C297.324 175.897 296.562 176.147 295.9 176.853C295.261 177.564 294.638 178.834 294.028 180.662L292.861 184.159C291.952 186.829 291.003 188.687 290.013 189.734C289.018 190.804 287.854 191.181 286.524 190.863L286.174 190.78C284.656 190.418 283.666 189.293 283.204 187.406C282.741 185.519 282.855 183.128 283.546 180.234Z" fill="#625C5A"/>
<path d="M273.426 216.695L272.057 216.055L272.865 214.326C273.383 213.218 274.061 212.448 274.898 212.018C275.747 211.62 276.659 211.596 277.634 211.947C276.269 209.03 276.446 205.734 278.164 202.06C279.231 199.777 280.398 198.217 281.665 197.378C282.931 196.54 284.271 196.451 285.684 197.112C286.967 197.712 287.738 198.668 287.998 199.982C288.28 201.306 288.056 203.03 287.328 205.153L283.928 214.89L284.319 215.073C285.993 215.855 287.55 215.868 288.991 215.111C290.431 214.354 291.67 212.867 292.707 210.649C293.327 209.323 293.685 208.047 293.782 206.82C293.89 205.625 293.734 204.572 293.312 203.66C292.903 202.779 292.263 202.136 291.394 201.729L291.165 201.622L291.867 200.122L292.095 200.229C293.247 200.768 294.117 201.598 294.705 202.721C295.283 203.866 295.527 205.185 295.437 206.68C295.347 208.175 294.921 209.737 294.159 211.368C292.929 213.999 291.386 215.768 289.531 216.675C287.698 217.593 285.727 217.559 283.618 216.573L277.617 213.767C276.878 213.421 276.2 213.369 275.584 213.611C274.979 213.884 274.484 214.434 274.097 215.26L273.426 216.695ZM279.549 202.668C278.664 204.559 278.207 206.386 278.179 208.148C278.139 209.931 278.534 211.467 279.362 212.755L282.656 214.295L285.919 204.852C286.508 203.14 286.73 201.787 286.586 200.792C286.441 199.798 285.902 199.082 284.967 198.644C283.032 197.74 281.226 199.081 279.549 202.668Z" fill="#625C5A"/>
<path d="M267.315 224.589C268.155 223.247 269.058 222.438 270.022 222.164C271.007 221.903 272.109 222.154 273.33 222.918L290.998 233.978L290.119 235.382L272.665 224.456C271.77 223.895 271.002 223.698 270.36 223.862C269.707 224.048 269.074 224.629 268.463 225.605L267.66 226.887L266.379 226.084L267.315 224.589Z" fill="#625C5A"/>
<path d="M258.362 250.272L270.618 236.602C268.991 235.144 267.2 234.553 265.244 234.83C263.271 235.125 261.42 236.237 259.69 238.167C258.648 239.328 257.88 240.509 257.385 241.709C256.889 242.908 256.703 244.015 256.826 245.028C256.934 246.059 257.354 246.92 258.089 247.61L256.887 248.951C255.919 248.018 255.339 246.902 255.15 245.604C254.96 244.305 255.156 242.918 255.738 241.442C256.305 239.983 257.229 238.539 258.51 237.109C259.888 235.573 261.358 234.473 262.919 233.81C264.48 233.147 266.033 232.943 267.577 233.199C269.138 233.47 270.571 234.191 271.875 235.36L272.492 235.913C273.814 237.099 274.687 238.445 275.109 239.951C275.549 241.474 275.524 243.047 275.035 244.672C274.546 246.296 273.612 247.877 272.234 249.413C270.905 250.897 269.475 251.952 267.946 252.579C266.418 253.24 264.899 253.425 263.387 253.134C261.86 252.86 260.444 252.139 259.139 250.969L258.362 250.272ZM271.055 248.356C272.737 246.48 273.627 244.57 273.725 242.627C273.841 240.7 273.162 239.012 271.69 237.563L260.611 249.92C262.18 251.262 263.9 251.789 265.771 251.5C267.659 251.227 269.421 250.179 271.055 248.356Z" fill="#625C5A"/>
<path d="M242.046 254.478C243.635 253.277 245.163 252.393 246.63 251.826C248.092 251.292 249.395 251.105 250.538 251.264C251.681 251.423 252.585 251.943 253.25 252.824L253.402 253.025L252.053 254.045L251.901 253.844C251.163 252.868 250 252.543 248.412 252.871C246.839 253.217 245.019 254.172 242.951 255.734C240.978 257.225 239.618 258.629 238.869 259.947C238.135 261.284 238.093 262.383 238.744 263.245L238.94 263.504C239.49 264.231 240.285 264.487 241.326 264.272C242.381 264.077 243.9 263.38 245.883 262.182L249.001 260.277C251.084 258.974 252.795 258.252 254.134 258.113C255.468 258.007 256.525 258.471 257.307 259.505L257.524 259.793C258.436 260.999 258.51 262.431 257.748 264.09C256.967 265.763 255.447 267.454 253.188 269.161C251.656 270.319 250.178 271.15 248.754 271.654C247.311 272.173 246.028 272.346 244.904 272.172C243.761 272.013 242.864 271.503 242.213 270.641L242.061 270.44L243.411 269.42L243.563 269.621C244.286 270.578 245.432 270.901 247.001 270.588C248.569 270.275 250.34 269.373 252.312 267.883C254.131 266.508 255.384 265.2 256.07 263.96C256.757 262.719 256.789 261.686 256.167 260.863L255.972 260.605C255.436 259.896 254.689 259.604 253.729 259.727C252.784 259.87 251.495 260.453 249.862 261.477L246.737 263.432C244.338 264.914 242.423 265.744 240.993 265.922C239.544 266.115 238.408 265.665 237.583 264.574L237.366 264.287C236.425 263.042 236.377 261.545 237.22 259.795C238.063 258.044 239.672 256.272 242.046 254.478Z" fill="#625C5A"/>
<path d="M213.064 273.388C214.921 272.667 216.632 272.235 218.198 272.091C219.75 271.977 221.054 272.153 222.11 272.619C223.166 273.084 223.894 273.832 224.293 274.861L224.385 275.096L222.807 275.708L222.716 275.473C222.273 274.332 221.243 273.702 219.627 273.583C218.019 273.486 216.007 273.907 213.59 274.844C211.286 275.739 209.593 276.718 208.513 277.781C207.441 278.866 207.1 279.912 207.491 280.919L207.608 281.221C207.938 282.071 208.633 282.535 209.693 282.613C210.762 282.713 212.413 282.458 214.648 281.848L218.168 280.868C220.528 280.184 222.371 279.958 223.697 280.19C225.009 280.453 225.9 281.188 226.369 282.397L226.499 282.732C227.046 284.142 226.726 285.54 225.54 286.927C224.331 288.323 222.406 289.534 219.766 290.558C217.976 291.253 216.328 291.648 214.82 291.744C213.29 291.849 212.009 291.664 210.975 291.19C209.919 290.725 209.196 289.988 208.805 288.982L208.714 288.747L210.291 288.134L210.382 288.369C210.817 289.488 211.831 290.111 213.425 290.239C215.019 290.367 216.969 289.984 219.273 289.089C221.399 288.264 222.961 287.349 223.961 286.343C224.961 285.337 225.274 284.353 224.901 283.391L224.784 283.089C224.462 282.261 223.823 281.775 222.867 281.632C221.918 281.511 220.519 281.719 218.668 282.257L215.128 283.284C212.415 284.054 210.346 284.329 208.922 284.109C207.476 283.898 206.505 283.155 206.01 281.88L205.88 281.544C205.315 280.09 205.678 278.636 206.968 277.183C208.257 275.73 210.289 274.465 213.064 273.388Z" fill="#625C5A"/>
<path d="M177.297 285.704L177.048 284.213L178.93 283.899C180.137 283.697 181.155 283.819 181.984 284.265C182.793 284.738 183.33 285.475 183.595 286.477C185.223 283.699 188.038 281.976 192.038 281.308C194.524 280.892 196.471 280.969 197.88 281.536C199.289 282.104 200.121 283.157 200.378 284.696C200.612 286.092 200.261 287.27 199.326 288.229C198.395 289.212 196.849 290.006 194.687 290.61L184.739 293.33L184.811 293.757C185.115 295.579 185.987 296.869 187.428 297.626C188.868 298.383 190.796 298.56 193.21 298.157C194.654 297.916 195.909 297.487 196.974 296.871C198.019 296.283 198.798 295.557 199.311 294.692C199.804 293.856 199.971 292.964 199.813 292.017L199.771 291.768L201.405 291.496L201.446 291.744C201.656 292.999 201.465 294.186 200.874 295.307C200.258 296.432 199.31 297.381 198.028 298.155C196.746 298.929 195.217 299.464 193.442 299.761C190.577 300.239 188.245 299.972 186.446 298.958C184.65 297.969 183.561 296.326 183.177 294.029L182.086 287.496C181.951 286.691 181.61 286.103 181.061 285.733C180.493 285.39 179.759 285.293 178.86 285.443L177.297 285.704ZM192.323 282.793C190.263 283.137 188.5 283.797 187.033 284.772C185.541 285.751 184.5 286.947 183.909 288.359L184.508 291.946L194.136 289.279C195.88 288.793 197.121 288.209 197.858 287.526C198.596 286.843 198.88 285.992 198.71 284.975C198.358 282.868 196.229 282.141 192.323 282.793Z" fill="#625C5A"/>
<path d="M167.338 285.133C168.92 285.066 170.098 285.353 170.869 285.992C171.642 286.656 172.059 287.707 172.12 289.146L173.005 309.971L171.35 310.042L170.477 289.468C170.432 288.413 170.16 287.668 169.661 287.233C169.138 286.799 168.301 286.606 167.15 286.655L165.64 286.719L165.575 285.208L167.338 285.133Z" fill="#625C5A"/>
<path d="M140.648 292.273L158.851 294.671C159.136 292.506 158.612 290.694 157.279 289.235C155.922 287.774 153.959 286.873 151.389 286.535C149.843 286.331 148.435 286.363 147.165 286.632C145.895 286.9 144.876 287.371 144.11 288.045C143.319 288.715 142.847 289.549 142.691 290.545L140.907 290.31C141.13 288.984 141.723 287.876 142.688 286.986C143.652 286.096 144.908 285.475 146.456 285.122C147.979 284.766 149.693 284.714 151.596 284.964C153.643 285.234 155.38 285.826 156.809 286.741C158.238 287.655 159.282 288.821 159.943 290.24C160.6 291.682 160.814 293.272 160.585 295.009L160.477 295.83C160.245 297.59 159.627 299.07 158.621 300.269C157.613 301.492 156.3 302.36 154.683 302.873C153.067 303.386 151.235 303.508 149.189 303.238C147.214 302.978 145.536 302.394 144.154 301.486C142.746 300.598 141.736 299.448 141.123 298.036C140.487 296.621 140.283 295.045 140.512 293.308L140.648 292.273ZM149.396 301.668C151.894 301.997 153.973 301.654 155.632 300.638C157.287 299.646 158.298 298.133 158.662 296.099L142.209 293.931C141.987 295.984 142.523 297.7 143.818 299.081C145.109 300.486 146.969 301.348 149.396 301.668Z" fill="#625C5A"/>
<path d="M128.013 281.196C129.9 281.832 131.492 282.597 132.786 283.489C134.051 284.396 134.939 285.367 135.452 286.401C135.964 287.435 136.044 288.475 135.692 289.521L135.611 289.76L134.008 289.219L134.088 288.981C134.479 287.821 134.092 286.677 132.927 285.55C131.755 284.446 129.94 283.479 127.484 282.651C125.142 281.862 123.215 281.529 121.704 281.653C120.186 281.8 119.254 282.385 118.909 283.408L118.806 283.715C118.514 284.579 118.751 285.381 119.515 286.12C120.271 286.881 121.703 287.743 123.809 288.707L127.14 290.209C129.391 291.196 130.951 292.203 131.82 293.231C132.659 294.273 132.871 295.409 132.457 296.637L132.342 296.978C131.859 298.411 130.718 299.28 128.918 299.585C127.096 299.882 124.843 299.579 122.159 298.674C120.34 298.061 118.821 297.308 117.602 296.416C116.36 295.516 115.494 294.553 115.004 293.527C114.492 292.493 114.408 291.464 114.753 290.441L114.834 290.202L116.437 290.743L116.356 290.981C115.973 292.118 116.353 293.247 117.495 294.366C118.637 295.486 120.379 296.44 122.722 297.23C124.882 297.958 126.669 298.257 128.081 298.125C129.493 297.993 130.364 297.438 130.693 296.46L130.797 296.153C131.081 295.312 130.901 294.529 130.258 293.806C129.608 293.106 128.4 292.369 126.634 291.597L123.258 290.117C120.682 288.97 118.917 287.855 117.964 286.775C116.989 285.686 116.72 284.494 117.157 283.197L117.272 282.856C117.77 281.378 118.98 280.494 120.901 280.204C122.822 279.915 125.193 280.245 128.013 281.196Z" fill="#625C5A"/>
<path d="M96.1587 267.954C97.799 269.084 99.1192 270.256 100.119 271.47C101.086 272.689 101.674 273.867 101.883 275.002C102.092 276.137 101.883 277.159 101.256 278.068L101.113 278.275L99.7202 277.315L99.8632 277.108C100.558 276.1 100.5 274.894 99.6888 273.49C98.8646 272.106 97.3852 270.679 95.2508 269.208C93.2152 267.806 91.454 266.957 89.9673 266.661C88.467 266.385 87.4105 266.692 86.7978 267.581L86.6139 267.848C86.0965 268.599 86.1037 269.435 86.6355 270.355C87.1537 271.295 88.2933 272.517 90.0544 274.022L92.8443 276.381C94.7376 277.948 95.9611 279.345 96.5149 280.572C97.0352 281.804 96.9277 282.954 96.1924 284.022L95.9882 284.318C95.1303 285.563 93.7942 286.085 91.9799 285.884C90.1458 285.67 88.0627 284.759 85.7307 283.153C84.1496 282.063 82.8955 280.922 81.9685 279.73C81.0216 278.524 80.4536 277.36 80.2644 276.239C80.0554 275.104 80.2573 274.092 80.8701 273.202L81.013 272.995L82.4063 273.955L82.2634 274.162C81.5825 275.15 81.6376 276.34 82.4285 277.73C83.2194 279.12 84.6326 280.516 86.6682 281.919C88.5457 283.212 90.1815 283.99 91.5755 284.251C92.9695 284.512 93.9593 284.217 94.5448 283.367L94.7286 283.101C95.2325 282.369 95.2747 281.568 94.8553 280.696C94.4223 279.844 93.463 278.804 91.9772 277.576L89.1373 275.226C86.9748 273.416 85.5839 271.86 84.9647 270.559C84.3258 269.244 84.3944 268.024 85.1706 266.897L85.3748 266.601C86.2599 265.316 87.6658 264.798 89.5926 265.048C91.5194 265.297 93.7081 266.266 96.1587 267.954Z" fill="#625C5A"/>
<path d="M65.8375 245.412L66.9259 244.362L68.2504 245.735C69.1 246.617 69.5757 247.525 69.6775 248.46C69.7454 249.395 69.4412 250.255 68.765 251.041C71.9772 250.81 74.991 252.155 77.8064 255.075C79.5557 256.889 80.595 258.537 80.9245 260.02C81.254 261.502 80.8573 262.785 79.7344 263.868C78.7151 264.851 77.5455 265.229 76.2258 265.001C74.8887 264.79 73.3591 263.964 71.637 262.524L63.7636 255.863L63.4526 256.163C62.1224 257.446 61.5529 258.895 61.7442 260.511C61.9355 262.127 62.8808 263.816 64.58 265.579C65.5963 266.632 66.6597 267.424 67.7703 267.953C68.847 268.482 69.8867 268.713 70.8893 268.647C71.858 268.579 72.6879 268.212 73.3789 267.546L73.5603 267.371L74.7098 268.563L74.5284 268.738C73.6128 269.621 72.5256 270.136 71.2669 270.283C69.9916 270.412 68.6721 270.168 67.3085 269.549C65.9449 268.93 64.6384 267.973 63.3889 266.677C61.3731 264.587 60.2736 262.513 60.0903 260.456C59.8897 258.415 60.6273 256.587 62.3031 254.971L67.0713 250.373C67.6587 249.807 67.9499 249.193 67.945 248.531C67.9061 247.868 67.5701 247.208 66.9371 246.552L65.8375 245.412ZM76.743 256.15C75.2936 254.647 73.7517 253.567 72.1172 252.909C70.4661 252.234 68.8909 252.053 67.3916 252.365L64.7742 254.889L72.4228 261.316C73.8104 262.479 74.9945 263.171 75.9749 263.392C76.9554 263.614 77.817 263.366 78.5599 262.65C80.0974 261.167 79.4918 259.001 76.743 256.15Z" fill="#625C5A"/>
<path d="M60.6195 236.828C61.5699 238.095 61.9995 239.228 61.9083 240.226C61.7979 241.239 61.1667 242.178 60.0147 243.042L43.3394 255.548L42.3458 254.223L58.8195 241.868C59.6643 241.234 60.1251 240.589 60.2019 239.931C60.2643 239.254 59.9499 238.455 59.2587 237.534L58.3515 236.324L59.5611 235.417L60.6195 236.828Z" fill="#625C5A"/>
<path d="M39.9802 219.5L48.3691 235.832C50.3118 234.834 51.5034 233.372 51.9441 231.446C52.3737 229.498 51.9964 227.372 50.8121 225.066C50.0993 223.678 49.2711 222.539 48.3276 221.647C47.3841 220.756 46.4172 220.187 45.427 219.94C44.4259 219.672 43.4715 219.757 42.5639 220.197L41.7415 218.595C42.9589 218.024 44.2079 217.882 45.4883 218.168C46.7687 218.455 47.9944 219.134 49.1653 220.205C50.3252 221.255 51.3438 222.634 52.2211 224.342C53.1641 226.178 53.6663 227.944 53.7277 229.639C53.7891 231.334 53.4246 232.857 52.6342 234.207C51.8225 235.569 50.6374 236.65 49.079 237.45L48.3425 237.828C46.7627 238.64 45.1938 238.974 43.6359 238.829C42.0566 238.696 40.5958 238.111 39.2535 237.074C37.9113 236.037 36.7686 234.6 35.8255 232.764C34.9154 230.992 34.4406 229.28 34.4012 227.627C34.3294 225.964 34.6997 224.479 35.512 223.171C36.3133 221.842 37.4932 220.778 39.0516 219.977L39.9802 219.5ZM37.2345 232.04C38.3859 234.282 39.8515 235.795 41.6311 236.581C43.3893 237.378 45.2084 237.347 47.0882 236.49L39.5053 221.727C37.6913 222.713 36.585 224.131 36.1865 225.982C35.7667 227.843 36.116 229.863 37.2345 232.04Z" fill="#625C5A"/>
<path d="M41.8428 202.703C42.3857 204.619 42.6553 206.364 42.6517 207.936C42.6185 209.492 42.3205 210.774 41.7578 211.782C41.195 212.789 40.3826 213.443 39.3204 213.744L39.0779 213.813L38.6168 212.185L38.8592 212.116C40.0369 211.783 40.7611 210.817 41.0318 209.218C41.2794 207.627 41.05 205.584 40.3436 203.09C39.67 200.712 38.8548 198.934 37.8982 197.759C36.9184 196.589 35.909 196.152 34.8699 196.446L34.5582 196.535C33.6807 196.783 33.1534 197.431 32.9763 198.479C32.776 199.534 32.8744 201.202 33.2714 203.484L33.9159 207.081C34.3752 209.495 34.427 211.351 34.0713 212.649C33.6859 213.931 32.8698 214.748 31.6228 215.101L31.2765 215.199C29.8217 215.611 28.4595 215.162 27.19 213.85C25.914 212.515 24.8901 210.485 24.1183 207.761C23.5951 205.913 23.3566 204.235 23.4029 202.725C23.4427 201.192 23.7472 199.933 24.3165 198.949C24.8792 197.941 25.6802 197.291 26.7193 196.996L26.9617 196.928L27.4228 198.556L27.1804 198.624C26.0258 198.951 25.3099 199.902 25.0327 201.478C24.7554 203.053 24.9537 205.029 25.6273 207.408C26.2487 209.602 27.013 211.243 27.9204 212.333C28.8278 213.423 29.778 213.828 30.7709 213.547L31.0826 213.458C31.937 213.216 32.4807 212.626 32.7136 211.687C32.9234 210.754 32.8475 209.341 32.4859 207.448L31.797 203.827C31.2858 201.053 31.2065 198.968 31.5591 197.571C31.9052 196.151 32.7364 195.255 34.0526 194.882L34.399 194.784C35.8999 194.359 37.3131 194.856 38.6384 196.277C39.9637 197.697 41.0318 199.839 41.8428 202.703Z" fill="#625C5A"/>
<path d="M34.6258 168.418C34.6181 170.41 34.3953 172.161 33.9575 173.671C33.4957 175.158 32.8553 176.307 32.0361 177.12C31.217 177.933 30.2554 178.337 29.1514 178.333L28.8994 178.332L28.906 176.64L29.158 176.641C30.382 176.646 31.3448 175.917 32.0464 174.456C32.7241 172.995 33.0679 170.968 33.0779 168.376C33.0874 165.904 32.7949 163.971 32.2003 162.576C31.5817 161.182 30.7324 160.483 29.6524 160.479L29.3284 160.477C28.4164 160.474 27.7305 160.951 27.2708 161.909C26.7871 162.868 26.4208 164.498 26.1719 166.801L25.7979 170.436C25.5724 172.883 25.1095 174.681 24.4091 175.831C23.6847 176.956 22.6745 177.516 21.3786 177.511L21.0186 177.509C19.5066 177.504 18.3217 176.695 17.4639 175.084C16.6062 173.448 16.1828 171.215 16.1937 168.383C16.2012 166.463 16.4356 164.784 16.8972 163.345C17.3588 161.883 17.9992 160.758 18.8182 159.969C19.6374 159.156 20.587 158.752 21.667 158.756L21.919 158.757L21.9124 160.449L21.6604 160.448C20.4604 160.443 19.5097 161.159 18.8081 162.597C18.1066 164.034 17.751 165.989 17.7415 168.461C17.7327 170.741 18.0138 172.53 18.5847 173.828C19.1557 175.126 19.9572 175.777 20.9892 175.781L21.3132 175.783C22.2012 175.786 22.8868 175.369 23.3701 174.531C23.8293 173.692 24.1466 172.313 24.322 170.394L24.6602 166.723C24.9351 163.916 25.4349 161.89 26.1597 160.645C26.8846 159.376 27.931 158.744 29.299 158.749L29.659 158.751C31.219 158.757 32.4397 159.625 33.321 161.357C34.2023 163.088 34.6372 165.442 34.6258 168.418Z" fill="#625C5A"/>
<path d="M36.0377 130.818L37.5184 131.124L37.1324 132.993C36.8847 134.191 36.4036 135.097 35.6889 135.709C34.9556 136.293 34.074 136.527 33.0439 136.412C35.0471 138.934 35.6384 142.181 34.8177 146.153C34.3078 148.62 33.5339 150.409 32.496 151.518C31.4582 152.627 30.1754 153.023 28.6476 152.708C27.2609 152.421 26.289 151.669 25.7319 150.451C25.1514 149.228 24.9694 147.5 25.186 145.265L26.2396 135.006L25.8166 134.919C24.0068 134.545 22.4889 134.893 21.2631 135.963C20.0372 137.033 19.1766 138.767 18.6812 141.164C18.385 142.598 18.3319 143.923 18.5218 145.138C18.6931 146.325 19.0893 147.314 19.7103 148.104C20.3126 148.866 21.0839 149.344 22.024 149.538L22.2708 149.589L21.9357 151.211L21.6889 151.16C20.4432 150.902 19.4045 150.296 18.5728 149.339C17.7459 148.36 17.203 147.133 16.9441 145.658C16.6851 144.183 16.7378 142.564 17.102 140.801C17.6896 137.957 18.7807 135.879 20.3753 134.567C21.9463 133.249 23.8718 132.826 26.1516 133.297L32.6386 134.637C33.4377 134.803 34.1091 134.696 34.6528 134.318C35.1779 133.912 35.5327 133.263 35.7172 132.37L36.0377 130.818ZM33.3297 145.882C33.7522 143.837 33.7735 141.954 33.3938 140.234C33.0189 138.49 32.2794 137.087 31.1754 136.026L27.6146 135.29L26.6265 145.232C26.4503 147.034 26.5475 148.402 26.9181 149.336C27.2887 150.27 27.9794 150.842 28.99 151.051C31.0818 151.483 32.5284 149.76 33.3297 145.882Z" fill="#625C5A"/>
<path d="M40.2243 121.436C39.7127 122.935 39.0187 123.928 38.1424 124.415C37.2434 124.894 36.1125 124.901 34.7497 124.436L15.0229 117.704L15.5578 116.137L35.0461 122.788C36.0455 123.129 36.8385 123.146 37.4251 122.839C38.0194 122.509 38.5026 121.799 38.8747 120.709L39.3631 119.278L40.7941 119.766L40.2243 121.436Z" fill="#625C5A"/>
<path d="M42.911 94.642L34.1022 110.751C36.0185 111.799 37.8973 111.964 39.7388 111.248C41.5917 110.511 43.14 109.005 44.3836 106.731C45.1321 105.362 45.6104 104.037 45.8186 102.756C46.0268 101.475 45.9552 100.355 45.6038 99.397C45.2639 98.4179 44.6575 97.6759 43.7846 97.1713L44.6482 95.592C45.8044 96.2789 46.6232 97.2327 47.1046 98.4533C47.586 99.6739 47.7119 101.069 47.4823 102.64C47.2642 104.189 46.6946 105.806 45.7734 107.491C44.7831 109.302 43.6037 110.708 42.235 111.71C40.8664 112.713 39.4014 113.266 37.8403 113.369C36.258 113.462 34.6983 113.087 33.1612 112.247L32.4347 111.85C30.8764 110.997 29.7197 109.886 28.9646 108.516C28.1884 107.134 27.8529 105.597 27.9581 103.904C28.0634 102.21 28.6111 100.458 29.6014 98.6474C30.5571 96.8997 31.7078 95.5457 33.0534 94.5856C34.3895 93.5929 35.8266 93.0658 37.3647 93.0042C38.9144 92.9216 40.4578 93.3005 41.995 94.1411L42.911 94.642ZM30.9911 99.4074C29.7821 101.618 29.3518 103.681 29.7003 105.595C30.0278 107.497 31.0739 108.986 32.8388 110.06L40.8012 95.4988C38.9673 94.5507 37.1726 94.431 35.4174 95.1398C33.6411 95.837 32.1656 97.2596 30.9911 99.4074Z" fill="#625C5A"/>
<path d="M57.6921 86.9045C56.4172 88.4351 55.1299 89.643 53.8303 90.5283C52.5276 91.3798 51.3016 91.8579 50.1524 91.9626C49.0031 92.0673 48.0044 91.7664 47.1561 91.0598L46.9625 90.8986L48.0454 89.5985L48.239 89.7598C49.1795 90.5431 50.3856 90.5951 51.8573 89.9157C53.3107 89.2209 54.8668 87.8777 56.5257 85.8861C58.1078 83.9867 59.1138 82.3102 59.5437 80.8566C59.9551 79.3877 59.7459 78.3076 58.9161 77.6164L58.6671 77.409C57.9664 76.8253 57.1336 76.7564 56.1688 77.2022C55.1856 77.6326 53.8645 78.6562 52.2055 80.2729L49.6018 82.8363C47.8691 84.579 46.3667 85.6702 45.0946 86.1099C43.8194 86.5158 42.684 86.304 41.6882 85.4746L41.4115 85.2442C40.2498 84.2765 39.8515 82.8984 40.2168 81.1099C40.5974 79.3029 41.694 77.3115 43.5065 75.1354C44.7353 73.6602 45.9857 72.5152 47.2577 71.7006C48.5451 70.8676 49.7557 70.4079 50.8896 70.3216C52.0388 70.2169 53.0283 70.5101 53.8582 71.2014L54.0518 71.3626L52.9689 72.6627L52.7753 72.5014C51.8532 71.7334 50.664 71.6799 49.2076 72.3409C47.7512 73.0019 46.232 74.2821 44.6499 76.1815C43.1906 77.9334 42.2676 79.4915 41.8807 80.856C41.4938 82.2204 41.6969 83.2329 42.4898 83.8934L42.7388 84.1008C43.4211 84.6691 44.2155 84.7841 45.1219 84.4459C46.0099 84.0923 47.1328 83.2317 48.4907 81.8639L51.0898 79.2499C53.0898 77.2613 54.7658 76.0179 56.1177 75.5198C57.485 75.0032 58.6943 75.1827 59.7454 76.0583L60.022 76.2887C61.2206 77.2871 61.6082 78.7343 61.1845 80.6304C60.7609 82.5264 59.5967 84.6178 57.6921 86.9045Z" fill="#625C5A"/>
<path d="M81.0766 62.1149C79.4363 63.2451 77.871 64.0613 76.3808 64.5634C74.8968 65.0321 73.5873 65.162 72.4524 64.953C71.3175 64.7441 70.4368 64.185 69.8105 63.2759L69.6675 63.0684L71.0608 62.1084L71.2038 62.3159C71.8982 63.3239 73.0457 63.6991 74.6461 63.4416C76.2329 63.1643 78.0936 62.2904 80.228 60.8198C82.2636 59.4172 83.6843 58.0741 84.4902 56.7902C85.2824 55.4866 85.3721 54.3901 84.7594 53.5008L84.5756 53.234C84.0581 52.483 83.2748 52.192 82.2255 52.3612C81.1627 52.5106 79.6145 53.1401 77.5811 54.2497L74.3827 56.0162C72.2443 57.2272 70.5034 57.873 69.1598 57.9535C67.8225 58.0006 66.7861 57.4905 66.0508 56.4233L65.8466 56.1268C64.9887 54.8818 64.9767 53.4473 65.8107 51.8235C66.6644 50.1861 68.2572 48.564 70.5893 46.9572C72.1704 45.8679 73.6831 45.1025 75.1276 44.661C76.5919 44.2058 77.8816 44.0896 78.9968 44.3122C80.1317 44.5211 81.0055 45.0703 81.6183 45.9596L81.7613 46.1672L80.368 47.1271L80.225 46.9196C79.5442 45.9315 78.4134 45.5593 76.8327 45.8032C75.252 46.0471 73.4439 46.8703 71.4083 48.2728C69.5308 49.5664 68.2218 50.818 67.4814 52.0276C66.741 53.2372 66.6636 54.267 67.2491 55.1168L67.4329 55.3836C67.9367 56.1148 68.6707 56.4398 69.6347 56.3585C70.5851 56.2574 71.8985 55.7313 73.5749 54.7803L76.7825 52.9638C79.2446 51.588 81.1937 50.8425 82.6299 50.7273C84.0859 50.5986 85.2019 51.0974 85.9781 52.2239L86.1823 52.5204C87.0674 53.805 87.0504 55.3031 86.1313 57.0147C85.2121 58.7264 83.5273 60.4264 81.0766 62.1149Z" fill="#625C5A"/>
<path d="M113.026 41.6637L113.615 43.0562L111.857 43.7995C110.73 44.2763 109.712 44.3944 108.802 44.1537C107.905 43.8816 107.212 43.289 106.721 42.3759C105.783 45.4567 103.446 47.7871 99.7107 49.3671C97.3898 50.3488 95.4782 50.7273 93.9761 50.5027C92.4739 50.2782 91.419 49.4475 90.8113 48.0107C90.2597 46.7066 90.327 45.4794 91.0131 44.3293C91.69 43.157 93.0095 42.0256 94.9716 40.9351L104.014 35.9768L103.846 35.5789C103.126 33.8769 101.978 32.8252 100.401 32.4238C98.824 32.0224 96.9082 32.2985 94.6536 33.2521C93.3052 33.8224 92.1847 34.5309 91.292 35.3775C90.412 36.1927 89.8232 37.0802 89.5256 38.0399C89.2407 38.9682 89.2853 39.8745 89.6592 40.7586L89.7574 40.9907L88.2322 41.6358L88.1341 41.4037C87.6385 40.2322 87.5481 39.0327 87.8628 37.8051C88.1996 36.5682 88.9014 35.4245 89.9684 34.3738C91.0354 33.3232 92.3979 32.4472 94.0557 31.746C96.7303 30.6148 99.0605 30.3328 101.046 30.9C103.023 31.4451 104.464 32.7897 105.371 34.9338L107.952 41.0345C108.27 41.7861 108.738 42.2783 109.358 42.5113C109.991 42.7129 110.727 42.636 111.567 42.2807L113.026 41.6637ZM99.0885 47.9886C101.012 47.1752 102.573 46.1237 103.774 44.8342C104.996 43.5353 105.731 42.1301 105.978 40.6186L104.561 37.2699L95.817 42.102C94.234 42.98 93.1632 43.8368 92.6045 44.6725C92.0459 45.5081 91.9676 46.4011 92.3697 47.3516C93.2017 49.3189 95.4414 49.5312 99.0885 47.9886Z" fill="#625C5A"/>
<path d="M123.052 39.7642C121.528 40.1959 120.316 40.1898 119.417 39.746C118.512 39.2791 117.863 38.3529 117.471 36.9674L111.79 16.9123L113.383 16.461L118.995 36.2736C119.283 37.2897 119.72 37.9516 120.306 38.2596C120.915 38.561 121.774 38.5547 122.882 38.2407L124.337 37.8287L124.749 39.2835L123.052 39.7642Z" fill="#625C5A"/>
<path d="M146.712 26.6838L128.451 28.5915C128.678 30.7637 129.61 32.4038 131.246 33.5118C132.905 34.6173 135.024 35.0354 137.602 34.7661C139.154 34.604 140.516 34.2445 141.688 33.6877C142.861 33.1308 143.741 32.4356 144.33 31.6019C144.942 30.7657 145.208 29.8451 145.127 28.8401L146.917 28.6531C147.009 29.9948 146.69 31.2105 145.959 32.3004C145.229 33.3902 144.152 34.2869 142.729 34.9905C141.331 35.6917 139.676 36.142 137.767 36.3415C135.714 36.556 133.886 36.3849 132.284 35.8284C130.681 35.2719 129.394 34.3809 128.421 33.1553C127.446 31.9059 126.868 30.4099 126.685 28.6674L126.599 27.8439C126.415 26.0775 126.672 24.4942 127.37 23.0941C128.066 21.6701 129.14 20.5202 130.593 19.6445C132.046 18.7688 133.799 18.2237 135.852 18.0093C137.833 17.8023 139.601 17.9795 141.156 18.541C142.732 19.0762 143.982 19.959 144.907 21.1896C145.856 22.4176 146.421 23.9029 146.603 25.6454L146.712 26.6838ZM136.016 19.5847C133.51 19.8465 131.568 20.6647 130.192 22.0392C128.813 23.3898 128.183 25.0965 128.302 27.1593L144.808 25.4349C144.545 23.387 143.624 21.8424 142.043 20.801C140.46 19.7358 138.451 19.3303 136.016 19.5847Z" fill="#625C5A"/>
<path d="M162.161 34.4109C160.178 34.2268 158.453 33.8498 156.988 33.2799C155.548 32.6883 154.46 31.9486 153.723 31.0607C152.986 30.1728 152.668 29.1792 152.77 28.0799L152.794 27.829L154.478 27.9853L154.455 28.2363C154.342 29.455 154.982 30.4786 156.376 31.3069C157.771 32.1113 159.759 32.6333 162.34 32.8728C164.802 33.1013 166.753 32.9811 168.195 32.5123C169.638 32.0197 170.41 31.2356 170.51 30.1602L170.54 29.8376C170.624 28.9295 170.21 28.2041 169.296 27.6613C168.384 27.0947 166.792 26.5854 164.521 26.1335L160.933 25.439C158.516 24.9977 156.766 24.3773 155.683 23.5778C154.626 22.7566 154.158 21.7008 154.278 20.4104L154.311 20.0519C154.451 18.5464 155.361 17.4378 157.042 16.7261C158.747 16.0166 161.009 15.7927 163.829 16.0544C165.741 16.2319 167.393 16.6142 168.784 17.2013C170.2 17.7906 171.264 18.5282 171.977 19.4139C172.715 20.3018 173.033 21.2834 172.933 22.3588L172.91 22.6097L171.225 22.4534L171.249 22.2024C171.36 21.0076 170.73 19.9971 169.361 19.171C167.991 18.3449 166.076 17.8176 163.614 17.5892C161.344 17.3784 159.537 17.5 158.193 17.9537C156.85 18.4075 156.13 19.1482 156.035 20.1758L156.005 20.4984C155.923 21.3826 156.278 22.1025 157.07 22.658C157.864 23.1897 159.209 23.6279 161.106 23.9726L164.732 24.6346C167.504 25.157 169.477 25.8343 170.654 26.6666C171.854 27.501 172.39 28.5993 172.264 29.9615L172.231 30.3199C172.086 31.8733 171.113 33.0122 169.31 33.7367C167.508 34.4612 165.125 34.6859 162.161 34.4109Z" fill="#625C5A"/>
<path d="M196.293 39.7809C194.436 39.0601 192.881 38.2248 191.628 37.2751C190.406 36.3116 189.562 35.3018 189.096 34.2459C188.631 33.1899 188.598 32.1473 188.997 31.1181L189.088 30.8832L190.666 31.4954L190.575 31.7303C190.132 32.8714 190.467 34.0312 191.58 35.2098C192.701 36.3659 194.47 37.4129 196.887 38.3508C199.191 39.2452 201.101 39.6645 202.616 39.6088C204.139 39.5308 205.096 38.9883 205.487 37.9815L205.604 37.6794C205.934 36.8292 205.734 36.0179 205.004 35.2454C204.283 34.4506 202.892 33.5245 200.831 32.4672L197.571 30.816C195.367 29.7289 193.854 28.6525 193.032 27.5868C192.241 26.5075 192.08 25.3637 192.549 24.1555L192.679 23.8199C193.226 22.4104 194.406 21.5937 196.217 21.3701C198.051 21.1551 200.289 21.56 202.929 22.5846C204.719 23.2793 206.202 24.0997 207.38 25.0458C208.58 26.0006 209.401 27.0017 209.844 28.049C210.31 29.1049 210.347 30.1363 209.956 31.1431L209.865 31.3781L208.288 30.7659L208.379 30.5309C208.813 29.4122 208.485 28.268 207.394 27.0981C206.304 25.9282 204.606 24.8961 202.301 24.0017C200.176 23.1767 198.405 22.7983 196.988 22.8664C195.572 22.9344 194.677 23.4495 194.303 24.4116L194.186 24.7136C193.865 25.5415 194.009 26.3311 194.618 27.0825C195.236 27.8115 196.41 28.6017 198.139 29.453L201.445 31.0836C203.967 32.3457 205.68 33.5382 206.583 34.6609C207.508 35.7924 207.723 36.9958 207.228 38.2711L207.098 38.6067C206.534 40.061 205.285 40.8895 203.353 41.0921C201.421 41.2947 199.068 40.8576 196.293 39.7809Z" fill="#625C5A"/>
<path d="M231.284 54.8144L230.463 56.0841L228.86 55.048C227.833 54.3834 227.163 53.6073 226.851 52.7196C226.572 51.8248 226.672 50.918 227.152 49.9993C224.077 50.9544 220.836 50.3307 217.43 48.1284C215.314 46.76 213.927 45.3914 213.268 44.0227C212.61 42.6539 212.704 41.3145 213.552 40.0045C214.32 38.8154 215.373 38.1816 216.71 38.1029C218.06 38.0041 219.738 38.4599 221.742 39.4704L230.925 44.1648L231.159 43.802C232.163 42.2502 232.388 40.7093 231.834 39.1793C231.28 37.6492 229.975 36.2196 227.919 34.8903C226.69 34.0954 225.474 33.5666 224.272 33.3038C223.103 33.0339 222.038 33.0455 221.077 33.3386C220.149 33.6245 219.425 34.1705 218.903 34.9767L218.766 35.1883L217.376 34.2891L217.513 34.0775C218.203 33.0093 219.145 32.2605 220.337 31.8311C221.55 31.4147 222.89 31.3527 224.359 31.645C225.827 31.9373 227.317 32.5721 228.829 33.5495C231.268 35.1264 232.81 36.8955 233.457 38.857C234.116 40.7982 233.814 42.7463 232.55 44.7012L228.953 50.2637C228.51 50.9489 228.366 51.6133 228.522 52.2568C228.71 52.8933 229.188 53.4591 229.954 53.9543L231.284 54.8144ZM218.221 46.8391C219.974 47.9729 221.721 48.674 223.463 48.9426C225.224 49.2241 226.799 49.0423 228.188 48.3971L230.162 45.3438L221.252 40.8253C219.636 40.0091 218.326 39.6048 217.321 39.6122C216.316 39.6196 215.533 40.0566 214.972 40.9232C213.813 42.7169 214.895 44.6889 218.221 46.8391Z" fill="#625C5A"/>
<path d="M238.081 61.7354C236.864 60.7216 236.185 59.7184 236.043 58.7259C235.917 57.715 236.315 56.6563 237.236 55.5498L250.577 39.534L251.849 40.5939L238.67 56.4161C237.994 57.2275 237.695 57.962 237.772 58.6195C237.867 59.2925 238.358 59.9976 239.243 60.7349L240.404 61.7026L239.437 62.8643L238.081 61.7354Z" fill="#625C5A"/>
<path d="M262.398 74.0158L250.494 60.0378C248.831 61.4538 248.006 63.1497 248.018 65.1256C248.045 67.1197 248.899 69.1035 250.58 71.0768C251.591 72.2645 252.658 73.1842 253.781 73.836C254.903 74.4878 255.975 74.8205 256.995 74.8342C258.031 74.8661 258.94 74.5645 259.723 73.9292L260.89 75.2996C259.836 76.1345 258.653 76.5589 257.341 76.5729C256.029 76.587 254.68 76.2065 253.295 75.4315C251.926 74.6748 250.619 73.5656 249.374 72.1038C248.036 70.5324 247.143 68.9286 246.695 67.2924C246.247 65.6562 246.253 64.0904 246.714 62.595C247.192 61.0841 248.099 59.7607 249.432 58.6248L250.063 58.0879C251.415 56.9364 252.866 56.2525 254.415 56.0362C255.983 55.8043 257.539 56.0397 259.083 56.7423C260.627 57.4449 262.068 58.5818 263.407 60.1532C264.698 61.6698 265.552 63.2279 265.969 64.8276C266.419 66.43 266.399 67.9606 265.907 69.4194C265.431 70.8965 264.527 72.203 263.193 73.339L262.398 74.0158ZM262.201 61.1802C260.567 59.2617 258.794 58.1236 256.882 57.7661C254.988 57.393 253.224 57.839 251.59 59.1041L262.35 71.7392C263.891 70.3645 264.643 68.7308 264.607 66.8381C264.59 64.9299 263.788 63.044 262.201 61.1802Z" fill="#625C5A"/>
<path d="M264.408 90.6293C263.433 88.8922 262.764 87.2587 262.401 85.7287C262.07 84.208 262.061 82.8921 262.373 81.7811C262.685 80.6702 263.323 79.8445 264.285 79.3041L264.505 79.1808L265.333 80.6562L265.114 80.7796C264.046 81.3787 263.567 82.4869 263.677 84.1042C263.808 85.7098 264.507 87.6427 265.776 89.903C266.986 92.0586 268.193 93.5965 269.398 94.5167C270.623 95.4251 271.707 95.615 272.649 95.0864L272.931 94.9278C273.726 94.4814 274.088 93.7281 274.016 92.6677C273.964 91.5956 273.479 89.9963 272.561 87.8697L271.095 84.5228C270.085 82.2824 269.602 80.4895 269.645 79.1443C269.721 77.8082 270.324 76.823 271.454 76.1887L271.768 76.0125C273.086 75.2724 274.516 75.392 276.056 76.3713C277.609 77.3716 279.078 79.1065 280.464 81.5761C281.404 83.2503 282.027 84.8269 282.334 86.3059C282.653 87.8057 282.651 89.1006 282.327 90.1907C282.015 91.3017 281.388 92.1214 280.446 92.6501L280.226 92.7734L279.398 91.298L279.618 91.1746C280.664 90.5872 281.138 89.4954 281.041 87.899C280.943 86.3026 280.289 84.4266 279.079 82.271C277.963 80.2828 276.836 78.8645 275.7 78.0163C274.563 77.1681 273.545 76.9966 272.645 77.5017L272.362 77.6603C271.588 78.0949 271.197 78.796 271.19 79.7634C271.203 80.7191 271.607 82.0752 272.4 83.8317L273.915 87.1924C275.059 89.7703 275.623 91.7795 275.606 93.2202C275.6 94.6819 275.001 95.7475 273.808 96.4171L273.494 96.5933C272.134 97.3568 270.644 97.2025 269.024 96.1303C267.403 95.0581 265.865 93.2244 264.408 90.6293Z" fill="#625C5A"/>
<path d="M279.324 121.748C278.862 119.81 278.665 118.056 278.735 116.485C278.833 114.932 279.184 113.664 279.788 112.681C280.393 111.697 281.232 111.078 282.306 110.822L282.551 110.763L282.943 112.409L282.698 112.467C281.508 112.751 280.744 113.686 280.407 115.272C280.093 116.852 280.237 118.902 280.838 121.424C281.412 123.828 282.152 125.638 283.059 126.852C283.989 128.062 284.979 128.541 286.03 128.29L286.345 128.215C287.232 128.003 287.786 127.378 288.007 126.338C288.251 125.293 288.222 123.622 287.921 121.325L287.427 117.705C287.069 115.274 287.095 113.417 287.504 112.135C287.943 110.87 288.792 110.088 290.053 109.787L290.403 109.704C291.874 109.353 293.216 109.859 294.43 111.222C295.649 112.609 296.587 114.68 297.245 117.435C297.69 119.302 297.858 120.989 297.749 122.496C297.645 124.026 297.288 125.271 296.679 126.23C296.074 127.213 295.247 127.83 294.196 128.081L293.951 128.139L293.558 126.494L293.804 126.435C294.971 126.157 295.726 125.236 296.069 123.674C296.411 122.112 296.296 120.129 295.722 117.724C295.193 115.506 294.498 113.834 293.637 112.707C292.776 111.58 291.843 111.136 290.839 111.376L290.524 111.451C289.66 111.657 289.093 112.225 288.821 113.153C288.572 114.076 288.589 115.491 288.871 117.397L289.408 121.044C289.803 123.837 289.795 125.924 289.385 127.305C288.98 128.709 288.112 129.57 286.781 129.887L286.431 129.971C284.914 130.333 283.522 129.777 282.258 128.302C280.993 126.827 280.015 124.643 279.324 121.748Z" fill="#625C5A"/>
<path d="M286.817 159.134L285.305 159.18L285.246 157.273C285.209 156.05 285.466 155.057 286.019 154.296C286.596 153.558 287.399 153.125 288.428 152.997C285.893 151.01 284.564 147.99 284.438 143.936C284.361 141.417 284.697 139.498 285.449 138.178C286.201 136.858 287.356 136.174 288.915 136.126C290.331 136.082 291.451 136.588 292.276 137.643C293.125 138.697 293.704 140.336 294.012 142.56L295.373 152.783L295.804 152.769C297.652 152.712 299.047 152.021 299.99 150.695C300.934 149.369 301.368 147.483 301.292 145.036C301.247 143.573 300.991 142.272 300.523 141.134C300.081 140.019 299.466 139.15 298.678 138.526C297.915 137.925 297.054 137.639 296.094 137.669L295.843 137.677L295.791 136.022L296.043 136.014C297.315 135.975 298.466 136.323 299.497 137.06C300.529 137.82 301.343 138.888 301.937 140.262C302.532 141.636 302.857 143.223 302.913 145.022C303.002 147.925 302.424 150.2 301.179 151.847C299.957 153.493 298.182 154.353 295.856 154.424L289.235 154.629C288.419 154.654 287.791 154.914 287.35 155.407C286.934 155.925 286.74 156.639 286.768 157.55L286.817 159.134ZM285.948 143.853C286.013 145.94 286.43 147.776 287.199 149.361C287.969 150.97 289.014 152.163 290.335 152.938L293.969 152.826L292.619 142.927C292.372 141.134 291.959 139.826 291.381 139.003C290.804 138.181 289.999 137.785 288.968 137.817C286.833 137.883 285.826 139.895 285.948 143.853Z" fill="#625C5A"/>
</svg>
