<svg width="163" height="320" viewBox="0 0 163 320" fill="none" xmlns="http://www.w3.org/2000/svg">
<path d="M127.546 180.234C128.008 178.296 128.625 176.642 129.396 175.272C130.185 173.93 131.071 172.957 132.054 172.353C133.037 171.749 134.066 171.574 135.139 171.831L135.385 171.889L134.992 173.535L134.747 173.477C133.556 173.192 132.452 173.682 131.436 174.944C130.442 176.212 129.645 178.107 129.043 180.628C128.469 183.032 128.313 184.981 128.573 186.475C128.857 187.973 129.524 188.848 130.575 189.099L130.89 189.174C131.777 189.386 132.554 189.078 133.22 188.25C133.91 187.427 134.639 185.923 135.407 183.738L136.601 180.285C137.379 177.954 138.241 176.309 139.185 175.35C140.147 174.42 141.259 174.105 142.519 174.406L142.869 174.49C144.34 174.84 145.309 175.898 145.776 177.663C146.238 179.451 146.14 181.722 145.483 184.477C145.037 186.344 144.425 187.926 143.648 189.22C142.864 190.539 141.984 191.488 141.006 192.069C140.023 192.673 139.006 192.85 137.956 192.6L137.711 192.541L138.103 190.895L138.349 190.954C139.516 191.232 140.605 190.752 141.616 189.513C142.627 188.274 143.42 186.452 143.994 184.047C144.523 181.83 144.658 180.024 144.398 178.629C144.139 177.235 143.507 176.418 142.503 176.179L142.188 176.103C141.324 175.897 140.562 176.147 139.9 176.853C139.261 177.564 138.638 178.834 138.028 180.662L136.861 184.159C135.952 186.829 135.003 188.687 134.013 189.734C133.018 190.804 131.854 191.181 130.524 190.863L130.174 190.78C128.656 190.418 127.666 189.293 127.204 187.406C126.741 185.519 126.855 183.128 127.546 180.234Z" fill="#625C5A"/>
<path d="M117.426 216.695L116.057 216.055L116.865 214.326C117.383 213.218 118.061 212.448 118.898 212.018C119.747 211.62 120.659 211.596 121.634 211.947C120.269 209.03 120.446 205.734 122.164 202.06C123.231 199.777 124.398 198.217 125.665 197.378C126.931 196.54 128.271 196.451 129.684 197.112C130.967 197.712 131.738 198.668 131.998 199.982C132.28 201.306 132.056 203.03 131.328 205.153L127.928 214.89L128.319 215.073C129.993 215.855 131.55 215.868 132.991 215.111C134.431 214.354 135.67 212.867 136.707 210.649C137.327 209.323 137.685 208.047 137.782 206.82C137.89 205.625 137.734 204.572 137.312 203.66C136.903 202.779 136.263 202.136 135.394 201.729L135.165 201.622L135.867 200.122L136.095 200.229C137.247 200.768 138.117 201.598 138.705 202.721C139.283 203.866 139.527 205.185 139.437 206.68C139.347 208.175 138.921 209.737 138.159 211.368C136.929 213.999 135.386 215.768 133.531 216.675C131.698 217.593 129.727 217.559 127.618 216.573L121.617 213.767C120.878 213.421 120.2 213.369 119.584 213.611C118.979 213.884 118.484 214.434 118.097 215.26L117.426 216.695ZM123.549 202.668C122.664 204.559 122.207 206.386 122.179 208.148C122.139 209.931 122.534 211.467 123.362 212.755L126.656 214.295L129.919 204.852C130.508 203.14 130.73 201.787 130.586 200.792C130.441 199.798 129.902 199.082 128.967 198.644C127.032 197.74 125.226 199.081 123.549 202.668Z" fill="#625C5A"/>
<path d="M111.315 224.589C112.155 223.247 113.058 222.438 114.022 222.164C115.007 221.903 116.109 222.154 117.33 222.918L134.998 233.978L134.119 235.382L116.665 224.456C115.77 223.895 115.002 223.698 114.36 223.862C113.707 224.048 113.074 224.629 112.463 225.605L111.66 226.887L110.379 226.084L111.315 224.589Z" fill="#625C5A"/>
<path d="M102.362 250.272L114.618 236.602C112.991 235.144 111.2 234.553 109.244 234.83C107.271 235.125 105.42 236.237 103.69 238.167C102.648 239.328 101.88 240.509 101.385 241.709C100.889 242.908 100.703 244.015 100.826 245.028C100.934 246.059 101.354 246.92 102.089 247.61L100.887 248.951C99.9187 248.018 99.3395 246.902 99.1497 245.604C98.9599 244.305 99.1561 242.918 99.7384 241.442C100.305 239.983 101.229 238.539 102.51 237.109C103.888 235.573 105.358 234.473 106.919 233.81C108.48 233.147 110.033 232.943 111.577 233.199C113.138 233.47 114.571 234.191 115.875 235.36L116.492 235.913C117.814 237.099 118.687 238.445 119.109 239.951C119.549 241.474 119.524 243.047 119.035 244.672C118.546 246.296 117.612 247.877 116.234 249.413C114.905 250.897 113.475 251.952 111.946 252.579C110.418 253.24 108.899 253.425 107.387 253.134C105.86 252.86 104.444 252.139 103.139 250.969L102.362 250.272ZM115.055 248.356C116.737 246.48 117.627 244.57 117.725 242.627C117.841 240.7 117.162 239.012 115.69 237.563L104.611 249.92C106.18 251.262 107.9 251.789 109.771 251.5C111.659 251.227 113.421 250.179 115.055 248.356Z" fill="#625C5A"/>
<path d="M86.046 254.478C87.6353 253.277 89.1633 252.393 90.63 251.826C92.0921 251.292 93.3946 251.105 94.5376 251.264C95.6806 251.423 96.5849 251.943 97.2505 252.824L97.4024 253.025L96.0525 254.045L95.9006 253.844C95.1626 252.868 93.9998 252.543 92.4122 252.871C90.8391 253.217 89.0185 254.172 86.9506 255.734C84.9784 257.225 83.6179 258.629 82.8691 259.947C82.1348 261.284 82.0932 262.383 82.7444 263.245L82.9397 263.504C83.4896 264.231 84.2849 264.487 85.3257 264.272C86.381 264.077 87.9001 263.38 89.8829 262.182L93.0008 260.277C95.0841 258.974 96.7951 258.252 98.1338 258.113C99.4678 258.007 100.525 258.471 101.307 259.505L101.524 259.793C102.436 260.999 102.51 262.431 101.748 264.09C100.967 265.763 99.447 267.454 97.1876 269.161C95.6558 270.319 94.178 271.15 92.7543 271.654C91.3113 272.173 90.028 272.346 88.9041 272.172C87.7611 272.013 86.8641 271.503 86.2129 270.641L86.061 270.44L87.4109 269.42L87.5628 269.621C88.2863 270.578 89.4323 270.901 91.0008 270.588C92.5692 270.275 94.3396 269.373 96.3117 267.883C98.1307 266.508 99.3836 265.2 100.07 263.96C100.757 262.719 100.789 261.686 100.167 260.863L99.9717 260.605C99.4363 259.896 98.6888 259.604 97.7292 259.727C96.7842 259.87 95.4951 260.453 93.862 261.477L90.7371 263.432C88.3377 264.914 86.4231 265.744 84.9933 265.922C83.5444 266.115 82.4076 265.665 81.5828 264.574L81.3657 264.287C80.4252 263.042 80.3765 261.545 81.2198 259.795C82.063 258.044 83.6718 256.272 86.046 254.478Z" fill="#625C5A"/>
<path d="M57.0637 273.388C58.9207 272.667 60.6322 272.235 62.1981 272.091C63.7502 271.977 65.0543 272.153 66.1103 272.619C67.1662 273.084 67.8939 273.832 68.2934 274.861L68.3845 275.096L66.8072 275.708L66.716 275.473C66.2731 274.332 65.2434 273.702 63.6267 273.583C62.0188 273.486 60.0066 273.907 57.5902 274.844C55.2857 275.739 53.5932 276.718 52.5125 277.781C51.4406 278.866 51.1001 279.912 51.4908 280.919L51.608 281.221C51.938 282.071 52.633 282.535 53.6929 282.613C54.7616 282.713 56.4133 282.458 58.648 281.848L62.1679 280.868C64.5282 280.184 66.3712 279.958 67.697 280.19C69.0091 280.453 69.8996 281.188 70.3685 282.397L70.4988 282.732C71.0458 284.142 70.7261 285.54 69.5397 286.927C68.3309 288.323 66.4064 289.534 63.7663 290.558C61.9764 291.253 60.3277 291.648 58.8203 291.744C57.2905 291.849 56.0088 291.664 54.9752 291.19C53.9192 290.725 53.1959 289.988 52.8051 288.982L52.7139 288.747L54.2913 288.134L54.3825 288.369C54.8166 289.488 55.8309 290.111 57.4251 290.239C59.0194 290.367 60.9688 289.984 63.2733 289.089C65.3988 288.264 66.9615 287.349 67.9613 286.343C68.9611 285.337 69.2743 284.353 68.9009 283.391L68.7836 283.089C68.4623 282.261 67.8233 281.775 66.8666 281.632C65.9185 281.511 64.5191 281.719 62.6684 282.257L59.1279 283.284C56.4147 284.054 54.346 284.329 52.9221 284.109C51.4758 283.898 50.5051 283.155 50.0101 281.88L49.8799 281.544C49.3155 280.09 49.6781 278.636 50.9677 277.183C52.2573 275.73 54.2893 274.465 57.0637 273.388Z" fill="#625C5A"/>
<path d="M21.2972 285.704L21.0481 284.213L22.93 283.899C24.1373 283.697 25.1553 283.819 25.984 284.265C26.793 284.738 27.3299 285.475 27.5946 286.477C29.2231 283.699 32.0376 281.976 36.0382 281.308C38.5238 280.892 40.4709 280.969 41.8797 281.536C43.2885 282.104 44.1214 283.157 44.3784 284.696C44.6117 286.092 44.261 287.27 43.3263 288.229C42.3955 289.212 40.8491 290.006 38.6871 290.61L28.7394 293.33L28.8105 293.757C29.115 295.579 29.9875 296.869 31.4279 297.626C32.8683 298.383 34.7958 298.56 37.2103 298.157C38.6543 297.916 39.9088 297.487 40.9739 296.871C42.0193 296.283 42.7983 295.557 43.3109 294.692C43.8038 293.856 43.9711 292.964 43.813 292.017L43.7714 291.768L45.4048 291.496L45.4463 291.744C45.6559 292.999 45.465 294.186 44.8735 295.307C44.2585 296.432 43.3099 297.381 42.0279 298.155C40.7458 298.929 39.2171 299.464 37.4417 299.761C34.5774 300.239 32.2455 299.972 30.4459 298.958C28.6503 297.969 27.5607 296.326 27.1772 294.029L26.0858 287.496C25.9513 286.691 25.6098 286.103 25.0613 285.733C24.493 285.39 23.7591 285.293 22.8595 285.443L21.2972 285.704ZM36.3228 282.793C34.2634 283.137 32.4999 283.797 31.0325 284.772C29.5415 285.751 28.5003 286.947 27.909 288.359L28.508 291.946L38.1362 289.279C39.88 288.793 41.1207 288.209 41.8582 287.526C42.5958 286.843 42.8796 285.992 42.7096 284.975C42.3576 282.868 40.2287 282.141 36.3228 282.793Z" fill="#625C5A"/>
<path d="M11.3378 285.133C12.9204 285.066 14.0976 285.353 14.8694 285.992C15.6423 286.656 16.0593 287.707 16.1204 289.146L17.005 309.971L15.3505 310.042L14.4766 289.468C14.4318 288.413 14.1599 287.668 13.661 287.233C13.1381 286.799 12.3011 286.606 11.1502 286.655L9.63955 286.719L9.57538 285.208L11.3378 285.133Z" fill="#625C5A"/>
<path d="M-15.3521 292.273L2.85057 294.671C3.13585 292.506 2.61205 290.694 1.27916 289.235C-0.0775288 287.774 -2.04077 286.873 -4.61056 286.535C-6.15719 286.331 -7.56548 286.363 -8.83542 286.632C-10.1054 286.9 -11.1236 287.371 -11.8902 288.045C-12.6805 288.715 -13.1534 289.549 -13.3089 290.545L-15.0935 290.31C-14.8703 288.984 -14.2765 287.876 -13.3121 286.986C-12.3476 286.096 -11.0917 285.475 -9.54432 285.122C-8.02075 284.766 -6.3072 284.714 -4.40365 284.964C-2.35733 285.234 -0.619781 285.826 0.809008 286.741C2.2378 287.655 3.28238 288.821 3.94276 290.24C4.6 291.682 4.8142 293.272 4.58534 295.009L4.47719 295.83C4.2452 297.59 3.62659 299.07 2.62136 300.269C1.613 301.492 0.300375 302.36 -1.31651 302.873C-2.9334 303.386 -4.76501 303.508 -6.81132 303.238C-8.78625 302.978 -10.4643 302.394 -11.8455 301.486C-13.2537 300.598 -14.2641 299.448 -14.8769 298.036C-15.5135 296.621 -15.7173 295.045 -15.4885 293.308L-15.3521 292.273ZM-6.60441 301.668C-4.106 301.997 -2.02733 301.654 -0.368405 300.638C1.28739 299.646 2.29768 298.133 2.66247 296.099L-13.7913 293.931C-14.0134 295.984 -13.477 297.7 -12.1823 299.081C-10.8907 300.486 -9.03144 301.348 -6.60441 301.668Z" fill="#625C5A"/>
<path d="M6.16145 34.4109C4.17797 34.2268 2.45343 33.8498 0.987826 33.2799C-0.451664 32.6883 -1.53996 31.9486 -2.27705 31.0607C-3.01415 30.1728 -3.33168 29.1792 -3.22965 28.0799L-3.20636 27.829L-1.5216 27.9853L-1.54489 28.2363C-1.65801 29.455 -1.01786 30.4786 0.375548 31.3069C1.77118 32.1113 3.75945 32.6333 6.34035 32.8728C8.80178 33.1013 10.7532 32.9811 12.1947 32.5123C13.6384 32.0197 14.4102 31.2356 14.51 30.1602L14.54 29.8376C14.6242 28.9295 14.2095 28.2041 13.2958 27.6613C12.3842 27.0947 10.7925 26.5854 8.52052 26.1335L4.93335 25.439C2.51579 24.9977 0.765635 24.3773 -0.317113 23.5778C-1.37374 22.7566 -1.84217 21.7008 -1.7224 20.4104L-1.68913 20.0519C-1.54939 18.5464 -0.639044 17.4378 1.04192 16.7261C2.74679 16.0166 5.00916 15.7927 7.82904 16.0544C9.74082 16.2319 11.3926 16.6142 12.7843 17.2013C14.1999 17.7906 15.2642 18.5282 15.9774 19.4139C16.7145 20.3018 17.0332 21.2834 16.9334 22.3588L16.9101 22.6097L15.2253 22.4534L15.2486 22.2024C15.3595 21.0076 14.7302 19.9971 13.3607 19.171C11.9912 18.3449 10.0757 17.8176 7.61429 17.5892C5.34404 17.3784 3.53708 17.5 2.19339 17.9537C0.849707 18.4075 0.130176 19.1482 0.0348015 20.1758L0.00485819 20.4984C-0.0772086 21.3826 0.27778 22.1025 1.06982 22.658C1.86409 23.1897 3.20935 23.6279 5.10561 23.9726L8.73195 24.6346C11.5035 25.157 13.4774 25.8343 14.6535 26.6666C15.8535 27.501 16.3903 28.5993 16.2639 29.9615L16.2306 30.3199C16.0864 31.8733 15.113 33.0122 13.3103 33.7367C11.5077 34.4612 9.12471 34.6859 6.16145 34.4109Z" fill="#625C5A"/>
<path d="M40.2932 39.781C38.4362 39.0602 36.881 38.225 35.6278 37.2752C34.4056 36.3117 33.5617 35.302 33.0963 34.246C32.6308 33.19 32.5978 32.1475 32.9972 31.1183L33.0884 30.8833L34.6658 31.4955L34.5746 31.7305C34.1317 32.8715 34.4668 34.0313 35.5798 35.2099C36.7015 36.3661 38.4705 37.4131 40.8869 38.3509C43.1914 39.2453 45.101 39.6647 46.6158 39.609C48.1393 39.5309 49.0964 38.9884 49.4872 37.9816L49.6044 37.6796C49.9344 36.8293 49.7344 36.018 49.0044 35.2456C48.2831 34.4507 46.8919 33.5246 44.8309 32.4673L41.5715 30.8161C39.3675 29.729 37.8544 28.6526 37.0323 27.587C36.2412 26.5076 36.0802 25.3638 36.5491 24.1556L36.6793 23.82C37.2264 22.4105 38.4058 21.5939 40.2174 21.3702C42.0515 21.1552 44.2886 21.5601 46.9287 22.5847C48.7186 23.2794 50.2023 24.0998 51.3797 25.046C52.5796 26.0008 53.401 27.0018 53.8441 28.0491C54.3096 29.105 54.3469 30.1364 53.9562 31.1433L53.865 31.3782L52.2876 30.766L52.3788 30.5311C52.813 29.4124 52.4848 28.2681 51.3942 27.0982C50.3036 25.9284 48.606 24.8962 46.3015 24.0018C44.1759 23.1769 42.4049 22.7984 40.9883 22.8665C39.5717 22.9345 38.6767 23.4496 38.3033 24.4117L38.186 24.7137C37.8648 25.5416 38.0088 26.3312 38.6182 27.0826C39.2363 27.8116 40.4099 28.6018 42.1391 29.4531L45.4451 31.0838C47.9673 32.3459 49.6799 33.5383 50.5828 34.6611C51.5081 35.7925 51.7233 36.9959 51.2284 38.2712L51.0981 38.6068C50.5337 40.0611 49.2853 40.8896 47.3531 41.0922C45.4209 41.2948 43.0676 40.8578 40.2932 39.781Z" fill="#625C5A"/>
<path d="M75.2837 54.8143L74.4627 56.084L72.8605 55.0479C71.8326 54.3833 71.1627 53.6071 70.8507 52.7195C70.5719 51.8247 70.6724 50.9179 71.1521 49.9992C68.0766 50.9543 64.8359 50.3306 61.4299 48.1282C59.3138 46.7599 57.9266 45.3913 57.2683 44.0225C56.6101 42.6537 56.7045 41.3143 57.5516 40.0044C58.3204 38.8153 59.3734 38.1814 60.7103 38.1028C62.0603 38.004 63.7376 38.4598 65.7422 39.4702L74.9248 44.1647L75.1594 43.8019C76.1629 42.2501 76.3876 40.7092 75.8336 39.1791C75.2796 37.6491 73.9748 36.2195 71.9191 34.8902C70.6897 34.0953 69.4741 33.5664 68.2721 33.3037C67.1033 33.0338 66.0384 33.0454 65.0772 33.3384C64.1492 33.6244 63.4246 34.1704 62.9033 34.9766L62.7665 35.1882L61.3759 34.289L61.5127 34.0774C62.2034 33.0092 63.1449 32.2604 64.3371 31.831C65.5495 31.4146 66.8901 31.3525 68.3587 31.6448C69.8274 31.9372 71.3174 32.572 72.829 33.5494C75.2676 35.1263 76.8102 36.8954 77.4567 38.8568C78.1163 40.7981 77.8141 42.7462 76.55 44.7011L72.9532 50.2635C72.5101 50.9488 72.3663 51.6131 72.5218 52.2567C72.7104 52.8931 73.1877 53.459 73.9535 53.9542L75.2837 54.8143ZM62.2207 46.839C63.9741 47.9728 65.7214 48.6739 67.4626 48.9424C69.224 49.224 70.7992 49.0422 72.1881 48.397L74.1625 45.3437L65.252 40.8252C63.6362 40.009 62.3257 39.6046 61.3206 39.6121C60.3155 39.6195 59.5328 40.0565 58.9724 40.9231C57.8126 42.7168 58.8953 44.6887 62.2207 46.839Z" fill="#625C5A"/>
<path d="M82.0814 61.7354C80.8643 60.7216 80.185 59.7184 80.0434 58.7259C79.9172 57.715 80.3149 56.6563 81.2365 55.5498L94.5769 39.534L95.8493 40.5939L82.6702 56.4161C81.9943 57.2275 81.6949 57.962 81.7719 58.6195C81.8673 59.2925 82.3576 59.9976 83.2427 60.7349L84.4045 61.7026L83.4368 62.8643L82.0814 61.7354Z" fill="#625C5A"/>
<path d="M106.398 74.0157L94.4939 60.0377C92.8312 61.4537 92.0058 63.1496 92.0177 65.1255C92.0451 67.1196 92.8991 69.1033 94.5797 71.0767C95.5911 72.2644 96.6581 73.1841 97.7806 73.8359C98.9031 74.4877 99.9745 74.8204 100.995 74.8341C102.031 74.866 102.94 74.5644 103.723 73.9291L104.89 75.2995C103.836 76.1343 102.653 76.5588 101.341 76.5728C100.029 76.5868 98.6802 76.2064 97.2952 75.4314C95.9258 74.6747 94.6186 73.5655 93.3737 72.1037C92.0355 70.5323 91.1426 68.9285 90.6948 67.2923C90.2471 65.6561 90.2534 64.0903 90.7138 62.5949C91.1924 61.084 92.0986 59.7606 93.4325 58.6246L94.0628 58.0878C95.415 56.9363 96.8658 56.2524 98.4154 56.0361C99.9833 55.8042 101.539 56.0396 103.083 56.7421C104.627 57.4447 106.068 58.5817 107.407 60.1531C108.698 61.6697 109.552 63.2278 109.969 64.8275C110.419 66.4299 110.399 67.9605 109.907 69.4193C109.431 70.8964 108.527 72.2029 107.193 73.3388L106.398 74.0157ZM106.201 61.1801C104.567 59.2616 102.794 58.1235 100.882 57.766C98.9877 57.3929 97.2239 57.8389 95.5903 59.104L106.35 71.7391C107.891 70.3643 108.643 68.7306 108.607 66.838C108.59 64.9298 107.788 63.0439 106.201 61.1801Z" fill="#625C5A"/>
<path d="M108.408 90.6293C107.433 88.8922 106.764 87.2587 106.401 85.7287C106.07 84.208 106.061 82.8921 106.373 81.7811C106.685 80.6702 107.323 79.8445 108.285 79.3041L108.505 79.1808L109.333 80.6562L109.114 80.7796C108.046 81.3787 107.567 82.4869 107.677 84.1042C107.808 85.7098 108.507 87.6427 109.776 89.903C110.986 92.0586 112.193 93.5965 113.398 94.5167C114.623 95.4251 115.707 95.615 116.649 95.0864L116.931 94.9278C117.726 94.4814 118.088 93.7281 118.016 92.6677C117.964 91.5956 117.479 89.9963 116.561 87.8697L115.095 84.5228C114.085 82.2824 113.602 80.4895 113.645 79.1443C113.721 77.8082 114.324 76.823 115.454 76.1887L115.768 76.0125C117.086 75.2724 118.516 75.392 120.056 76.3713C121.609 77.3716 123.078 79.1065 124.464 81.5761C125.404 83.2503 126.027 84.8269 126.334 86.3059C126.653 87.8057 126.651 89.1006 126.327 90.1907C126.015 91.3017 125.388 92.1214 124.446 92.6501L124.226 92.7734L123.398 91.298L123.618 91.1746C124.664 90.5872 125.138 89.4954 125.041 87.899C124.943 86.3026 124.289 84.4266 123.079 82.271C121.963 80.2828 120.836 78.8645 119.7 78.0163C118.563 77.1681 117.545 76.9966 116.645 77.5017L116.362 77.6603C115.588 78.0949 115.197 78.796 115.19 79.7634C115.203 80.7191 115.607 82.0752 116.4 83.8317L117.915 87.1924C119.059 89.7703 119.623 91.7795 119.606 93.2202C119.6 94.6819 119.001 95.7475 117.808 96.4171L117.494 96.5933C116.134 97.3568 114.644 97.2025 113.024 96.1303C111.403 95.0581 109.865 93.2244 108.408 90.6293Z" fill="#625C5A"/>
<path d="M123.324 121.748C122.862 119.81 122.665 118.056 122.735 116.485C122.833 114.932 123.184 113.664 123.788 112.68C124.393 111.697 125.232 111.078 126.306 110.821L126.551 110.763L126.943 112.409L126.698 112.467C125.508 112.751 124.744 113.686 124.407 115.272C124.093 116.852 124.237 118.902 124.838 121.424C125.412 123.828 126.152 125.638 127.059 126.852C127.989 128.062 128.979 128.541 130.03 128.29L130.345 128.215C131.232 128.003 131.786 127.378 132.007 126.338C132.251 125.293 132.222 123.622 131.921 121.325L131.427 117.705C131.069 115.273 131.095 113.417 131.504 112.135C131.943 110.87 132.792 110.088 134.053 109.787L134.403 109.703C135.874 109.352 137.216 109.859 138.43 111.222C139.649 112.609 140.587 114.68 141.245 117.435C141.69 119.302 141.858 120.989 141.749 122.496C141.645 124.026 141.288 125.27 140.679 126.23C140.074 127.213 139.247 127.83 138.196 128.081L137.951 128.139L137.558 126.494L137.804 126.435C138.971 126.157 139.726 125.236 140.069 123.674C140.411 122.112 140.296 120.128 139.722 117.724C139.193 115.506 138.498 113.834 137.637 112.707C136.776 111.58 135.843 111.136 134.839 111.376L134.524 111.451C133.66 111.657 133.093 112.224 132.821 113.153C132.572 114.076 132.589 115.491 132.871 117.397L133.408 121.044C133.803 123.837 133.795 125.923 133.385 127.304C132.98 128.709 132.112 129.57 130.781 129.887L130.431 129.971C128.914 130.333 127.522 129.777 126.258 128.302C124.993 126.827 124.015 124.643 123.324 121.748Z" fill="#625C5A"/>
<path d="M130.817 159.134L129.305 159.18L129.246 157.273C129.209 156.05 129.466 155.057 130.019 154.296C130.596 153.558 131.399 153.125 132.428 152.997C129.893 151.01 128.564 147.99 128.438 143.936C128.361 141.417 128.697 139.498 129.449 138.178C130.201 136.858 131.356 136.174 132.915 136.126C134.331 136.082 135.451 136.588 136.276 137.643C137.125 138.697 137.704 140.336 138.012 142.56L139.373 152.782L139.804 152.769C141.652 152.712 143.047 152.021 143.99 150.695C144.934 149.369 145.368 147.483 145.292 145.036C145.247 143.573 144.991 142.272 144.523 141.134C144.081 140.019 143.466 139.15 142.678 138.526C141.915 137.925 141.054 137.639 140.094 137.669L139.843 137.677L139.791 136.021L140.043 136.014C141.315 135.974 142.466 136.323 143.497 137.06C144.529 137.82 145.343 138.887 145.937 140.262C146.532 141.636 146.857 143.223 146.913 145.022C147.002 147.925 146.424 150.199 145.179 151.847C143.957 153.493 142.182 154.352 139.856 154.424L133.235 154.629C132.419 154.654 131.791 154.913 131.35 155.407C130.934 155.924 130.74 156.639 130.768 157.55L130.817 159.134ZM129.948 143.853C130.013 145.94 130.43 147.776 131.199 149.361C131.969 150.97 133.014 152.162 134.335 152.938L137.969 152.826L136.619 142.927C136.372 141.133 135.959 139.826 135.381 139.003C134.804 138.18 133.999 137.785 132.968 137.817C130.833 137.883 129.826 139.895 129.948 143.853Z" fill="#625C5A"/>
</svg>
