<svg width="325" height="91" viewBox="0 0 325 91" fill="none" xmlns="http://www.w3.org/2000/svg">
<path d="M100.756 66.1367C96.9066 66.1367 93.984 64.9758 91.9881 62.6542C89.9921 60.3325 88.9941 56.93 88.9941 52.4468V51.8463H94.2691V52.4468C94.2691 54.3682 94.8394 55.8292 95.9799 56.83C97.1205 57.8307 98.7838 58.331 100.97 58.331C102.918 58.331 104.391 57.9908 105.389 57.3103C106.411 56.5898 106.922 55.549 106.922 54.188V53.7677C106.922 52.687 106.637 51.8664 106.067 51.306C105.496 50.7055 104.486 50.2252 103.037 49.8649L97.0848 48.4239C91.9524 47.1429 89.3862 43.5804 89.3862 37.7361V37.1357C89.3862 33.413 90.3485 30.5109 92.2732 28.4294C94.2216 26.3479 96.9423 25.3071 100.435 25.3071C104.142 25.3071 106.969 26.4279 108.918 28.6696C110.866 30.9112 111.841 34.1535 111.841 38.3966V38.937H106.566V38.3966C106.566 34.8741 104.522 33.1128 100.435 33.1128C98.6055 33.1128 97.2036 33.433 96.2294 34.0735C95.279 34.7139 94.8038 35.6546 94.8038 36.8955V37.3759C94.8038 38.2965 95.0651 39.0171 95.5879 39.5374C96.1344 40.0578 97.0611 40.4781 98.3679 40.7983L104.356 42.2394C107.088 42.9199 109.096 44.1608 110.379 45.9621C111.686 47.7234 112.34 50.1851 112.34 53.3474V53.9479C112.34 57.7906 111.33 60.7928 109.31 62.9544C107.29 65.0759 104.439 66.1367 100.756 66.1367Z" fill="#932B22"/>
<path d="M141.866 64.0352V65.4162H136.52L134.381 57.2503H122.691L120.552 65.4162H115.206V64.0352L125.578 26.0277H131.494L141.866 64.0352ZM132.35 49.4446L128.536 34.794L124.722 49.4446H132.35Z" fill="#932B22"/>
<path d="M152.15 26.0277V57.3103H168.01V65.4162H146.803V26.0277H152.15Z" fill="#932B22"/>
<path d="M193.834 26.0277V33.9534H178.401V41.759H193.121V49.6247H178.401V57.4904H193.834V65.4162H173.054V26.0277H193.834Z" fill="#932B22"/>
<path d="M211.642 66.1367C207.793 66.1367 204.87 64.9758 202.874 62.6542C200.878 60.3325 199.881 56.93 199.881 52.4468V51.8463H205.156V52.4468C205.156 54.3682 205.726 55.8292 206.866 56.83C208.007 57.8307 209.67 58.331 211.856 58.331C213.805 58.331 215.278 57.9908 216.276 57.3103C217.297 56.5898 217.808 55.549 217.808 54.188V53.7677C217.808 52.687 217.523 51.8664 216.953 51.306C216.383 50.7055 215.373 50.2252 213.923 49.8649L207.971 48.4239C202.839 47.1429 200.273 43.5804 200.273 37.7361V37.1357C200.273 33.413 201.235 30.5109 203.16 28.4294C205.108 26.3479 207.829 25.3071 211.322 25.3071C215.028 25.3071 217.856 26.4279 219.804 28.6696C221.753 30.9112 222.727 34.1535 222.727 38.3966V38.937H217.452V38.3966C217.452 34.8741 215.408 33.1128 211.322 33.1128C209.492 33.1128 208.09 33.433 207.116 34.0735C206.165 34.7139 205.69 35.6546 205.69 36.8955V37.3759C205.69 38.2965 205.951 39.0171 206.474 39.5374C207.021 40.0578 207.947 40.4781 209.254 40.7983L215.242 42.2394C217.975 42.9199 219.982 44.1608 221.266 45.9621C222.572 47.7234 223.226 50.1851 223.226 53.3474V53.9479C223.226 57.7906 222.216 60.7928 220.196 62.9544C218.177 65.0759 215.325 66.1367 211.642 66.1367Z" fill="#932B22"/>
<path d="M236.074 26.0277L235.789 52.687H230.977L230.657 26.0277H236.074ZM233.365 66.1367C232.463 66.1367 231.714 65.6764 231.12 64.7557C230.55 63.795 230.265 62.5741 230.265 61.093C230.265 59.612 230.55 58.4111 231.12 57.4904C231.714 56.5297 232.463 56.0494 233.365 56.0494C234.268 56.0494 235.005 56.5297 235.575 57.4904C236.169 58.4111 236.466 59.612 236.466 61.093C236.466 62.5741 236.169 63.795 235.575 64.7557C235.005 65.6764 234.268 66.1367 233.365 66.1367Z" fill="#932B22"/>
<path d="M323.973 0.944824H1.01172V90.4992H323.973V0.944824Z" stroke="#FFFFE3"/>
<path d="M307.168 5.60303H17.8164V85.8382H307.168V5.60303Z" stroke="#FFFFE3"/>
<path d="M292.615 9.64209H32.3848V81.8007H292.615V9.64209Z" stroke="#FFFFE3"/>
<path d="M280.295 13.0605H44.7109V78.385H280.295V13.0605Z" stroke="#FFFFE3"/>
<path d="M270.222 15.8564H54.8008V75.5894H270.222V15.8564Z" stroke="#FFFFE3"/>
<path d="M262.382 18.0303H62.6445V73.4142H262.382V18.0303Z" stroke="#FFFFE3"/>
<path d="M256.777 19.5825H68.2422V71.86H256.777V19.5825Z" stroke="#FFFFE3"/>
<path d="M253.414 20.5151H71.6016V70.9288H253.414V20.5151Z" stroke="#FFFFE3"/>
<path d="M252.297 20.8257H72.7246V70.618H252.297V20.8257Z" stroke="#FFFFE3"/>
<path d="M72.707 70.6172L1.00569 90.4991" stroke="#FFFFE3"/>
<path d="M252.268 70.6172L323.969 90.4991" stroke="#FFFFE3"/>
<path d="M72.7129 20.8254L1.01163 0.946432" stroke="#FFFFE3"/>
<path d="M72.7129 70.6174L1.01161 90.4964" stroke="#FFFFE3"/>
<path d="M252.268 20.8257L323.969 0.944079" stroke="#FFFFE3"/>
<path d="M72.7012 20.8257L1.00005 0.943594" stroke="#FFFFE3"/>
<path d="M252.299 70.6182L324 90.5" stroke="#FFFFE3"/>
<path d="M252.299 20.8262L324 0.944178" stroke="#FFFFE3"/>
</svg>
