<svg width="181" height="181" viewBox="0 0 181 181" fill="none" xmlns="http://www.w3.org/2000/svg">
<rect x="0.351562" y="0.225342" width="180" height="180" rx="35" fill="#F2F2F2"/>
<path d="M14.3685 72.9408C15.3108 72.3087 40.0659 41.0329 42.4179 37.5265C44.7699 34.0201 52.784 26.3938 56.4426 24.553L70.9899 18.3292L74.3001 16.2253C75.9589 17.8945 82.2379 18.615 88.8579 18.5438C95.3098 18.4744 102.086 17.6531 105.224 16.2253L108.534 18.2415C114.051 20.4038 124.868 25.4601 125.678 25.8678C127.943 27.0074 134.058 32.5299 137.019 37.0006C138.065 38.8414 163.414 69.4344 165.33 73.2914C166.07 74.7816 147.56 89.9467 138.152 95.2939L127.089 79.6029L129.876 160.425C113.412 164.72 71.0771 166.21 50.3449 160.425L52.5227 80.1288C46.6863 88.1058 45.7133 89.6566 41.721 94.8556C40.2401 96.7841 13.5845 73.4667 14.3685 72.9408Z" fill="#060606"/>
<path d="M71.1367 58.4574L70.7363 57.5533L70.3478 58.4574H71.1367ZM71.5223 59.3257L71.3414 58.9139H70.149L69.9711 59.3257H69.3571L70.3359 57.1057H71.1545L72.1778 59.3257H71.5223Z" fill="white"/>
<path d="M75.1636 59.3257L73.8468 57.8875V59.3257H73.2506V57.1057H73.8794L75.1696 58.535V57.1057H75.7628V59.3257H75.1636Z" fill="white"/>
<path d="M76.2647 57.1057H78.2846V57.5891H76.8668V57.9501H78.2401V58.4514H76.8668V58.8363H78.3024V59.3257H76.2647V57.1057Z" fill="white"/>
<path d="M79.9946 59.3257H79.2858L78.5265 57.1057H79.1819L79.6684 58.7021L80.1311 57.1057H80.8429L81.3085 58.708L81.792 57.1057H82.3941L81.6615 59.3257H80.9319L80.4632 57.7711L79.9946 59.3257Z" fill="white"/>
<path d="M84.7161 59.3585H84.6687C83.6959 59.3585 83.3904 58.7468 83.3904 58.2485V58.168C83.3904 57.6965 83.6751 57.0759 84.6805 57.0759H84.7814C85.7424 57.0759 86.0479 57.4966 86.0479 57.8636V57.8696H85.4161C85.3924 57.8129 85.3064 57.5771 84.7339 57.5771C84.1912 57.5771 84.0251 57.8845 84.0251 58.1829V58.2217C84.0251 58.5111 84.209 58.8572 84.7547 58.8572C85.2767 58.8572 85.3924 58.5767 85.4013 58.5111H84.8021V58.1142H86.0745V59.3257H85.5881C85.5792 59.2451 85.5466 59.09 85.514 59.0184C85.4665 59.081 85.2352 59.3585 84.7161 59.3585Z" fill="white"/>
<path d="M86.54 57.1057H88.5599V57.5891H87.1421V57.9501H88.5154V58.4514H87.1421V58.8363H88.5777V59.3257H86.54V57.1057Z" fill="white"/>
<path d="M90.9343 59.3257L89.6174 57.8875V59.3257H89.0212V57.1057H89.65L90.9402 58.535V57.1057H91.5334V59.3257H90.9343Z" fill="white"/>
<path d="M92.0354 57.1057H94.0552V57.5891H92.6375V57.9501H94.0107V58.4514H92.6375V58.8363H94.073V59.3257H92.0354V57.1057Z" fill="white"/>
<path d="M95.1276 57.5951V58.0665H95.9788C96.228 58.0665 96.2962 57.9591 96.2962 57.8308V57.8248C96.2962 57.6965 96.228 57.5951 95.9788 57.5951H95.1276ZM96.4712 58.2575C96.7707 58.3261 96.9517 58.5081 96.9517 58.8334V59.0631C96.9517 59.2302 96.9665 59.275 96.9872 59.3108V59.3257H96.3555C96.3466 59.3108 96.3347 59.269 96.3347 59.1705V58.9885C96.3347 58.7021 96.2309 58.5708 95.9225 58.5708H95.1276V59.3257H94.5166V57.1057H96.0025C96.8419 57.1057 96.9368 57.4578 96.9368 57.6995V57.7293C96.9368 58.0068 96.747 58.1948 96.4712 58.2575Z" fill="white"/>
<path d="M98.9224 58.4574L98.522 57.5533L98.1334 58.4574H98.9224ZM99.3079 59.3257L99.127 58.9139H97.9347L97.7567 59.3257H97.1428L98.1215 57.1057H98.9402L99.9634 59.3257H99.3079Z" fill="white"/>
<path d="M100.689 59.3257V57.613H99.835V57.1057H102.151V57.613H101.297V59.3257H100.689Z" fill="white"/>
<path d="M103.127 57.1057V59.3257H102.516V57.1057H103.127Z" fill="white"/>
<path d="M104.855 57.0699H104.986C106.018 57.0699 106.312 57.6786 106.312 58.165V58.2545C106.312 58.7319 106.018 59.3615 104.986 59.3615H104.855C103.823 59.3615 103.53 58.7319 103.53 58.2545V58.165C103.53 57.6816 103.823 57.0699 104.855 57.0699ZM105.677 58.2306V58.1888C105.677 57.9143 105.544 57.5771 104.921 57.5771C104.304 57.5771 104.164 57.9143 104.164 58.1888V58.2306C104.164 58.4992 104.313 58.8513 104.921 58.8513C105.541 58.8513 105.677 58.4992 105.677 58.2306Z" fill="white"/>
<path d="M108.627 59.3257L107.31 57.8875V59.3257H106.714V57.1057H107.343L108.633 58.535V57.1057H109.226V59.3257H108.627Z" fill="white"/>
<path d="M65.719 60.4516H65.8495C66.8816 60.4516 67.1753 61.0603 67.1753 61.5467V61.6362C67.1753 62.1136 66.8816 62.7432 65.8495 62.7432H65.719C64.6868 62.7432 64.3932 62.1136 64.3932 61.6362V61.5467C64.3932 61.0633 64.6868 60.4516 65.719 60.4516ZM66.5405 61.6123V61.5706C66.5405 61.296 66.4071 60.9589 65.7842 60.9589C65.1673 60.9589 65.0279 61.296 65.0279 61.5706V61.6123C65.0279 61.8809 65.1762 62.233 65.7842 62.233C66.4041 62.233 66.5405 61.8809 66.5405 61.6123Z" fill="white"/>
<path d="M67.5776 60.4874H69.5885V60.9798H68.1856V61.3766H69.547V61.8839H68.1856V62.7074H67.5776V60.4874Z" fill="white"/>
<path d="M70.8311 62.7074V60.4874H71.4421V61.311H72.673V60.4874H73.284V62.7074H72.673V61.8152H71.4421V62.7074H70.8311Z" fill="white"/>
<path d="M75.3238 61.8391L74.9234 60.935L74.5349 61.8391H75.3238ZM75.7094 62.7074L75.5284 62.2956H74.3361L74.1582 62.7074H73.5442L74.523 60.4874H75.3416L76.3648 62.7074H75.7094Z" fill="white"/>
<path d="M77.849 62.7402H77.7125C76.7041 62.7402 76.4372 62.0898 76.4372 61.6362V61.5467C76.4372 61.0842 76.7041 60.4546 77.7125 60.4546H77.849C78.7743 60.4546 79.0828 60.9111 79.0828 61.3319V61.3378H78.454C78.4451 61.2752 78.3621 60.9619 77.7807 60.9619C77.2409 60.9619 77.0719 61.2662 77.0719 61.5646V61.6064C77.0719 61.8809 77.2469 62.23 77.7837 62.23C78.371 62.23 78.4451 61.9107 78.454 61.8391H79.0828V61.8481C79.0828 62.2539 78.7862 62.7402 77.849 62.7402Z" fill="white"/>
<path d="M80.0878 62.7074H79.4768V60.4874H80.0878V61.4005L81.1199 60.4874H81.897L80.7343 61.5049L81.9474 62.7074H81.1496L80.0878 61.6631V62.7074Z" fill="white"/>
<path d="M83.7088 61.8391L83.3084 60.935L82.9198 61.8391H83.7088ZM84.0943 62.7074L83.9134 62.2956H82.7211L82.5431 62.7074H81.9292L82.908 60.4874H83.7266L84.7498 62.7074H84.0943Z" fill="white"/>
<path d="M85.4756 62.7074V60.9947H84.6214V60.4874H86.9378V60.9947H86.0836V62.7074H85.4756Z" fill="white"/>
<path d="M87.3027 62.7074V60.4874H87.9137V61.311H89.1446V60.4874H89.7556V62.7074H89.1446V61.8152H87.9137V62.7074H87.3027Z" fill="white"/>
<path d="M91.484 60.4516H91.6145C92.6466 60.4516 92.9402 61.0603 92.9402 61.5467V61.6362C92.9402 62.1136 92.6466 62.7432 91.6145 62.7432H91.484C90.4518 62.7432 90.1582 62.1136 90.1582 61.6362V61.5467C90.1582 61.0633 90.4518 60.4516 91.484 60.4516ZM92.3055 61.6123V61.5706C92.3055 61.296 92.1721 60.9589 91.5492 60.9589C90.9323 60.9589 90.7929 61.296 90.7929 61.5706V61.6123C90.7929 61.8809 90.9412 62.233 91.5492 62.233C92.1691 62.233 92.3055 61.8809 92.3055 61.6123Z" fill="white"/>
<path d="M95.2557 62.7074L93.9388 61.2692V62.7074H93.3426V60.4874H93.9714L95.2616 61.9167V60.4874H95.8548V62.7074H95.2557Z" fill="white"/>
<path d="M98.6645 61.9973H97.7806V62.7074H97.1696V60.4874H98.6645C99.3615 60.4874 99.578 60.7948 99.578 61.2244V61.2573C99.578 61.678 99.3526 61.9973 98.6645 61.9973ZM97.7806 60.9827V61.5019H98.62C98.8454 61.5019 98.9433 61.4064 98.9433 61.2483V61.2364C98.9433 61.0812 98.8454 60.9827 98.62 60.9827H97.7806Z" fill="white"/>
<path d="M99.9608 60.4874H100.572V62.1852H101.921V62.7074H99.9608V60.4874Z" fill="white"/>
<path d="M103.848 61.8391L103.448 60.935L103.059 61.8391H103.848ZM104.234 62.7074L104.053 62.2956H102.86L102.682 62.7074H102.068L103.047 60.4874H103.866L104.889 62.7074H104.234Z" fill="white"/>
<path d="M105.713 62.7074V61.8958L104.618 60.4874H105.375L106.036 61.3677L106.697 60.4874H107.38L106.324 61.8988V62.7074H105.713Z" fill="white"/>
<path d="M107.601 60.4874H109.621V60.9708H108.203V61.3319H109.577V61.8331H108.203V62.2181H109.639V62.7074H107.601V60.4874Z" fill="white"/>
<path d="M110.694 60.9768V61.4482H111.545C111.794 61.4482 111.862 61.3408 111.862 61.2125V61.2065C111.862 61.0782 111.794 60.9768 111.545 60.9768H110.694ZM112.037 61.6392C112.337 61.7078 112.518 61.8898 112.518 62.2151V62.4448C112.518 62.6119 112.532 62.6567 112.553 62.6925V62.7074H111.921C111.913 62.6925 111.901 62.6507 111.901 62.5523V62.3702C111.901 62.0838 111.797 61.9525 111.488 61.9525H110.694V62.7074H110.083V60.4874H111.568C112.408 60.4874 112.503 60.8395 112.503 61.0812V61.111C112.503 61.3885 112.313 61.5765 112.037 61.6392Z" fill="white"/>
<path d="M114.1 62.7462H114.014C112.979 62.7462 112.86 62.2748 112.86 62.0092V61.9764H113.524C113.533 62.0748 113.575 62.2956 114.043 62.2956H114.064C114.524 62.2956 114.583 62.1584 114.583 62.0301C114.583 61.8958 114.497 61.8152 114.132 61.8003L113.839 61.7914C113.115 61.7675 112.884 61.4781 112.884 61.1439V61.117C112.884 60.7709 113.068 60.4606 113.981 60.4606H114.082C115.058 60.4606 115.191 60.8186 115.191 61.111V61.1439H114.536C114.521 61.0454 114.468 60.8992 114.04 60.8992H114.011C113.619 60.8992 113.527 60.9738 113.527 61.0961C113.527 61.2095 113.607 61.2931 113.954 61.308L114.26 61.3199C115.046 61.3527 115.236 61.6094 115.236 61.9704V62.0062C115.236 62.3314 115.087 62.7462 114.1 62.7462Z" fill="white"/>
<path d="M82.0931 52.911H82.0549C81.5949 52.911 81.5421 52.7015 81.5421 52.5835V52.5689H81.8374C81.8414 52.6126 81.8598 52.7108 82.0681 52.7108H82.0773C82.2817 52.7108 82.308 52.6498 82.308 52.5928C82.308 52.5331 82.2698 52.4973 82.1077 52.4906L81.9771 52.4867C81.6555 52.4761 81.5527 52.3474 81.5527 52.1989V52.187C81.5527 52.0331 81.6344 51.8952 82.0404 51.8952H82.0852C82.5189 51.8952 82.5783 52.0543 82.5783 52.1843V52.1989H82.2869C82.2803 52.1551 82.2566 52.0901 82.0668 52.0901H82.0536C81.8796 52.0901 81.8387 52.1233 81.8387 52.1777C81.8387 52.2281 81.8743 52.2652 82.0286 52.2718L82.1643 52.2771C82.5137 52.2917 82.598 52.4058 82.598 52.5662V52.5821C82.598 52.7267 82.5321 52.911 82.0931 52.911Z" fill="white"/>
<path d="M82.781 52.8938V51.9071H83.0525V52.2732H83.5996V51.9071H83.8712V52.8938H83.5996V52.4973H83.0525V52.8938H82.781Z" fill="white"/>
<path d="M84.6393 51.8912H84.6973C85.1561 51.8912 85.2866 52.1618 85.2866 52.3779V52.4177C85.2866 52.6299 85.1561 52.9097 84.6973 52.9097H84.6393C84.1806 52.9097 84.0501 52.6299 84.0501 52.4177V52.3779C84.0501 52.1631 84.1806 51.8912 84.6393 51.8912ZM85.0045 52.4071V52.3885C85.0045 52.2665 84.9451 52.1167 84.6683 52.1167C84.3941 52.1167 84.3322 52.2665 84.3322 52.3885V52.4071C84.3322 52.5264 84.3981 52.6829 84.6683 52.6829C84.9438 52.6829 85.0045 52.5264 85.0045 52.4071Z" fill="white"/>
<path d="M85.7369 52.1246V52.3342H86.1153C86.226 52.3342 86.2563 52.2864 86.2563 52.2294V52.2267C86.2563 52.1697 86.226 52.1246 86.1153 52.1246H85.7369ZM86.3341 52.419C86.4672 52.4495 86.5476 52.5304 86.5476 52.675V52.7771C86.5476 52.8514 86.5542 52.8713 86.5635 52.8872V52.8938H86.2827C86.2787 52.8872 86.2735 52.8686 86.2735 52.8248V52.7439C86.2735 52.6166 86.2273 52.5583 86.0902 52.5583H85.7369V52.8938H85.4654V51.9071H86.1258C86.4989 51.9071 86.541 52.0636 86.541 52.171V52.1843C86.541 52.3076 86.4567 52.3912 86.3341 52.419Z" fill="white"/>
<path d="M87.0455 52.8938V52.1326H86.6659V51.9071H87.6954V52.1326H87.3157V52.8938H87.0455Z" fill="white"/>
<path d="M88.2188 52.8938V51.9071H88.4904V52.2732H89.0374V51.9071H89.309V52.8938H89.0374V52.4973H88.4904V52.8938H88.2188Z" fill="white"/>
<path d="M90.2156 52.5079L90.0376 52.1061L89.8649 52.5079H90.2156ZM90.3869 52.8938L90.3065 52.7108H89.7766L89.6975 52.8938H89.4246L89.8596 51.9071H90.2235L90.6783 52.8938H90.3869Z" fill="white"/>
<path d="M91.3379 52.9084H91.2772C90.829 52.9084 90.7104 52.6193 90.7104 52.4177V52.3779C90.7104 52.1724 90.829 51.8925 91.2772 51.8925H91.3379C91.7491 51.8925 91.8862 52.0954 91.8862 52.2824V52.2851H91.6068C91.6028 52.2572 91.5659 52.118 91.3075 52.118C91.0676 52.118 90.9925 52.2533 90.9925 52.3859V52.4044C90.9925 52.5264 91.0703 52.6816 91.3089 52.6816C91.5699 52.6816 91.6028 52.5397 91.6068 52.5079H91.8862V52.5119C91.8862 52.6922 91.7544 52.9084 91.3379 52.9084Z" fill="white"/>
<path d="M92.3329 52.8938H92.0613V51.9071H92.3329V52.3129L92.7916 51.9071H93.137L92.6203 52.3594L93.1594 52.8938H92.8048L92.3329 52.4296V52.8938Z" fill="white"/>
<path d="M94.5988 52.8938H93.5798V52.7506C93.5798 52.61 93.5983 52.48 93.9674 52.3633L94.1242 52.3156C94.2547 52.2771 94.289 52.2506 94.289 52.2015C94.289 52.1485 94.2547 52.1061 94.0926 52.1061C93.9001 52.1061 93.8843 52.2148 93.8803 52.2625H93.5969V52.2533C93.5969 52.1193 93.6628 51.8952 94.0583 51.8952H94.1176C94.4683 51.8952 94.5764 52.0318 94.5764 52.2002V52.2108C94.5764 52.3819 94.4814 52.4535 94.2086 52.5172C94.1559 52.5291 94.0978 52.5424 94.0517 52.5543C93.8579 52.6034 93.8237 52.6365 93.8237 52.6577H94.5988V52.8938Z" fill="white"/>
<path d="M95.2811 51.8912H95.3365C95.7966 51.8912 95.8849 52.2029 95.8849 52.3779V52.4177C95.8849 52.5901 95.7939 52.9097 95.3365 52.9097H95.2811C94.8224 52.9097 94.7328 52.5901 94.7328 52.4177V52.3779C94.7328 52.1989 94.8224 51.8912 95.2811 51.8912ZM95.6028 52.4058V52.3872C95.6028 52.2983 95.5659 52.1167 95.3088 52.1167C95.0491 52.1167 95.0149 52.2983 95.0149 52.3872V52.4058C95.0149 52.4959 95.057 52.6829 95.3101 52.6829C95.5632 52.6829 95.6028 52.4959 95.6028 52.4058Z" fill="white"/>
<path d="M97.0412 52.8938H96.0222V52.7506C96.0222 52.61 96.0406 52.48 96.4097 52.3633L96.5666 52.3156C96.6971 52.2771 96.7314 52.2506 96.7314 52.2015C96.7314 52.1485 96.6971 52.1061 96.535 52.1061C96.3425 52.1061 96.3267 52.2148 96.3227 52.2625H96.0393V52.2533C96.0393 52.1193 96.1052 51.8952 96.5007 51.8952H96.56C96.9106 51.8952 97.0187 52.0318 97.0187 52.2002V52.2108C97.0187 52.3819 96.9238 52.4535 96.651 52.5172C96.5982 52.5291 96.5402 52.5424 96.4941 52.5543C96.3003 52.6034 96.266 52.6365 96.266 52.6577H97.0412V52.8938Z" fill="white"/>
<path d="M97.1517 52.679V52.5052L97.6882 51.9005H98.0468V52.4668H98.2551V52.679H98.0468V52.8938H97.7779V52.679H97.1517ZM97.7779 52.4668V52.0862L97.4417 52.4668H97.7779Z" fill="white"/>
<path fill-rule="evenodd" clip-rule="evenodd" d="M103.345 76.6942V75.5146H102.175V74.335H99.8343V75.5146H101.005V76.6942H102.175V77.8738H103.345V79.0533H98.6632V75.5146H97.4928V79.0533H95.152V77.8738H93.9816V74.335H92.8105V79.0533H90.4697V73.1562H91.6401V74.335H92.8105V73.1562H93.9816V74.335H96.3224V75.5146H97.4928V74.335H99.8343V73.1562H97.4928V71.9766H91.6401V70.797H88.1282V71.9766H82.2756V73.1562H79.9348V74.335H82.2756V76.6942H83.4459V75.5146H84.617V74.335H85.7874V73.1562H86.9578V75.5146H88.1282V73.1562H89.2993V79.0533H86.9578V75.5146H85.7874V79.0533H82.2756V76.6942H81.1052V79.0533H77.5933V76.6942H76.4229V77.8738H75.2525V81.4118H76.4229V83.7709H77.5933V84.9505H78.7637V86.1294H81.1052V87.309H84.617V88.4885H95.152V87.309H98.6632V86.1294H97.4928V83.7709H96.3224V84.9505H95.152V86.1294H93.9816V81.4118H95.152V80.2322H97.4928V83.7709H98.6632V81.4118H99.8343V80.2322H103.345V82.5914H104.517V76.6942H103.345ZM86.9578 86.1294H84.617V84.9505H83.4459V86.1294H82.2756V84.9505H79.9348V83.7709H78.7637V82.5914H77.5933V80.2322H81.1052V83.7709H82.2756V84.9505H83.4459V82.5914H82.2756V80.2322H85.7874V84.9505H86.9578V86.1294ZM89.2993 86.1294H88.1282V83.7709H86.9578V80.2322H89.2993V86.1294ZM92.8105 84.9505H91.6401V86.1294H90.4697V80.2322H92.8105V84.9505ZM79.9348 74.335H78.7637V75.5146H79.9348V74.335ZM78.7637 75.5146H77.5933V76.6942H78.7637V75.5146ZM102.175 83.7709H103.345V82.5914H102.175V83.7709ZM101.005 84.9505H102.175V83.7709H101.005V84.9505ZM98.6632 86.1294H101.005V84.9505H98.6632V86.1294Z"/>
<path d="M84.0185 98.3662H84.4505V98.8008H84.0185V98.3662Z" fill="white"/>
<path d="M84.3965 99.6158H84.6665V99.8874H84.3965V99.6158Z" fill="white"/>
<path d="M84.4505 98.8008H84.8826V99.2355H84.4506L84.4505 98.8008Z" fill="white"/>
<path d="M84.8826 98.8008H85.3146V99.2355H84.8826V98.8008Z" fill="white"/>
<path d="M85.3146 98.8008H85.7466V99.2355H85.3146V98.8008Z" fill="white"/>
<path d="M85.7466 98.8008H86.1786V99.2355H85.7466V98.8008Z" fill="white"/>
<path d="M86.1786 98.8008H86.6106V99.2355H86.1786V98.8008Z" fill="white"/>
<path d="M86.6106 98.8008H87.0427V99.2355H86.6106V98.8008Z" fill="white"/>
<path d="M87.0427 98.8008H87.4747V99.2355H87.0427V98.8008Z" fill="white"/>
<path d="M87.4747 98.8008H87.9067V99.2355H87.4747V98.8008Z" fill="white"/>
<path d="M87.9067 98.8008H88.3387V99.2355H87.9067V98.8008Z" fill="white"/>
<path d="M88.3387 98.8008H88.7707V99.2355H88.3387V98.8008Z" fill="white"/>
<path d="M88.7707 98.8008H89.2027V99.2355H88.7707V98.8008Z" fill="white"/>
<path d="M89.2027 98.8008H89.6348V99.2355H89.2027V98.8008Z" fill="white"/>
<path d="M89.6348 98.8008H90.0668V99.2355H89.6348V98.8008Z" fill="white"/>
<path d="M90.0668 98.8008H90.4988V99.2355H90.0668V98.8008Z" fill="white"/>
<path d="M90.4988 98.8008H90.9308V99.2355H90.4988V98.8008Z" fill="white"/>
<path d="M90.9308 98.8008H91.3629V99.2355H90.9308V98.8008Z" fill="white"/>
<path d="M91.3629 98.8008H91.7949V99.2355H91.3629V98.8008Z" fill="white"/>
<path d="M91.7949 98.8008H92.2269V99.2355H91.7949V98.8008Z" fill="white"/>
<path d="M92.2269 98.8008H92.6589V99.2355H92.2269V98.8008Z" fill="white"/>
<path d="M92.6589 98.8008H93.0909V99.2355H92.6589V98.8008Z" fill="white"/>
<path d="M93.0909 98.8008H93.5229V99.2355H93.0909V98.8008Z" fill="white"/>
<path d="M93.5229 98.8008H93.955V99.2355H93.5229V98.8008Z" fill="white"/>
<path d="M93.955 98.8008H94.387V99.2355H93.955V98.8008Z" fill="white"/>
<path d="M94.387 98.8008H94.819V99.2355H94.387V98.8008Z" fill="white"/>
<path d="M94.819 98.8008H95.251V99.2355H94.819V98.8008Z" fill="white"/>
<path d="M84.3965 100.431H84.6665V100.702H84.3965V100.431Z" fill="white"/>
<path d="M84.3965 100.702H84.6665V100.974H84.3965V100.702Z" fill="white"/>
<path d="M86.5566 100.431H86.8266V100.702H86.5566V100.431Z" fill="white"/>
<path d="M87.0967 100.702H87.3667V100.974H87.0967V100.702Z" fill="white"/>
<path d="M87.0967 100.431H87.3667V100.702H87.0967V100.431Z" fill="white"/>
<path d="M87.6367 100.431H87.9067V100.702H87.6367V100.431Z" fill="white"/>
<path d="M88.1767 100.431H88.4467V100.702H88.1767V100.431Z" fill="white"/>
<path d="M87.9067 100.431H88.1767V100.702H87.9067V100.431Z" fill="white"/>
<path d="M87.0967 100.159H87.3667V100.431H87.0967V100.159Z" fill="white"/>
<path d="M87.3667 99.8874H87.6367V100.159H87.3667L87.3667 99.8874Z" fill="white"/>
<path d="M87.6367 99.6158H87.9067V99.8874H87.6367L87.6367 99.6158Z" fill="white"/>
<path d="M87.9067 99.8874H88.1767V100.159H87.9067L87.9067 99.8874Z" fill="white"/>
<path d="M88.1767 100.159H88.4467V100.431H88.1767L88.1767 100.159Z" fill="white"/>
<path d="M88.1767 100.702H88.4467V100.974H88.1767V100.702Z" fill="white"/>
<path d="M88.7167 100.431H88.9867V100.702H88.7167V100.431Z" fill="white"/>
<path d="M88.7167 100.159H88.9867V100.431H88.7167V100.159Z" fill="white"/>
<path d="M88.7167 99.8874H88.9867V100.159H88.7167V99.8874Z" fill="white"/>
<path d="M88.7167 99.6158H88.9867V99.8874H88.7167V99.6158Z" fill="white"/>
<path d="M88.9867 99.6158H89.2568V99.8874H88.9867V99.6158Z" fill="white"/>
<path d="M89.2568 99.6158H89.5267V99.8874H89.2568V99.6158Z" fill="white"/>
<path d="M89.5267 99.8874H89.7968V100.159H89.5268L89.5267 99.8874Z" fill="white"/>
<path d="M90.3368 99.8874H90.6068V100.159H90.3368V99.8874Z" fill="white"/>
<path d="M90.3368 99.6158H90.6068V99.8874H90.3368V99.6158Z" fill="white"/>
<path d="M90.0668 99.6158H90.3368V99.8874H90.0668V99.6158Z" fill="white"/>
<path d="M90.6068 99.6158H90.8768V99.8874H90.6068V99.6158Z" fill="white"/>
<path d="M90.6068 100.702H90.8768V100.974H90.6068V100.702Z" fill="white"/>
<path d="M91.1469 100.702H91.4169V100.974H91.1469V100.702Z" fill="white"/>
<path d="M91.1469 100.431H91.4169V100.702H91.1469V100.431Z" fill="white"/>
<path d="M91.1469 100.159H91.4169V100.431H91.1469V100.159Z" fill="white"/>
<path d="M91.1469 99.8874H91.4169V100.159H91.1469V99.8874Z" fill="white"/>
<path d="M91.1469 99.6158H91.4169V99.8874H91.1469V99.6158Z" fill="white"/>
<path d="M91.4169 99.8874H91.6869V100.159H91.4169V99.8874Z" fill="white"/>
<path d="M91.6869 100.159H91.9569V100.431H91.6869L91.6869 100.159Z" fill="white"/>
<path d="M91.9569 100.431H92.2269V100.702H91.9569L91.9569 100.431Z" fill="white"/>
<path d="M92.2269 100.702H92.4969V100.974H92.2269L92.2269 100.702Z" fill="white"/>
<path d="M92.4969 100.431H92.7669V100.702H92.4969L92.4969 100.431Z" fill="white"/>
<path d="M92.4969 100.159H92.7669V100.431H92.4969V100.159Z" fill="white"/>
<path d="M93.0369 100.159H93.3069V100.431H93.0369V100.159Z" fill="white"/>
<path d="M93.847 100.702H94.117V100.974H93.847V100.702Z" fill="white"/>
<path d="M93.5769 100.702H93.847V100.974H93.5769V100.702Z" fill="white"/>
<path d="M94.117 100.431H94.387V100.702H94.117L94.117 100.431Z" fill="white"/>
<path d="M93.847 100.159H94.117L94.117 100.431H93.847V100.159Z" fill="white"/>
<path d="M94.117 100.159H94.387V100.431H94.117L94.117 100.159Z" fill="white"/>
<path d="M93.3069 100.702H93.5769V100.974H93.3069V100.702Z" fill="white"/>
<path d="M93.0369 100.431H93.3069L93.3069 100.702H93.0369V100.431Z" fill="white"/>
<path d="M93.0369 99.8874H93.3069V100.159H93.0369V99.8874Z" fill="white"/>
<path d="M93.5769 99.6158H93.8469V99.8874H93.5769V99.6158Z" fill="white"/>
<path d="M93.3069 99.6158H93.5769V99.8874H93.3069L93.3069 99.6158Z" fill="white"/>
<path d="M93.8469 99.6158H94.117V99.8874H93.8469V99.6158Z" fill="white"/>
<path d="M92.4969 100.702H92.7669V100.974H92.4969V100.702Z" fill="white"/>
<path d="M92.4969 99.8874H92.7669V100.159H92.4969V99.8874Z" fill="white"/>
<path d="M92.4969 99.6158H92.7669V99.8874H92.4969V99.6158Z" fill="white"/>
<path d="M90.0668 100.702H90.3368V100.974H90.0668V100.702Z" fill="white"/>
<path d="M89.5268 100.159H89.7968V100.431H89.5268V100.159Z" fill="white"/>
<path d="M90.3368 100.159H90.6068V100.431H90.3368V100.159Z" fill="white"/>
<path d="M88.9867 100.702H89.2568V100.974H88.9868L88.9867 100.702Z" fill="white"/>
<path d="M90.3368 100.431H90.6068L90.6068 100.702H90.3368L90.3368 100.431Z" fill="white"/>
<path d="M90.3368 100.702H90.6068V100.974H90.3368V100.702Z" fill="white"/>
<path d="M89.2568 100.702H89.5267V100.974H89.2568V100.702Z" fill="white"/>
<path d="M89.5268 100.431H89.7968V100.702H89.5267L89.5268 100.431Z" fill="white"/>
<path d="M88.7167 100.702H88.9867L88.9868 100.974H88.7167V100.702Z" fill="white"/>
<path d="M87.3667 100.431H87.6367V100.702H87.3667V100.431Z" fill="white"/>
<path d="M86.5566 100.159H86.8266V100.431H86.5566V100.159Z" fill="white"/>
<path d="M86.5566 99.8874H86.8266V100.159H86.5566V99.8874Z" fill="white"/>
<path d="M85.7466 100.159H86.0166V100.431H85.7466V100.159Z" fill="white"/>
<path d="M85.7466 99.8874H86.0166V100.159H85.7466V99.8874Z" fill="white"/>
<path d="M86.0166 99.6158H86.2866V99.8874H86.0166L86.0166 99.6158Z" fill="white"/>
<path d="M86.2866 99.6158H86.5566L86.5566 99.8874H86.2866V99.6158Z" fill="white"/>
<path d="M86.2866 100.702H86.5566L86.5566 100.974H86.2866V100.702Z" fill="white"/>
<path d="M86.0166 100.702H86.2866V100.974H86.0166V100.702Z" fill="white"/>
<path d="M85.7466 100.431H86.0166L86.0166 100.702H85.7466V100.431Z" fill="white"/>
<path d="M85.2066 100.702H85.4766V100.974H85.2066V100.702Z" fill="white"/>
<path d="M84.9365 100.702H85.2066V100.974H84.9365V100.702Z" fill="white"/>
<path d="M84.6665 100.702H84.9365V100.974H84.6665V100.702Z" fill="white"/>
<path d="M95.251 98.3662H95.683V98.8008H95.251L95.251 98.3662Z" fill="white"/>
<path d="M95.251 97.9316H95.683V98.3662H95.251V97.9316Z" fill="white"/>
<path d="M95.251 97.497H95.683V97.9316H95.251V97.497Z" fill="white"/>
<path d="M95.251 97.0623H95.683V97.497H95.251V97.0623Z" fill="white"/>
<path d="M95.251 96.6277H95.683V97.0623H95.251V96.6277Z" fill="white"/>
<path d="M84.3965 99.8874H84.6665V100.159H84.3965V99.8874Z" fill="white"/>
<path d="M84.4506 96.1931H84.8826V96.6277H84.4506V96.1931Z" fill="white"/>
<path d="M84.8826 96.1931H85.3146V96.6277H84.8826V96.1931Z" fill="white"/>
<path d="M84.8826 97.0623H85.3146V97.497H84.8826V97.0623Z" fill="white"/>
<path d="M86.1786 97.0623H86.6106V97.497H86.1786V97.0623Z" fill="white"/>
<path d="M87.4747 97.0623H87.9067V97.497H87.4747V97.0623Z" fill="white"/>
<path d="M88.7707 97.0623H89.2027V97.497H88.7707V97.0623Z" fill="white"/>
<path d="M90.0668 97.0623H90.4988V97.497H90.0668V97.0623Z" fill="white"/>
<path d="M84.8826 97.497H85.3146V97.9316H84.8826V97.497Z" fill="white"/>
<path d="M86.1786 97.497H86.6106V97.9316H86.1786V97.497Z" fill="white"/>
<path d="M87.4747 97.497H87.9067V97.9316H87.4747V97.497Z" fill="white"/>
<path d="M88.7707 97.497H89.2027V97.9316H88.7707V97.497Z" fill="white"/>
<path d="M90.0668 97.497H90.4988V97.9316H90.0668V97.497Z" fill="white"/>
<path d="M84.8826 97.9316H85.3146V98.3662H84.8826V97.9316Z" fill="white"/>
<path d="M86.1786 97.9316H86.6106V98.3662H86.1786V97.9316Z" fill="white"/>
<path d="M87.4747 97.9316H87.9067V98.3662H87.4747V97.9316Z" fill="white"/>
<path d="M88.7707 97.9316H89.2027V98.3662H88.7707V97.9316Z" fill="white"/>
<path d="M90.0668 97.9316H90.4988V98.3662H90.0668V97.9316Z" fill="white"/>
<path d="M85.3146 97.9316L85.7466 97.9316V98.3662H85.3146V97.9316Z" fill="white"/>
<path d="M86.6106 97.9316L87.0427 97.9316V98.3662H86.6106V97.9316Z" fill="white"/>
<path d="M87.9067 97.9316L88.3387 97.9316V98.3662H87.9067V97.9316Z" fill="white"/>
<path d="M89.2027 97.9316L89.6348 97.9316V98.3662H89.2027V97.9316Z" fill="white"/>
<path d="M90.4988 97.9316L90.9308 97.9316V98.3662H90.4988V97.9316Z" fill="white"/>
<path d="M85.3146 97.497L85.7466 97.497V97.9316L85.3146 97.9316V97.497Z" fill="white"/>
<path d="M86.6106 97.497L87.0427 97.497V97.9316L86.6106 97.9316V97.497Z" fill="white"/>
<path d="M87.9067 97.497L88.3387 97.497V97.9316L87.9067 97.9316V97.497Z" fill="white"/>
<path d="M89.2027 97.497L89.6348 97.497V97.9316L89.2027 97.9316V97.497Z" fill="white"/>
<path d="M90.4988 97.497L90.9308 97.497V97.9316L90.4988 97.9316V97.497Z" fill="white"/>
<path d="M85.3146 97.0623H85.7466V97.497L85.3146 97.497V97.0623Z" fill="white"/>
<path d="M86.6106 97.0623H87.0427V97.497L86.6106 97.497V97.0623Z" fill="white"/>
<path d="M87.9067 97.0623H88.3387V97.497L87.9067 97.497V97.0623Z" fill="white"/>
<path d="M89.2027 97.0623H89.6348V97.497L89.2027 97.497V97.0623Z" fill="white"/>
<path d="M90.4988 97.0623H90.9308V97.497L90.4988 97.497V97.0623Z" fill="white"/>
<path d="M85.3146 96.1931H85.7466V96.6277H85.3146V96.1931Z" fill="white"/>
<path d="M85.7466 96.1931H86.1786V96.6277H85.7466V96.1931Z" fill="white"/>
<path d="M86.1786 96.1931H86.6106V96.6277H86.1786V96.1931Z" fill="white"/>
<path d="M86.6106 96.1931H87.0427V96.6277H86.6106V96.1931Z" fill="white"/>
<path d="M87.0427 96.1931H87.4747V96.6277H87.0427V96.1931Z" fill="white"/>
<path d="M87.4747 96.1931H87.9067V96.6277H87.4747V96.1931Z" fill="white"/>
<path d="M87.9067 96.1931H88.3387V96.6277H87.9067V96.1931Z" fill="white"/>
<path d="M88.3387 96.1931H88.7707V96.6277H88.3387V96.1931Z" fill="white"/>
<path d="M88.7707 96.1931H89.2027V96.6277H88.7707V96.1931Z" fill="white"/>
<path d="M89.2027 96.1931H89.6348V96.6277H89.2027V96.1931Z" fill="white"/>
<path d="M89.6348 96.1931H90.0668V96.6277H89.6348V96.1931Z" fill="white"/>
<path d="M90.0668 96.1931H90.4988V96.6277H90.0668V96.1931Z" fill="white"/>
<path d="M90.4988 96.1931H90.9308V96.6277H90.4988V96.1931Z" fill="white"/>
<path d="M90.9308 96.1931H91.3629V96.6277H90.9308V96.1931Z" fill="white"/>
<path d="M91.3629 96.1931H91.7949V96.6277H91.3629V96.1931Z" fill="white"/>
<path d="M91.7949 96.1931H92.2269V96.6277H91.7949V96.1931Z" fill="white"/>
<path d="M92.2269 96.1931H92.6589V96.6277H92.2269V96.1931Z" fill="white"/>
<path d="M92.6589 96.1931H93.0909V96.6277H92.6589V96.1931Z" fill="white"/>
<path d="M93.0909 96.1931H93.5229V96.6277H93.0909V96.1931Z" fill="white"/>
<path d="M93.5229 96.1931H93.955V96.6277H93.5229V96.1931Z" fill="white"/>
<path d="M93.955 96.1931H94.387V96.6277H93.955V96.1931Z" fill="white"/>
<path d="M94.387 96.1931H94.819V96.6277H94.387V96.1931Z" fill="white"/>
<path d="M94.819 96.1931H95.251L95.251 96.6277H94.819V96.1931Z" fill="white"/>
<path d="M84.3965 100.159H84.6665V100.431H84.3965V100.159Z" fill="white"/>
<path d="M84.0185 96.6277H84.4506L84.4505 97.0623H84.0185V96.6277Z" fill="white"/>
<path d="M84.0185 97.0623H84.4505V97.497H84.0185V97.0623Z" fill="white"/>
<path d="M84.0185 97.497H84.4505V97.9316H84.0185V97.497Z" fill="white"/>
<path d="M84.0185 97.9316H84.4505V98.3662H84.0185V97.9316Z" fill="white"/>
</svg>
