<svg width="43" height="27" viewBox="0 0 43 27" fill="none" xmlns="http://www.w3.org/2000/svg">
<path d="M5.41898 0.00912794C4.82213 0.104574 4.28767 0.433083 3.93316 0.922387C3.57865 1.41169 3.43314 2.02171 3.52863 2.61825C3.62413 3.21478 3.95281 3.74897 4.44237 4.10329C4.93193 4.45762 5.54227 4.60305 6.13911 4.50761H12.8904L13.2954 5.63223L15.1408 11.2553L16.9861 16.8784C17.1661 17.4632 17.9313 18.003 18.5164 18.003H34.2693C34.8994 18.003 35.6195 17.4632 35.7996 16.8784L39.4452 5.63223C39.6253 5.04742 39.3552 4.50761 38.7251 4.50761H18.7414L17.0311 1.2687C16.849 0.896945 16.5677 0.582642 16.2183 0.360403C15.8688 0.138165 15.4649 0.0166112 15.0508 0.00912794L6.0491 0.00912794C5.91435 -0.00304265 5.77877 -0.00304265 5.64402 0.00912794C5.55409 0.0037249 5.46391 0.0037249 5.37397 0.00912794L5.41898 0.00912794ZM19.6416 22.5015C18.3814 22.5015 17.3912 23.4912 17.3912 24.7508C17.3912 26.0103 18.3814 27 19.6416 27C20.9018 27 21.892 26.0103 21.892 24.7508C21.892 23.4912 20.9018 22.5015 19.6416 22.5015ZM33.1441 22.5015C31.8839 22.5015 30.8937 23.4912 30.8937 24.7508C30.8937 26.0103 31.8839 27 33.1441 27C34.4043 27 35.3945 26.0103 35.3945 24.7508C35.3945 23.4912 34.4043 22.5015 33.1441 22.5015Z" fill="#FFFFE3"/>
</svg>
