<svg width="20" height="20" viewBox="0 0 20 20" fill="none" xmlns="http://www.w3.org/2000/svg">
<path d="M18 10C18 11.945 17.1571 13.8102 15.6569 15.1855C14.1566 16.5608 12.1217 17.3334 10 17.3334C7.87827 17.3334 5.84344 16.5608 4.34315 15.1855C2.84285 13.8102 2 11.945 2 10C2 8.05512 2.84285 6.18986 4.34315 4.81459C5.84344 3.43932 7.87827 2.66671 10 2.66671C12.1217 2.66671 14.1566 3.43932 15.6569 4.81459C17.1571 6.18986 18 8.05512 18 10ZM10 19.1667C15.523 19.1667 20 15.0628 20 10C20 4.93729 15.523 0.833374 10 0.833374C4.477 0.833374 0 4.93729 0 10C0 15.0628 4.477 19.1667 10 19.1667ZM10.358 7.60021C9.386 7.97115 7.44233 8.73901 4.527 9.90379C4.053 10.0761 3.805 10.2448 3.783 10.4098C3.745 10.6885 4.126 10.7985 4.645 10.9479L4.863 11.012C5.373 11.1642 6.061 11.342 6.418 11.3494C6.742 11.3555 7.10333 11.2333 7.502 10.9827C10.226 9.29604 11.632 8.44385 11.72 8.42612C11.783 8.41329 11.869 8.39679 11.927 8.44446C11.986 8.49212 11.98 8.58196 11.974 8.60671C11.936 8.75429 10.44 10.0294 9.666 10.6885C9.43667 10.8865 9.209 11.086 8.983 11.287C8.509 11.706 8.153 12.0204 9.003 12.5337C9.864 13.0544 10.733 13.5732 11.573 14.1223C11.987 14.3936 12.359 14.6356 12.819 14.598C13.086 14.5751 13.362 14.345 13.502 13.6575C13.834 12.035 14.485 8.51687 14.635 7.06671C14.6437 6.94642 14.638 6.82561 14.618 6.70646C14.6062 6.61056 14.5555 6.52223 14.476 6.45896C14.356 6.36912 14.171 6.35079 14.089 6.35171C13.713 6.35812 13.136 6.54146 10.359 7.60021" fill="#858585"/>
</svg>
