<svg width="1436" height="54" viewBox="0 0 1436 54" fill="none" xmlns="http://www.w3.org/2000/svg">
<path d="M14.4907 14.4798C14.4907 14.5802 14.4907 14.6805 14.4907 14.7809C12.5602 17.2872 10.6257 19.7605 8.68711 22.2007C8.22379 22.7734 7.64465 23.1809 6.95578 23.4122C6.26081 23.6582 5.34028 23.7537 4.17591 23.7023C3.21271 23.6631 2.2495 23.624 1.2863 23.5848C1.2863 23.0096 1.2863 22.4344 1.2863 21.8593C2.19667 21.8862 3.10704 21.9143 4.01741 21.9437C4.41366 21.9547 4.71847 21.9364 4.93793 21.8776C5.18178 21.8299 5.37686 21.7271 5.54146 21.5655C3.69227 19.2844 1.84512 17.0339 0 14.8139C0 14.7185 0 14.623 0 14.5276C1.12577 14.5276 2.25357 14.5263 3.3834 14.5239C4.68799 16.1735 5.99258 17.8354 7.29717 19.5096C8.56925 17.8575 9.83929 16.1858 11.1073 14.4945C12.2331 14.4896 13.3609 14.4847 14.4907 14.4798ZM30.347 20.1998C30.3551 20.8582 30.3612 21.5166 30.3652 22.175C25.7443 22.0306 21.1234 21.8862 16.5025 21.7418C16.4984 21.1666 16.4943 20.5939 16.4903 20.0236C18.7987 19.2061 21.1051 18.3751 23.4095 17.5307C24.3422 17.1746 25.0311 16.8919 25.47 16.6716C25.9211 16.4513 26.232 16.2458 26.3905 16.0512C26.549 15.8639 26.6283 15.6326 26.6283 15.3683C26.6283 15.3218 26.6283 15.2765 26.6283 15.2325C26.6222 14.7956 26.3235 14.4651 25.7382 14.2449C25.1591 14.0136 24.3361 13.9034 23.2449 13.9108C22.1049 13.9181 21.2331 14.0576 20.6357 14.3293C20.0505 14.59 19.7578 14.9718 19.7639 15.4711C19.7639 15.569 19.7639 15.6669 19.7639 15.7648C18.6788 15.7648 17.5937 15.7636 16.5086 15.7611C16.5086 15.6608 16.5086 15.5604 16.5086 15.4601C16.5025 14.344 17.0633 13.4849 18.2033 12.8828C19.3433 12.2733 20.9954 11.9503 23.1656 11.9136C25.2871 11.8805 26.9453 12.1448 28.1401 12.7176C29.3289 13.2793 29.9324 14.087 29.9446 15.1186C29.9446 15.1725 29.9446 15.2251 29.9446 15.2765C29.9507 15.7795 29.8044 16.2347 29.5179 16.6312C29.2253 17.0314 28.7376 17.4316 28.0365 17.8208C27.3476 18.1989 26.3783 18.6211 25.1347 19.0874C24.2731 19.4031 23.4115 19.7164 22.5499 20.0272C25.151 20.0835 27.75 20.1411 30.347 20.1998ZM46.3495 22.3329C46.3495 22.4454 46.3516 22.5568 46.3556 22.667C45.0957 22.6278 43.8379 22.5899 42.5821 22.5531C41.3181 21.4517 40.0562 20.3601 38.7963 19.2783C37.9916 19.7825 37.1889 20.283 36.3883 20.7799C36.3964 21.3061 36.4025 21.8336 36.4066 22.3622C35.3418 22.328 34.277 22.2949 33.2122 22.2631C33.1715 18.6187 33.1309 14.9693 33.0903 11.3151C34.151 11.2955 35.2138 11.276 36.2786 11.2564C36.303 13.5179 36.3294 15.7734 36.3578 18.0227C38.2802 16.816 40.2005 15.5935 42.1187 14.355C43.4111 14.3501 44.7015 14.344 45.9898 14.3366C45.9939 14.4541 45.9959 14.5716 45.9959 14.6891C44.3906 15.7611 42.7832 16.8222 41.1738 17.8722C42.897 19.3432 44.6223 20.8301 46.3495 22.3329ZM70.2101 14.2449C70.2142 14.3721 70.2182 14.5006 70.2223 14.6304C68.3365 17.8269 66.4487 20.9891 64.5589 24.1171C64.1017 24.8514 63.5287 25.3691 62.8398 25.6775C62.1631 25.9932 61.2304 26.1254 60.0721 26.074C59.1089 26.0348 58.1457 25.9944 57.1825 25.9528C57.1703 25.2161 57.1581 24.4782 57.1459 23.739C58.0563 23.7708 58.9687 23.8014 59.8831 23.8308C60.2733 23.8455 60.5842 23.8161 60.8036 23.739C61.0353 23.6766 61.2365 23.5407 61.3889 23.3351C59.4991 20.4127 57.6092 17.5222 55.7194 14.6634C55.7153 14.5435 55.7133 14.4223 55.7133 14.2999C56.8472 14.295 57.977 14.2901 59.1028 14.2852C60.4358 16.4048 61.7709 18.5391 63.108 20.6881C64.3476 18.5612 65.5851 16.4171 66.8206 14.2559C67.9545 14.251 69.0843 14.2473 70.2101 14.2449ZM86.17 21.415C86.1862 22.235 86.2025 23.0561 86.2188 23.8785C81.5938 23.7365 76.9708 23.5958 72.3499 23.4563C72.3377 22.7294 72.3235 22.0049 72.3072 21.2829C74.5994 20.2353 76.8916 19.1743 79.1837 18.0998C80.1165 17.6519 80.7992 17.2958 81.2321 17.0167C81.6771 16.7414 81.9758 16.4844 82.1404 16.2384C82.2928 16.0034 82.366 15.7171 82.3599 15.383C82.3599 15.3242 82.3578 15.2667 82.3538 15.2104C82.3416 14.6671 82.0429 14.2522 81.4515 13.9732C80.8785 13.6868 80.0433 13.5436 78.9582 13.551C77.8121 13.5583 76.9464 13.7272 76.349 14.0686C75.7699 14.3991 75.4833 14.8763 75.4955 15.5078C75.4996 15.6326 75.5037 15.7562 75.5077 15.8786C74.4226 15.8762 73.3354 15.8737 72.2462 15.8713C72.2462 15.7464 72.2442 15.6192 72.2401 15.4895C72.2158 14.076 72.7644 12.9966 73.8922 12.244C75.02 11.4913 76.6721 11.0912 78.8423 11.0581C80.9638 11.0288 82.6281 11.3665 83.829 12.0788C85.0361 12.7837 85.6518 13.7896 85.6762 15.0709C85.6803 15.1394 85.6823 15.2055 85.6823 15.2692C85.6945 15.897 85.5604 16.466 85.2799 16.9617C84.9934 17.4646 84.5057 17.9639 83.8108 18.4522C83.128 18.9258 82.177 19.4582 80.9394 20.0529C80.0819 20.4543 79.2244 20.8521 78.3668 21.2461C80.9638 21.3024 83.5649 21.3587 86.17 21.415ZM102.191 23.9519C102.195 24.0865 102.197 24.2224 102.197 24.3594C100.941 24.3203 99.6873 24.2824 98.4356 24.2456C97.1554 22.897 95.8752 21.557 94.595 20.2255C93.8025 20.8545 93.0099 21.4787 92.2174 22.0979C92.2296 22.7489 92.2439 23.4024 92.2601 24.0584C91.1953 24.0266 90.1305 23.9948 89.0657 23.9629C88.9641 19.43 88.8625 14.8959 88.7609 10.3606C89.8257 10.3434 90.8885 10.3263 91.9492 10.3092C92.0142 13.1018 92.0772 15.8933 92.1382 18.6835C94.0402 17.1832 95.9422 15.6693 97.8442 14.1421C99.1326 14.1372 100.423 14.1323 101.715 14.1274C101.719 14.2718 101.723 14.415 101.728 14.5569C100.134 15.8762 98.5433 17.1844 96.9542 18.4816C98.7018 20.2879 100.447 22.1114 102.191 23.9519ZM125.93 14.0393C125.934 14.1935 125.938 14.3489 125.942 14.5055C124.101 18.3678 122.26 22.1958 120.419 25.9895C119.974 26.8817 119.413 27.5168 118.73 27.8913C118.047 28.2841 117.127 28.4493 115.962 28.3979C115.003 28.3588 114.042 28.3196 113.079 28.2805C113.054 27.3846 113.03 26.4876 113.006 25.5894C113.916 25.6187 114.826 25.6493 115.737 25.6811C116.139 25.6921 116.444 25.6554 116.663 25.56C116.895 25.4866 117.09 25.3177 117.248 25.068C115.314 21.5239 113.379 18.0129 111.445 14.5349C111.445 14.388 111.443 14.24 111.439 14.0907C112.565 14.0882 113.692 14.0845 114.822 14.0796C116.188 16.652 117.555 19.2416 118.925 21.8482C120.132 19.2636 121.339 16.6643 122.546 14.0503C123.672 14.0478 124.8 14.0442 125.93 14.0393ZM141.981 22.6192C142.009 23.5983 142.038 24.5785 142.066 25.56C137.445 25.4205 132.824 25.281 128.203 25.1414C128.179 24.2677 128.155 23.3951 128.13 22.5238C130.406 21.251 132.682 19.9673 134.958 18.6725C135.879 18.1328 136.555 17.7033 136.988 17.3729C137.439 17.0388 137.732 16.7304 137.884 16.4403C138.043 16.154 138.11 15.8125 138.098 15.4124C138.098 15.3438 138.096 15.2753 138.091 15.2068C138.073 14.5533 137.768 14.0613 137.171 13.7272C136.586 13.3821 135.757 13.2095 134.671 13.2132C133.525 13.2206 132.66 13.4262 132.068 13.8373C131.495 14.2302 131.221 14.8029 131.239 15.5629C131.243 15.7122 131.247 15.8615 131.251 16.0108C130.162 16.0083 129.077 16.0059 127.996 16.0034C127.992 15.8517 127.988 15.6975 127.984 15.5409C127.935 13.841 128.472 12.5414 129.593 11.6382C130.709 10.735 132.349 10.2614 134.519 10.2321C136.641 10.199 138.317 10.6065 139.524 11.4656C140.737 12.3064 141.365 13.5069 141.414 15.0415C141.414 15.1223 141.416 15.2019 141.42 15.2802C141.444 16.0291 141.316 16.7083 141.036 17.3031C140.762 17.9015 140.28 18.4963 139.591 19.0837C138.921 19.6528 137.97 20.2953 136.744 21.0112C135.887 21.4933 135.033 21.9731 134.184 22.4503C136.785 22.5066 139.384 22.5629 141.981 22.6192ZM158.038 25.5563C158.042 25.7178 158.046 25.8794 158.05 26.0409C156.795 26.0018 155.537 25.9638 154.277 25.9271C152.98 24.3337 151.686 22.7477 150.394 21.169C149.609 21.9204 148.823 22.667 148.034 23.4086C148.059 24.1844 148.083 24.9615 148.108 25.7399C147.043 25.7081 145.976 25.6762 144.907 25.6444C144.749 20.2402 144.59 14.8347 144.432 9.42804C145.492 9.41091 146.555 9.39378 147.62 9.37664C147.717 12.698 147.815 16.0194 147.912 19.3407C149.798 17.5564 151.682 15.7562 153.564 13.9401C154.852 13.9352 156.142 13.9303 157.435 13.9255C157.439 14.0968 157.443 14.2669 157.447 14.4358C155.874 15.9998 154.303 17.5528 152.735 19.0947C154.498 21.2315 156.266 23.3853 158.038 25.5563ZM181.655 13.841C181.659 14.0221 181.665 14.2033 181.673 14.3844C179.877 18.9099 178.081 23.4012 176.284 27.8583C175.845 28.9046 175.291 29.6535 174.62 30.0978C173.943 30.5604 173.023 30.7623 171.858 30.7146C170.895 30.6754 169.93 30.635 168.963 30.5934C168.93 29.541 168.898 28.4861 168.865 27.4287C169.78 27.4605 170.692 27.4911 171.602 27.5205C171.999 27.5315 172.303 27.4874 172.523 27.3773C172.748 27.2855 172.944 27.0873 173.096 26.7936C171.117 22.6327 169.144 18.5061 167.176 14.4137C167.172 14.24 167.166 14.0662 167.158 13.8924C168.288 13.8875 169.418 13.8826 170.548 13.8777C171.942 16.9029 173.338 19.944 174.736 23.001C175.91 19.9661 177.087 16.9164 178.266 13.852C179.395 13.8471 180.525 13.8435 181.655 13.841ZM197.804 23.8198C197.84 24.9603 197.879 26.0997 197.92 27.2378C193.295 27.0983 188.672 26.96 184.051 26.8229C184.014 25.7998 183.98 24.7792 183.947 23.761C186.207 22.268 188.467 20.7627 190.726 19.2452C191.647 18.6174 192.323 18.1145 192.75 17.729C193.189 17.3398 193.488 16.98 193.634 16.6386C193.78 16.3082 193.847 15.908 193.835 15.4454C193.831 15.3646 193.827 15.2851 193.823 15.2068C193.799 14.4468 193.494 13.8704 192.884 13.4812C192.305 13.081 191.464 12.8791 190.385 12.8865C189.233 12.8901 188.373 13.1288 187.788 13.606C187.215 14.065 186.947 14.7368 186.977 15.6216C186.981 15.7954 186.987 15.9692 186.995 16.143C185.91 16.1405 184.823 16.1381 183.734 16.1356C183.73 15.9594 183.724 15.7795 183.716 15.5959C183.648 13.6097 184.173 12.0934 185.282 11.0434C186.386 9.98609 188.032 9.43906 190.196 9.40601C192.323 9.37664 193.994 9.85392 195.219 10.8562C196.438 11.8365 197.078 13.2316 197.139 15.0122C197.143 15.1076 197.148 15.2006 197.152 15.2912C197.182 16.1613 197.06 16.9507 196.792 17.6409C196.524 18.3384 196.054 19.0323 195.365 19.7152C194.707 20.3834 193.756 21.1287 192.537 21.9657C191.691 22.5311 190.844 23.0941 189.995 23.6545C192.6 23.7108 195.203 23.7659 197.804 23.8198ZM213.88 27.1607C213.884 27.3467 213.89 27.5327 213.898 27.7187C212.638 27.6796 211.382 27.6416 210.13 27.6049C208.818 25.7668 207.505 23.9372 206.192 22.1162C205.416 22.9876 204.64 23.854 203.864 24.7156C203.896 25.6138 203.927 26.5145 203.955 27.4177C202.89 27.3859 201.825 27.354 200.761 27.3222C200.541 21.0491 200.324 14.776 200.108 8.50286C201.169 8.48328 202.23 8.46492 203.29 8.44779C203.429 12.2978 203.565 16.1478 203.699 19.9979C205.56 17.9272 207.422 15.8419 209.283 13.7419C210.575 13.737 211.866 13.7321 213.154 13.7272C213.162 13.923 213.17 14.1188 213.179 14.3146C211.622 16.1234 210.063 17.9199 208.503 19.7042C210.295 22.1738 212.087 24.6593 213.88 27.1607ZM237.368 13.6428C237.376 13.8508 237.385 14.0576 237.393 14.2632C235.645 19.4496 233.893 24.6018 232.138 29.7196C231.717 30.9275 231.168 31.7866 230.498 32.3006C229.827 32.8366 228.913 33.0752 227.748 33.0238C226.789 32.9847 225.826 32.9455 224.859 32.9064C224.814 31.6948 224.769 30.482 224.725 29.2681C225.635 29.2974 226.546 29.3268 227.456 29.3562C227.858 29.3708 228.163 29.3158 228.376 29.1873C228.608 29.0808 228.797 28.8569 228.949 28.5154C226.93 23.7427 224.914 19.0029 222.902 14.2963C222.894 14.0956 222.886 13.8949 222.878 13.6942C224.007 13.6893 225.135 13.6844 226.261 13.6795C227.692 17.155 229.122 20.6465 230.553 24.1539C231.699 20.6685 232.843 17.1685 233.985 13.6538C235.115 13.6489 236.243 13.6452 237.368 13.6428ZM253.615 25.024C253.663 26.3212 253.714 27.6184 253.767 28.9156C249.142 28.7761 244.519 28.6366 239.898 28.4971C239.854 27.3271 239.811 26.1596 239.77 24.9946C242.014 23.2813 244.259 21.5558 246.507 19.818C247.415 19.0984 248.079 18.5257 248.506 18.0851C248.945 17.6409 249.238 17.2297 249.378 16.8442C249.53 16.4624 249.591 16.0108 249.573 15.4784C249.569 15.3879 249.565 15.2973 249.561 15.2068C249.53 14.3403 249.207 13.6831 248.604 13.2389C248.012 12.78 247.183 12.5487 246.092 12.556C244.952 12.5634 244.086 12.8351 243.507 13.3784C242.94 13.9034 242.678 14.6671 242.715 15.6804C242.723 15.8811 242.731 16.0805 242.739 16.2788C241.65 16.2763 240.565 16.2739 239.484 16.2715C239.476 16.0683 239.467 15.8627 239.459 15.6547C239.374 13.3784 239.88 11.6419 240.977 10.445C242.075 9.2408 243.708 8.61667 245.873 8.5873C248 8.55426 249.683 9.10496 250.908 10.2468C252.139 11.3702 252.798 12.9599 252.877 14.9865C252.881 15.0942 252.885 15.1994 252.889 15.3022C252.926 16.2935 252.816 17.193 252.554 17.9823C252.292 18.779 251.822 19.5683 251.146 20.3503C250.487 21.1103 249.555 21.9657 248.341 22.9203C247.5 23.5689 246.659 24.2138 245.818 24.8551C248.415 24.9114 251.014 24.9677 253.615 25.024ZM269.721 28.7614C269.733 28.9719 269.743 29.1824 269.751 29.3929C268.492 29.3562 267.234 29.3195 265.978 29.2827C264.649 27.1999 263.32 25.1255 261.991 23.0598C261.223 24.0511 260.453 25.0387 259.68 26.0226C259.721 27.0432 259.762 28.0675 259.802 29.0955C258.738 29.0637 257.673 29.0319 256.608 29C256.328 21.858 256.049 14.716 255.773 7.57401C256.838 7.55688 257.9 7.53974 258.961 7.52261C259.132 11.9013 259.302 16.28 259.473 20.6587C261.318 18.3017 263.163 15.93 265.009 13.5436C266.297 13.5387 267.585 13.5338 268.874 13.5289C268.882 13.7517 268.892 13.9744 268.904 14.1971C267.364 16.2482 265.823 18.287 264.283 20.3136C266.096 23.1136 267.908 25.9296 269.721 28.7614ZM293.094 13.4445C293.106 13.6795 293.116 13.9132 293.124 14.1457C291.421 19.993 289.714 25.806 288.003 31.5847C287.589 32.9468 287.046 33.9197 286.388 34.5034C285.717 35.1129 284.809 35.3845 283.645 35.3368C282.677 35.2952 281.712 35.2548 280.749 35.2156C280.692 33.8475 280.637 32.4768 280.584 31.1037C281.499 31.1331 282.411 31.1637 283.322 31.1955C283.718 31.2065 284.023 31.1441 284.236 30.9973C284.468 30.8798 284.657 30.6228 284.797 30.2373C282.736 24.8502 280.68 19.4973 278.628 14.1788C278.619 13.9512 278.611 13.7235 278.603 13.4959C279.729 13.491 280.857 13.4873 281.987 13.4849C283.446 17.4108 284.905 21.3514 286.364 25.3067C287.477 21.3734 288.593 17.423 289.71 13.4555C290.84 13.4531 291.968 13.4494 293.094 13.4445ZM309.432 26.2245C309.493 27.6784 309.554 29.1334 309.615 30.5897C304.994 30.4527 300.371 30.3144 295.746 30.1749C295.693 28.8581 295.638 27.5437 295.581 26.2318C297.812 24.2958 300.043 22.3488 302.275 20.3907C303.183 19.583 303.848 18.9369 304.268 18.4412C304.701 17.9419 304.988 17.4793 305.134 17.0461C305.274 16.6202 305.335 16.1099 305.311 15.5115C305.307 15.4111 305.302 15.3108 305.298 15.2104C305.256 14.2338 304.933 13.4959 304.329 12.9966C303.732 12.4826 302.89 12.2219 301.805 12.2293C300.665 12.2366 299.806 12.5414 299.227 13.1508C298.66 13.7419 298.404 14.601 298.452 15.7428C298.461 15.9655 298.469 16.1895 298.477 16.4146C297.396 16.4122 296.313 16.4097 295.227 16.4073C295.219 16.1772 295.209 15.9447 295.197 15.7097C295.093 13.1508 295.581 11.2013 296.666 9.85025C297.764 8.49552 299.385 7.79796 301.555 7.76492C303.683 7.73555 305.359 8.35233 306.609 9.63731C307.847 10.9003 308.511 12.6845 308.609 14.9608C308.613 15.0832 308.617 15.2006 308.621 15.3132C308.67 16.4293 308.566 17.4389 308.31 18.3237C308.054 19.2159 307.597 20.1043 306.92 20.9818C306.274 21.8372 305.341 22.7991 304.14 23.8748C303.307 24.6067 302.47 25.3336 301.629 26.0556C304.234 26.1119 306.835 26.1682 309.432 26.2245ZM325.562 30.3621C325.574 30.5995 325.585 30.8357 325.593 31.0707C324.341 31.034 323.085 30.996 321.825 30.9569C320.48 28.6292 319.135 26.3102 317.79 23.9997C317.03 25.1157 316.27 26.2245 315.51 27.3259C315.558 28.4714 315.607 29.6205 315.656 30.7733C314.591 30.7415 313.524 30.7097 312.455 30.6779C312.122 22.667 311.787 14.6573 311.45 6.64883C312.51 6.63169 313.573 6.61456 314.638 6.59743C314.841 11.5024 315.046 16.4085 315.254 21.3159C317.078 18.675 318.903 16.0181 320.728 13.3454C322.016 13.3405 323.307 13.3368 324.599 13.3344C324.611 13.5816 324.621 13.83 324.629 14.0796C323.105 16.373 321.581 18.6554 320.057 20.9267C321.894 24.0572 323.729 27.2023 325.562 30.3621ZM348.819 13.2463C348.832 13.5081 348.844 13.7688 348.856 14.0283C347.19 20.5363 345.527 27.0089 343.869 33.4461C343.467 34.966 342.93 36.0527 342.266 36.7062C341.607 37.3891 340.693 37.6938 339.535 37.6461C338.572 37.6069 337.608 37.5665 336.645 37.5249C336.58 36.0001 336.513 34.4716 336.444 32.9394C337.354 32.9688 338.265 32.9994 339.175 33.0312C339.577 33.0422 339.876 32.9725 340.09 32.8072C340.327 32.6751 340.51 32.385 340.656 31.9555C338.551 25.9565 336.45 19.9905 334.353 14.0576C334.341 13.8055 334.331 13.5522 334.322 13.2977C335.448 13.2952 336.578 13.2915 337.712 13.2866C339.195 17.6629 340.683 22.0538 342.174 26.4595C343.26 22.0759 344.345 17.6764 345.43 13.2609C346.556 13.256 347.685 13.2511 348.819 13.2463ZM365.249 27.425C365.318 29.038 365.389 30.6522 365.462 32.2675C360.841 32.128 356.22 31.9897 351.599 31.8527C351.534 30.3866 351.469 28.9242 351.404 27.4654C353.619 25.3091 355.834 23.143 358.049 20.9671C358.945 20.064 359.604 19.348 360.024 18.7973C360.457 18.243 360.737 17.729 360.878 17.248C361.018 16.7744 361.073 16.209 361.048 15.5482C361.04 15.4356 361.034 15.323 361.03 15.2104C360.981 14.1274 360.652 13.3087 360.042 12.758C359.445 12.1816 358.604 11.8952 357.519 11.8989C356.372 11.9062 355.513 12.244 354.946 12.9232C354.391 13.5803 354.135 14.5349 354.196 15.8015C354.204 16.0512 354.214 16.3008 354.227 16.5505C353.137 16.548 352.052 16.5456 350.971 16.5431C350.959 16.2886 350.947 16.0304 350.935 15.7685C350.807 12.9195 351.288 10.7534 352.367 9.25182C353.44 7.74656 355.062 6.97558 357.232 6.94621C359.354 6.91316 361.048 7.60338 362.298 9.03154C363.542 10.434 364.23 12.4092 364.34 14.9351C364.348 15.0697 364.354 15.2006 364.359 15.3279C364.413 16.5652 364.316 17.6813 364.066 18.6652C363.822 19.6528 363.365 20.6404 362.7 21.6133C362.054 22.5642 361.134 23.6325 359.939 24.8294C359.11 25.6444 358.281 26.4533 357.452 27.2561C360.049 27.3124 362.648 27.3687 365.249 27.425ZM381.41 31.9628C381.422 32.2247 381.434 32.4854 381.446 32.7448C380.19 32.7081 378.933 32.6714 377.673 32.6347C376.311 30.0623 374.95 27.4985 373.588 24.9432C372.836 26.1792 372.085 27.4091 371.333 28.6329C371.39 29.9008 371.446 31.1723 371.503 32.4474C370.434 32.4156 369.368 32.3838 368.303 32.352C367.909 23.4746 367.512 14.5998 367.114 5.72732C368.179 5.70774 369.242 5.68938 370.302 5.67225C370.546 11.1059 370.79 16.5407 371.034 21.9767C372.838 19.0494 374.643 16.1075 376.447 13.1508C377.736 13.1459 379.026 13.141 380.318 13.1361C380.331 13.4102 380.343 13.6856 380.355 13.9622C378.847 16.4979 377.341 19.0225 375.838 21.5362C377.691 24.997 379.548 28.4726 381.41 31.9628ZM404.539 13.0517C404.551 13.338 404.563 13.6244 404.575 13.9108C402.962 21.0773 401.346 28.2107 399.729 35.3111C399.333 36.9852 398.808 38.1858 398.156 38.909C397.498 39.6617 396.589 40.0031 395.425 39.9554C394.462 39.9162 393.498 39.8758 392.535 39.8342C392.458 38.1527 392.381 36.4664 392.304 34.7751C393.218 34.8045 394.13 34.8351 395.041 34.8669C395.437 34.8779 395.742 34.8008 395.955 34.6172C396.181 34.4667 396.364 34.151 396.504 33.6773C394.358 27.064 392.218 20.4849 390.085 13.9401C390.072 13.6611 390.058 13.3821 390.042 13.1031C391.172 13.0982 392.302 13.0933 393.431 13.0884C394.951 17.915 396.469 22.7563 397.985 27.6123C399.042 22.7783 400.099 17.9285 401.155 13.0627C402.281 13.0578 403.409 13.0541 404.539 13.0517ZM421.066 28.6256C421.147 30.3976 421.23 32.1696 421.315 33.9417C416.695 33.8046 412.07 33.6663 407.44 33.5268C407.367 31.9139 407.294 30.3046 407.221 28.699C409.424 26.3224 411.625 23.936 413.823 21.5398C414.719 20.5486 415.372 19.7592 415.786 19.1535C416.207 18.544 416.493 17.9786 416.628 17.45C416.762 16.9323 416.816 16.3082 416.786 15.5812C416.778 15.4589 416.772 15.3353 416.768 15.2104C416.713 14.0246 416.378 13.1251 415.762 12.5157C415.158 11.8842 414.311 11.5684 413.232 11.5721C412.092 11.5795 411.232 11.9503 410.665 12.6955C410.111 13.4188 409.867 14.4688 409.928 15.8639C409.94 16.1356 409.952 16.4085 409.964 16.6826C408.883 16.6802 407.8 16.6777 406.715 16.6753C406.703 16.3963 406.691 16.1124 406.678 15.8235C406.532 12.6919 406.989 10.3055 408.056 8.65706C409.129 7.00128 410.745 6.15686 412.915 6.12382C415.036 6.09445 416.731 6.85442 417.993 8.42209C419.249 9.96406 419.944 12.1375 420.072 14.9094C420.08 15.0562 420.086 15.1994 420.09 15.3389C420.157 16.6973 420.066 17.9272 419.822 19.0029C419.578 20.0933 419.133 21.1764 418.475 22.2447C417.841 23.2911 416.92 24.4659 415.737 25.7839C414.916 26.6797 414.091 27.5707 413.262 28.4567C415.867 28.513 418.469 28.5693 421.066 28.6256ZM437.251 33.5635C437.263 33.8499 437.277 34.1363 437.294 34.4226C436.038 34.3835 434.782 34.3455 433.526 34.3088C432.144 31.4941 430.765 28.6868 429.387 25.8867C428.643 27.2427 427.899 28.5925 427.156 29.9362C427.221 31.3289 427.286 32.7252 427.351 34.1253C426.286 34.0934 425.221 34.0604 424.156 34.0261C423.701 24.2823 423.246 14.541 422.791 4.80213C423.852 4.78255 424.914 4.7642 425.979 4.74706C426.255 10.7069 426.534 16.6692 426.814 22.6339C428.598 19.4202 430.383 16.1931 432.167 12.9525C433.459 12.9476 434.749 12.9428 436.038 12.9379C436.054 13.2389 436.068 13.5412 436.081 13.8447C434.593 16.6227 433.102 19.3897 431.606 22.1456C433.488 25.9369 435.369 29.7429 437.251 33.5635ZM460.264 12.8534C460.276 13.1667 460.291 13.4788 460.307 13.7896C458.738 21.6194 457.165 29.4137 455.588 37.1725C455.21 39.0045 454.692 40.3188 454.034 41.1082C453.382 41.9379 452.479 42.3124 451.321 42.2646C450.358 42.2255 449.393 42.1863 448.425 42.1472C448.34 40.3041 448.253 38.4587 448.163 36.6108C449.074 36.6401 449.984 36.6695 450.894 36.6989C451.297 36.7136 451.601 36.6255 451.815 36.4272C452.04 36.262 452.217 35.9169 452.357 35.3992C450.171 28.1715 447.986 20.9794 445.804 13.8227C445.792 13.5167 445.778 13.2108 445.761 12.9048C446.891 12.8999 448.021 12.895 449.151 12.8901C450.699 18.1671 452.25 23.4587 453.802 28.7651C454.826 23.4808 455.849 18.1806 456.869 12.8644C457.998 12.8595 459.13 12.8559 460.264 12.8534ZM476.876 29.8224C476.97 31.756 477.063 33.6884 477.157 35.6195C472.536 35.48 467.915 35.3405 463.294 35.201C463.209 33.4412 463.125 31.6863 463.044 29.9362C465.231 27.3369 467.415 24.729 469.598 22.1126C470.488 21.0295 471.134 20.1704 471.542 19.5059C471.963 18.8451 472.243 18.2283 472.377 17.6519C472.512 17.0865 472.554 16.4073 472.518 15.6143C472.514 15.4797 472.507 15.345 472.499 15.2104C472.438 13.9181 472.097 12.9379 471.475 12.2733C470.878 11.5831 470.03 11.2417 468.939 11.249C467.799 11.2527 466.946 11.6566 466.385 12.4679C465.836 13.2573 465.598 14.4027 465.672 15.9227C465.684 16.2213 465.698 16.5199 465.714 16.8185C464.629 16.816 463.542 16.8136 462.453 16.8111C462.441 16.5052 462.426 16.1956 462.41 15.8823C462.245 12.4606 462.697 9.85759 463.751 8.05863C464.806 6.25599 466.421 5.33448 468.592 5.30511C470.719 5.27207 472.414 6.10179 473.682 7.81632C474.956 9.49413 475.663 11.8622 475.81 14.8837C475.818 15.0428 475.824 15.1982 475.828 15.3499C475.901 16.8295 475.822 18.1695 475.584 19.3444C475.346 20.5302 474.901 21.7124 474.255 22.8762C473.621 24.0143 472.719 25.2993 471.542 26.7348C470.721 27.7163 469.9 28.6904 469.079 29.6572C471.68 29.7135 474.279 29.7686 476.876 29.8224ZM493.098 35.1642C493.115 35.4751 493.129 35.7859 493.141 36.0968C491.885 36.0601 490.629 36.0221 489.374 35.983C487.976 32.9235 486.58 29.8726 485.186 26.8303C484.45 28.3086 483.714 29.7796 482.979 31.2432C483.052 32.7583 483.125 34.277 483.198 35.7994C482.133 35.7676 481.069 35.7358 480.004 35.7039C479.488 25.0913 478.973 14.4811 478.461 3.87328C479.522 3.85615 480.583 3.83901 481.644 3.82188C481.961 10.3104 482.276 16.8001 482.589 23.2911C484.361 19.7935 486.128 16.2812 487.892 12.7543C489.185 12.7494 490.473 12.7445 491.757 12.7396C491.773 13.0676 491.79 13.3956 491.806 13.7235C490.335 16.7463 488.862 19.7568 487.386 22.7551C489.288 26.8768 491.192 31.0132 493.098 35.1642ZM515.977 12.6552C515.994 12.9929 516.01 13.3319 516.026 13.6721C514.502 22.1603 512.976 30.6142 511.448 39.0339C511.076 41.0237 510.57 42.4482 509.924 43.311C509.278 44.2105 508.375 44.6217 507.211 44.5739C506.244 44.5348 505.281 44.4956 504.322 44.4565C504.224 42.4568 504.126 40.4534 504.029 38.4464C504.939 38.4758 505.85 38.5052 506.76 38.5346C507.156 38.5492 507.461 38.4538 507.668 38.2372C507.9 38.0573 508.077 37.6828 508.205 37.1174C505.982 29.2778 503.759 21.4725 501.536 13.7015C501.519 13.3711 501.503 13.0394 501.487 12.7066C502.613 12.7017 503.74 12.6968 504.87 12.6919C506.451 18.4192 508.032 24.1612 509.613 29.9179C510.609 24.1832 511.602 18.4327 512.594 12.6662C513.724 12.6613 514.852 12.6576 515.977 12.6552ZM532.699 31.023C532.801 33.1132 532.905 35.2034 533.01 37.2936C528.389 37.1541 523.766 37.0158 519.141 36.8788C519.044 34.9697 518.948 33.0667 518.855 31.1698C521.029 28.3502 523.199 25.5208 525.366 22.6816C526.25 21.5105 526.896 20.578 527.298 19.862C527.719 19.1425 527.993 18.4779 528.121 17.8538C528.249 17.2407 528.298 16.5064 528.255 15.6473C528.251 15.5029 528.245 15.3573 528.237 15.2104C528.164 13.808 527.822 12.7469 527.201 12.0274C526.585 11.2857 525.738 10.9113 524.659 10.9186C523.512 10.926 522.659 11.3628 522.098 12.2403C521.556 13.0921 521.324 14.333 521.403 15.9814C521.419 16.3045 521.436 16.6276 521.452 16.9507C520.371 16.9482 519.288 16.9458 518.203 16.9433C518.186 16.6129 518.17 16.2776 518.154 15.9374C517.971 12.2293 518.398 9.40969 519.446 7.4602C520.495 5.50703 522.104 4.5121 524.268 4.48273C526.396 4.44968 528.097 5.35284 529.377 7.2032C530.651 9.02419 531.377 11.5868 531.535 14.8543C531.547 15.0281 531.557 15.197 531.565 15.361C531.645 16.9617 531.565 18.4119 531.34 19.6821C531.108 20.9671 530.675 22.2447 530.029 23.5077C529.407 24.7413 528.505 26.1327 527.335 27.6894C526.522 28.7516 525.709 29.8065 524.896 30.8541C527.497 30.9104 530.098 30.9667 532.699 31.023ZM548.94 36.765C548.956 37.1027 548.972 37.4393 548.989 37.7746C547.737 37.7354 546.481 37.6975 545.221 37.6608C543.807 34.3566 542.394 31.0597 540.984 27.7701C540.257 29.3708 539.529 30.963 538.802 32.5466C538.883 34.184 538.966 35.8263 539.052 37.4735C537.983 37.4417 536.916 37.4099 535.851 37.3781C535.278 25.899 534.705 14.4223 534.132 2.9481C535.197 2.93097 536.26 2.91261 537.32 2.89303C537.67 9.91021 538.021 16.9286 538.375 23.9483C540.119 20.1643 541.862 16.3669 543.606 12.556C544.898 12.5511 546.19 12.5462 547.483 12.5414C547.499 12.8938 547.517 13.2475 547.538 13.6024C546.079 16.8674 544.62 20.1215 543.161 23.3645C545.087 27.8166 547.013 32.2835 548.94 36.765ZM571.703 12.4532C571.719 12.8179 571.738 13.1838 571.758 13.551C570.279 22.7 568.797 31.816 567.314 40.8989C566.954 43.043 566.448 44.5813 565.802 45.5138C565.162 46.4867 564.26 46.9346 563.101 46.8869C562.138 46.8453 561.175 46.8049 560.212 46.7657C560.102 44.6094 559.992 42.4482 559.882 40.2821C560.793 40.3115 561.703 40.3409 562.614 40.3702C563.016 40.3849 563.321 40.2821 563.528 40.0472C563.754 39.8526 563.924 39.445 564.058 38.8393C561.791 30.3829 559.523 21.9633 557.255 13.5803C557.239 13.223 557.22 12.8644 557.2 12.5046C558.33 12.4997 559.462 12.4961 560.596 12.4936C562.201 18.6688 563.812 24.8612 565.43 31.0707C566.389 24.8832 567.35 18.6811 568.314 12.4643C569.439 12.4594 570.569 12.4557 571.703 12.4532ZM588.51 32.2235C588.624 34.4728 588.74 36.7221 588.858 38.9714C584.233 38.8319 579.61 38.6924 574.989 38.5529C574.887 36.4994 574.784 34.4496 574.678 32.4034C576.836 29.3611 578.992 26.3114 581.146 23.2544C582.024 21.9914 582.652 20.9891 583.054 20.2145C583.475 19.4398 583.743 18.7239 583.871 18.0521C583.999 17.3912 584.036 16.6019 583.993 15.6767C583.985 15.52 583.977 15.3634 583.969 15.2068C583.889 13.6978 583.536 12.556 582.914 11.7814C582.304 10.9847 581.451 10.5772 580.366 10.5845C579.22 10.5919 578.372 11.0618 577.824 12.009C577.281 12.9268 577.055 14.2632 577.147 16.0365C577.163 16.3865 577.181 16.7353 577.202 17.0828C576.117 17.0804 575.029 17.0779 573.94 17.0755C573.924 16.7181 573.906 16.3559 573.885 15.9888C573.684 11.998 574.105 8.95811 575.141 6.86176C576.178 4.75808 577.775 3.68971 579.951 3.65667C582.073 3.62363 583.78 4.59654 585.066 6.59008C586.358 8.54692 587.09 11.3114 587.273 14.8249C587.281 15.011 587.289 15.1921 587.297 15.3683C587.389 17.0902 587.322 18.6505 587.096 20.0199C586.876 21.4003 586.444 22.7771 585.81 24.1392C585.188 25.4645 584.298 26.9624 583.14 28.6439C582.327 29.7869 581.518 30.9238 580.713 32.0546C583.31 32.1109 585.909 32.1672 588.51 32.2235ZM604.781 38.3693C604.801 38.7291 604.822 39.0889 604.842 39.4487C603.582 39.412 602.324 39.3753 601.068 39.3386C599.638 35.7872 598.207 32.2443 596.777 28.71C596.061 30.4331 595.344 32.1464 594.625 33.8499C594.714 35.6122 594.804 37.3793 594.893 39.1513C593.828 39.1195 592.763 39.0877 591.699 39.0559C591.065 26.7054 590.433 14.3587 589.803 2.01557C590.863 1.99844 591.924 1.98131 592.985 1.96418C593.375 9.50759 593.763 17.0534 594.149 24.6018C595.881 20.5339 597.608 16.4501 599.331 12.3504C600.623 12.3455 601.912 12.3407 603.196 12.3358C603.216 12.7176 603.237 13.0982 603.257 13.4775C601.818 16.9849 600.38 20.4825 598.941 23.9703C600.884 28.7553 602.83 33.555 604.781 38.3693ZM627.422 12.244C627.443 12.6356 627.463 13.0272 627.483 13.4188C626.049 23.236 624.614 33.0177 623.179 42.764C622.826 45.0659 622.332 46.718 621.692 47.7203C621.052 48.763 620.156 49.2476 618.997 49.1998C618.034 49.1582 617.071 49.1179 616.108 49.0787C615.986 46.7633 615.864 44.443 615.742 42.1178C616.656 42.1496 617.569 42.1802 618.479 42.2096C618.875 42.2243 619.18 42.1105 619.388 41.8571C619.607 41.6515 619.784 41.2146 619.912 40.5611C617.599 31.488 615.291 22.4528 612.987 13.4555C612.966 13.0713 612.946 12.6858 612.926 12.299C614.055 12.2941 615.185 12.2905 616.315 12.288C617.953 18.9136 619.595 25.5575 621.241 32.2198C622.172 25.5796 623.102 18.9258 624.033 12.2587C625.163 12.2538 626.293 12.2489 627.422 12.244ZM644.327 33.4204C644.453 35.8288 644.579 38.2384 644.705 40.6493C640.084 40.5097 635.463 40.3702 630.842 40.2307C630.729 38.0279 630.615 35.83 630.501 33.637C632.639 30.3719 634.776 27.0995 636.914 23.8198C637.792 22.465 638.42 21.3893 638.816 20.5596C639.231 19.7299 639.493 18.9626 639.621 18.243C639.743 17.5344 639.779 16.6863 639.731 15.6987C639.723 15.5298 639.712 15.3622 639.7 15.1957C639.621 13.5767 639.261 12.3541 638.633 11.5281C638.018 10.669 637.164 10.2357 636.079 10.2431C634.933 10.2504 634.079 10.7571 633.537 11.7667C633.007 12.7506 632.787 14.1861 632.885 16.0879C632.905 16.4599 632.925 16.8332 632.946 17.2076C631.856 17.2052 630.767 17.2028 629.678 17.2003C629.658 16.8185 629.637 16.4305 629.617 16.0365C629.398 11.7557 629.806 8.49919 630.836 6.25232C631.86 3.99811 633.458 2.85264 635.628 2.82327C637.755 2.79023 639.462 3.8329 640.761 5.96595C642.053 8.0623 642.803 11.0214 642.998 14.7846C643.01 14.9853 643.021 15.1798 643.029 15.3683C643.126 17.2113 643.065 18.8855 642.852 20.3503C642.639 21.8299 642.218 23.3058 641.59 24.7633C640.974 26.1841 640.09 27.7922 638.938 29.5911C638.134 30.8198 637.331 32.0399 636.53 33.2515C639.131 33.3078 641.73 33.3641 644.327 33.4204ZM660.629 39.9701C660.649 40.3568 660.669 40.7435 660.689 41.1302C659.43 41.091 658.17 41.0531 656.91 41.0164C655.467 37.2178 654.022 33.4277 652.575 29.6462C651.868 31.4917 651.159 33.3273 650.448 35.1532C650.545 37.0403 650.645 38.9323 650.747 40.8292C649.674 40.7973 648.607 40.7655 647.546 40.7337C646.855 27.5046 646.164 14.2852 645.473 1.07571C646.53 1.05613 647.593 1.03777 648.662 1.02064C649.08 9.09028 649.503 17.1673 649.93 25.2516C651.637 20.8925 653.344 16.5199 655.05 12.1338C656.339 12.1289 657.627 12.1228 658.915 12.1155C658.936 12.5242 658.956 12.9317 658.976 13.338C657.558 17.0926 656.138 20.8374 654.715 24.5724C656.682 29.6903 658.653 34.8228 660.629 39.9701ZM683.136 12.0017C683.156 12.4202 683.178 12.8387 683.203 13.2573C681.813 23.7525 680.423 34.2109 679.033 44.6327C678.692 47.0962 678.21 48.8621 677.57 49.9341C676.948 51.0502 676.052 51.5679 674.888 51.5201C673.92 51.4785 672.955 51.4381 671.992 51.399C671.862 48.9245 671.732 46.4451 671.602 43.9608C672.512 43.9902 673.424 44.0208 674.339 44.0526C674.735 44.0636 675.034 43.9425 675.235 43.6745C675.467 43.4505 675.637 42.9842 675.759 42.2867C673.406 32.5894 671.057 22.9301 668.712 13.3087C668.688 12.8975 668.665 12.4863 668.645 12.0751C669.775 12.0702 670.903 12.0641 672.028 12.0567C673.699 19.14 675.371 26.2429 677.046 33.3653C677.948 26.2624 678.85 19.1473 679.752 12.02C680.878 12.0151 682.006 12.009 683.136 12.0017ZM700.132 34.5989C700.27 37.1737 700.406 39.7486 700.54 42.3234C695.928 42.1863 691.311 42.0493 686.69 41.9122C686.564 39.5576 686.438 37.208 686.312 34.8632C688.433 31.3681 690.559 27.8644 692.688 24.3521C693.536 22.9056 694.17 21.7528 694.566 20.8643C694.969 19.9795 695.237 19.1571 695.359 18.3862C695.481 17.6335 695.505 16.7267 695.45 15.6693C695.442 15.4907 695.432 15.312 695.42 15.1333C695.328 13.4078 694.969 12.1008 694.341 11.2197C693.719 10.3055 692.865 9.84291 691.774 9.85392C690.64 9.86493 689.793 10.4046 689.256 11.4877C688.72 12.5377 688.507 14.0686 688.61 16.0989C688.635 16.4979 688.657 16.8968 688.677 17.2958C687.592 17.2958 686.509 17.2958 685.428 17.2958C685.404 16.887 685.381 16.4722 685.361 16.0512C685.117 11.4803 685.501 7.99989 686.519 5.60249C687.537 3.19775 689.128 1.97519 691.299 1.93848C693.42 1.90176 695.133 3.01051 696.438 5.28308C697.748 7.51527 698.51 10.669 698.724 14.6854C698.732 14.8984 698.742 15.1064 698.754 15.3096C698.858 17.2774 698.809 19.0617 698.596 20.6294C698.388 22.2117 697.98 23.7904 697.352 25.3507C696.749 26.8743 695.871 28.5925 694.719 30.52C693.926 31.8343 693.132 33.1413 692.335 34.441C694.936 34.4948 697.535 34.5475 700.132 34.5989ZM716.445 41.4863C716.47 41.9 716.492 42.3124 716.513 42.7236C715.261 42.704 714.007 42.6807 712.751 42.6538C711.288 38.6055 709.825 34.5634 708.362 30.5273C707.659 32.505 706.958 34.4728 706.259 36.4309C706.368 38.4477 706.476 40.4694 706.582 42.4959C705.517 42.4666 704.452 42.4372 703.387 42.4078C702.631 28.2682 701.882 14.1531 701.138 0.0624131C702.199 0.0403849 703.259 0.0195806 704.32 0C704.775 8.59587 705.233 17.2101 705.692 25.8427C707.378 21.1776 709.063 16.5027 710.745 11.8181C712.03 11.8083 713.318 11.7997 714.611 11.7924C714.635 12.2256 714.659 12.6588 714.684 13.0921C713.277 17.0963 711.869 21.0956 710.459 25.09C712.454 30.5432 714.45 36.0087 716.445 41.4863ZM738.764 11.8952C738.784 12.3235 738.806 12.7506 738.831 13.1765C737.469 23.9409 736.112 34.7469 734.758 45.5946C734.429 48.1792 733.954 50.0553 733.332 51.2191C732.716 52.438 731.826 53.0511 730.674 53.0951C729.719 53.1294 728.764 53.1625 727.809 53.1943C727.667 50.5852 727.524 47.9699 727.382 45.3486C728.288 45.329 729.195 45.3082 730.101 45.2862C730.491 45.2752 730.79 45.1283 730.997 44.8346C731.217 44.5886 731.387 44.0856 731.503 43.3477C729.13 33.2711 726.756 23.1846 724.383 13.0884C724.358 12.6552 724.334 12.2219 724.31 11.7887C725.435 11.7961 726.563 11.8034 727.693 11.8108C729.376 19.2073 731.062 26.5953 732.753 33.9747C733.627 26.5855 734.504 19.2171 735.386 11.8695C736.508 11.8793 737.634 11.8879 738.764 11.8952ZM755.675 34.3052C755.809 36.8359 755.945 39.3667 756.083 41.8975C751.499 42.037 746.916 42.1753 742.336 42.3124C742.21 39.9187 742.082 37.5298 741.952 35.1459C744.057 31.5259 746.164 27.9268 748.274 24.3484C749.133 22.8872 749.755 21.7308 750.145 20.846C750.554 19.9612 750.816 19.1425 750.938 18.3788C751.06 17.6299 751.09 16.7304 751.035 15.6804C751.023 15.5041 751.013 15.3279 751.005 15.1517C750.913 13.4372 750.554 12.1375 749.92 11.2564C749.31 10.3385 748.457 9.86493 747.372 9.85392C746.238 9.84658 745.39 10.3716 744.854 11.4546C744.323 12.5046 744.116 14.0429 744.226 16.0879C744.246 16.4917 744.267 16.8944 744.287 17.2958C743.206 17.2958 742.125 17.2958 741.044 17.2958C741.023 16.8797 741.001 16.4587 740.977 16.0328C740.733 11.3922 741.117 7.87139 742.129 5.47032C743.141 3.0766 744.72 1.90176 746.896 1.94215C749.011 1.97519 750.718 3.13167 752.023 5.41892C753.328 7.65478 754.083 10.7718 754.291 14.7258C754.303 14.9363 754.313 15.1407 754.321 15.3389C754.425 17.2774 754.376 19.036 754.163 20.578C753.956 22.1383 753.541 23.7059 752.919 25.2553C752.316 26.7789 751.438 28.5044 750.31 30.4576C749.517 31.7964 748.727 33.1328 747.938 34.4667C750.515 34.4128 753.094 34.359 755.675 34.3052ZM771.86 40.2454C771.88 40.6346 771.901 41.025 771.921 41.4166C770.673 41.4533 769.428 41.4912 768.184 41.5304C766.737 37.7146 765.292 33.8891 763.85 30.0537C763.146 31.9849 762.448 33.9135 761.753 35.8398C761.858 37.7929 761.962 39.751 762.063 41.7139C761.007 41.7482 759.95 41.7813 758.893 41.8131C758.162 28.0088 757.432 14.2192 756.705 0.444234C757.766 0.463815 758.826 0.483396 759.887 0.502976C760.326 8.85409 760.767 17.2138 761.21 25.582C762.897 21.0565 764.585 16.5468 766.276 12.0531C767.56 12.0604 768.844 12.0665 770.129 12.0714C770.149 12.4851 770.171 12.8975 770.196 13.3087C768.781 17.1195 767.371 20.9426 765.965 24.778C767.928 29.9497 769.893 35.1055 771.86 40.2454ZM794.245 12.1742C794.266 12.5756 794.286 12.977 794.306 13.3784C792.896 23.46 791.49 33.5782 790.088 43.7332C789.752 46.1526 789.277 47.9112 788.649 49.0053C788.021 50.1471 787.125 50.7308 785.979 50.7785C785.024 50.8177 784.073 50.8581 783.126 50.8997C782.996 48.4595 782.866 46.0143 782.736 43.5643C783.638 43.5349 784.54 43.5043 785.442 43.4725C785.833 43.4615 786.131 43.322 786.339 43.043C786.558 42.8117 786.735 42.3418 786.857 41.6515C784.528 32.2382 782.201 22.8003 779.877 13.338C779.856 12.9293 779.836 12.5218 779.816 12.1155C780.937 12.1204 782.061 12.1253 783.187 12.1302C784.837 19.0592 786.489 25.9736 788.143 32.8733C789.049 25.9516 789.958 19.0482 790.868 12.1632C791.99 12.1681 793.116 12.1718 794.245 12.1742ZM811.059 33.112C811.181 35.4812 811.305 37.8492 811.431 40.216C806.846 40.3555 802.264 40.4951 797.684 40.6346C797.566 38.395 797.448 36.1604 797.33 33.9307C799.456 30.5383 801.581 27.1656 803.707 23.8124C804.56 22.4467 805.194 21.3636 805.59 20.5339C805.993 19.7042 806.267 18.9369 806.383 18.2209C806.511 17.5197 806.548 16.679 806.499 15.695C806.491 15.5311 806.482 15.3658 806.474 15.1994C806.389 13.595 806.035 12.3798 805.408 11.5538C804.792 10.6947 803.944 10.2504 802.865 10.2468C801.725 10.2394 800.884 10.735 800.336 11.7447C799.805 12.7323 799.592 14.1751 799.689 16.0916C799.71 16.4685 799.73 16.8454 799.75 17.2223C798.665 17.2248 797.584 17.2272 796.507 17.2297C796.487 16.8405 796.466 16.4465 796.446 16.0475C796.221 11.6969 796.605 8.39639 797.635 6.14218C798.653 3.89531 800.25 2.79023 802.408 2.82327C804.53 2.85632 806.23 3.93937 807.529 6.07977C808.821 8.17244 809.559 11.0948 809.754 14.7956C809.762 14.9914 809.772 15.1823 809.785 15.3683C809.876 17.1856 809.815 18.8304 809.602 20.2732C809.382 21.7344 808.968 23.1993 808.346 24.6532C807.73 26.0776 806.846 27.6967 805.706 29.525C804.91 30.7806 804.115 32.0326 803.323 33.2808C805.899 33.2245 808.478 33.1683 811.059 33.112ZM827.208 38.641C827.228 39.0057 827.248 39.3704 827.269 39.7351C826.021 39.7742 824.773 39.8122 823.525 39.8489C822.103 36.2828 820.679 32.7081 819.252 29.1249C818.545 30.9312 817.836 32.7363 817.124 34.5401C817.222 36.366 817.318 38.198 817.411 40.0361C816.354 40.068 815.298 40.0998 814.241 40.1316C813.57 27.2207 812.902 14.3146 812.235 1.41347C813.292 1.43305 814.351 1.45141 815.411 1.46854C815.818 9.29098 816.224 17.1171 816.631 24.9469C818.334 20.7101 820.041 16.4893 821.752 12.2844C823.036 12.2893 824.32 12.2941 825.604 12.299C825.625 12.6833 825.645 13.0688 825.665 13.4555C824.235 17.0216 822.806 20.5988 821.38 24.1869C823.322 29.0208 825.265 33.8389 827.208 38.641ZM849.715 12.3908C849.735 12.7629 849.755 13.1361 849.776 13.5106C848.325 22.9264 846.876 32.3789 845.429 41.8681C845.076 44.1297 844.582 45.7708 843.948 46.7951C843.32 47.8671 842.43 48.4142 841.284 48.4619C840.329 48.5011 839.374 48.5402 838.419 48.5794C838.301 46.3007 838.183 44.0159 838.065 41.725C838.967 41.6956 839.871 41.665 840.778 41.6332C841.168 41.6222 841.467 41.49 841.674 41.2293C841.893 41.0127 842.07 40.5758 842.198 39.926C839.914 31.1343 837.628 22.3182 835.34 13.4775C835.32 13.0957 835.301 12.7151 835.285 12.3358C836.407 12.3407 837.531 12.3443 838.656 12.3468C840.278 18.8206 841.901 25.2797 843.527 31.7242C844.462 25.2577 845.399 18.8084 846.338 12.3761C847.463 12.381 848.589 12.3859 849.715 12.3908ZM866.437 31.9151C866.546 34.1228 866.658 36.3305 866.772 38.5382C862.188 38.6777 857.605 38.8172 853.025 38.9568C852.919 36.8665 852.814 34.78 852.708 32.6971C854.842 29.5299 856.977 26.3799 859.115 23.247C859.987 21.9694 860.627 20.9598 861.023 20.1851C861.432 19.4105 861.7 18.6982 861.834 18.03C861.956 17.3729 861.993 16.5872 861.95 15.673C861.942 15.5188 861.934 15.3634 861.925 15.2068C861.846 13.7125 861.499 12.5781 860.877 11.8034C860.267 11.0067 859.42 10.5919 858.347 10.5882C857.201 10.5808 856.36 11.0434 855.805 11.987C855.268 12.9085 855.049 14.2559 855.14 16.0438C855.157 16.3963 855.175 16.7475 855.195 17.0975C854.11 17.1 853.029 17.1024 851.952 17.1048C851.932 16.7426 851.914 16.3755 851.897 16.0034C851.69 11.9392 852.105 8.85898 853.135 6.7553C854.165 4.65528 855.762 3.62363 857.926 3.65667C860.042 3.68971 861.743 4.69934 863.023 6.7039C864.309 8.65339 865.041 11.3775 865.211 14.8323C865.224 15.0158 865.234 15.1945 865.242 15.3683C865.327 17.0608 865.26 18.5954 865.035 19.9428C864.815 21.3049 864.382 22.6706 863.754 24.029C863.133 25.3581 862.249 26.867 861.096 28.5742C860.296 29.7466 859.495 30.9165 858.695 32.084C861.271 32.0277 863.852 31.9714 866.437 31.9151ZM882.555 37.0403C882.571 37.3805 882.588 37.7207 882.604 38.0609C881.356 38.0977 880.113 38.1356 878.873 38.1748C877.463 34.8534 876.055 31.5235 874.648 28.185C873.929 29.8714 873.212 31.5541 872.496 33.2331C872.582 34.9366 872.667 36.645 872.752 38.3583C871.696 38.3901 870.641 38.422 869.589 38.4538C868.975 26.4166 868.363 14.3819 867.754 2.34967C868.81 2.36925 869.871 2.38761 870.936 2.40474C871.302 9.6985 871.669 16.9947 872.039 24.2934C873.766 20.343 875.494 16.4085 877.221 12.49C878.505 12.4948 879.792 12.4997 881.08 12.5046C881.096 12.8644 881.114 13.223 881.135 13.5803C879.688 16.9041 878.241 20.2377 876.794 23.5811C878.712 28.0822 880.633 32.5686 882.555 37.0403ZM905.184 12.5928C905.201 12.9403 905.217 13.2879 905.233 13.6354C903.737 22.3904 902.244 31.1796 900.752 40.0031C900.393 42.1068 899.893 43.6377 899.259 44.5923C898.619 45.5909 897.729 46.1012 896.576 46.1489C895.621 46.1881 894.668 46.2285 893.717 46.2701C893.612 44.1456 893.506 42.0174 893.4 39.8856C894.302 39.8562 895.205 39.8269 896.107 39.7975C896.497 39.7828 896.796 39.6617 897.003 39.4193C897.229 39.2174 897.406 38.8099 897.54 38.2041C895.296 30.0292 893.053 21.8287 890.809 13.6024C890.789 13.2475 890.771 12.8926 890.755 12.5377C891.876 12.5426 893 12.5475 894.126 12.5524C895.719 18.5734 897.312 24.581 898.905 30.5751C899.872 24.5589 900.842 18.5599 901.813 12.5781C902.935 12.583 904.059 12.5879 905.184 12.5928ZM921.803 30.7146C921.904 32.7656 922.006 34.8155 922.107 36.8641C917.531 37.0036 912.953 37.1419 908.373 37.2789C908.275 35.3356 908.178 33.3971 908.08 31.4635C910.23 28.5166 912.382 25.5881 914.536 22.678C915.408 21.4921 916.048 20.5523 916.45 19.8327C916.865 19.1131 917.145 18.4522 917.267 17.8281C917.401 17.2223 917.444 16.4917 917.407 15.6436C917.399 15.4992 917.391 15.3548 917.383 15.2104C917.316 13.8227 916.968 12.769 916.353 12.0531C915.743 11.3078 914.902 10.926 913.816 10.9186C912.683 10.9113 911.835 11.3408 911.281 12.2183C910.738 13.0737 910.512 14.3256 910.592 15.9888C910.608 16.3143 910.624 16.641 910.64 16.969C909.559 16.9715 908.48 16.9739 907.403 16.9764C907.387 16.6386 907.369 16.2959 907.348 15.9484C907.159 12.1742 907.586 9.31056 908.629 7.3574C909.671 5.40791 911.274 4.44968 913.432 4.48273C915.554 4.51577 917.249 5.45564 918.523 7.31334C919.797 9.12699 920.51 11.6529 920.669 14.8616C920.677 15.033 920.685 15.1994 920.693 15.361C920.772 16.9323 920.693 18.3531 920.467 19.605C920.236 20.8717 919.803 22.1383 919.169 23.3976C918.541 24.6311 917.645 26.0373 916.487 27.6233C915.682 28.7125 914.875 29.7992 914.066 30.8834C916.647 30.8272 919.226 30.7709 921.803 30.7146ZM937.903 35.4396C937.919 35.7553 937.933 36.0699 937.945 36.3831C936.702 36.4223 935.456 36.4602 934.208 36.497C932.818 33.4204 931.426 30.3364 930.032 27.2451C929.309 28.8091 928.584 30.3707 927.856 31.9298C927.937 33.5109 928.017 35.0957 928.094 36.6842C927.037 36.716 925.981 36.7478 924.924 36.7796C924.371 25.6089 923.82 14.4419 923.272 3.27852C924.328 3.2981 925.387 3.31646 926.448 3.33359C926.781 10.0987 927.114 16.8662 927.448 23.6362C929.195 19.9722 930.941 16.3241 932.684 12.6919C933.973 12.6968 935.259 12.7004 936.543 12.7029C936.559 13.0358 936.576 13.3686 936.592 13.7015C935.129 16.7805 933.668 19.8706 932.209 22.9717C934.107 27.1423 936.005 31.2983 937.903 35.4396ZM960.654 12.791C960.67 13.1116 960.686 13.4323 960.702 13.7529C959.158 21.847 957.618 29.9766 956.082 38.1417C955.71 40.0875 955.204 41.5047 954.557 42.3895C953.924 43.3147 953.021 43.7919 951.875 43.8397C950.916 43.8788 949.963 43.918 949.016 43.9571C948.918 41.9942 948.821 40.0251 948.723 38.0499C949.626 38.0206 950.53 37.9912 951.436 37.9618C951.826 37.9471 952.131 37.837 952.339 37.6094C952.558 37.4221 952.741 37.044 952.875 36.4859C950.672 28.9229 948.469 21.3355 946.267 13.7235C946.25 13.3956 946.234 13.0676 946.218 12.7396C947.344 12.7445 948.469 12.7482 949.595 12.7506C951.156 18.3237 952.716 23.8809 954.277 29.4222C955.277 23.8589 956.277 18.3115 957.276 12.78C958.402 12.7824 959.528 12.7861 960.654 12.791ZM977.181 29.514C977.27 31.406 977.361 33.2968 977.455 35.1863C972.871 35.3258 968.288 35.4653 963.708 35.6048C963.623 33.8083 963.535 32.0167 963.446 30.2299C965.612 27.5034 967.78 24.7951 969.95 22.1052C970.834 21.0112 971.481 20.1411 971.883 19.4765C972.304 18.8157 972.578 18.2026 972.712 17.6299C972.846 17.0681 972.889 16.3963 972.852 15.6106C972.848 15.4784 972.842 15.345 972.834 15.2104C972.773 13.9291 972.438 12.9562 971.822 12.2954C971.218 11.6052 970.377 11.2564 969.298 11.249C968.158 11.2417 967.311 11.6345 966.75 12.4496C966.201 13.2389 965.97 14.3954 966.043 15.93C966.055 16.2311 966.069 16.5321 966.085 16.8332C965.004 16.8381 963.923 16.8417 962.842 16.8442C962.83 16.5309 962.816 16.2139 962.8 15.8933C962.629 12.4055 963.074 9.76214 964.122 7.95583C965.171 6.15319 966.786 5.27207 968.945 5.30511C971.066 5.33815 972.755 6.20826 974.017 7.92279C975.285 9.6006 975.986 11.9282 976.126 14.891C976.134 15.0477 976.142 15.2006 976.15 15.3499C976.217 16.7965 976.138 18.1108 975.9 19.2673C975.663 20.4348 975.224 21.6059 974.577 22.7661C973.943 23.9079 973.047 25.2039 971.877 26.6687C971.064 27.6771 970.251 28.6819 969.438 29.6829C972.019 29.6266 974.6 29.5703 977.181 29.514ZM993.244 33.8389C993.256 34.1277 993.271 34.4177 993.287 34.709C992.039 34.7457 990.795 34.7837 989.556 34.8228C988.178 31.991 986.802 29.1506 985.429 26.3016C984.693 27.7432 983.96 29.1848 983.228 30.6265C983.297 32.0828 983.366 33.5427 983.435 35.0064C982.379 35.0382 981.324 35.07 980.271 35.1018C979.776 24.8025 979.282 14.5043 978.79 4.20737C979.851 4.22451 980.909 4.24164 981.966 4.25877C982.267 10.4976 982.566 16.7377 982.862 22.979C984.626 19.6014 986.392 16.2384 988.16 12.8901C989.444 12.895 990.728 12.8987 992.013 12.9011C992.029 13.2095 992.043 13.5167 992.055 13.8227C990.576 16.6594 989.099 19.5059 987.623 22.3622C989.497 26.2025 991.37 30.028 993.244 33.8389ZM1016.12 12.9893C1016.13 13.283 1016.15 13.5779 1016.16 13.8741C1014.57 21.3073 1012.99 28.7749 1011.4 36.2767C1011.03 38.0683 1010.51 39.3716 1009.86 40.1903C1009.22 41.0421 1008.32 41.4827 1007.17 41.5304C1006.22 41.5695 1005.27 41.6087 1004.31 41.6479C1004.23 39.8416 1004.14 38.0304 1004.06 36.2143C1004.96 36.1849 1005.86 36.1555 1006.77 36.1261C1007.16 36.1115 1007.45 36.0087 1007.67 35.7994C1007.89 35.6268 1008.08 35.2781 1008.21 34.7641C1006.05 27.8179 1003.89 20.8435 1001.74 13.841C1001.72 13.54 1001.71 13.2389 1001.69 12.9379C1002.82 12.9428 1003.94 12.9464 1005.06 12.9489C1006.59 18.0716 1008.12 23.1785 1009.66 28.2694C1010.69 23.1565 1011.72 18.0594 1012.75 12.9782C1013.87 12.9807 1015 12.9844 1016.12 12.9893ZM1032.55 28.3172C1032.63 30.0476 1032.71 31.7793 1032.79 33.5121C1028.21 33.6516 1023.63 33.7899 1019.05 33.927C1018.97 32.2798 1018.9 30.6362 1018.82 28.9964C1021 26.4925 1023.18 24.0046 1025.37 21.5325C1026.26 20.5266 1026.9 19.7335 1027.31 19.1241C1027.74 18.5146 1028.02 17.9529 1028.15 17.4279C1028.29 16.9139 1028.34 16.2971 1028.31 15.5776C1028.31 15.4552 1028.3 15.3328 1028.29 15.2104C1028.24 14.0356 1027.91 13.1435 1027.29 12.5377C1026.69 11.9062 1025.86 11.5795 1024.77 11.5721C1023.63 11.5721 1022.78 11.9319 1022.22 12.6772C1021.67 13.4004 1021.43 14.4615 1021.49 15.8713C1021.51 16.1478 1021.52 16.4244 1021.53 16.701C1020.45 16.7034 1019.37 16.7059 1018.29 16.7083C1018.28 16.422 1018.27 16.1319 1018.25 15.8382C1018.1 12.6368 1018.56 10.21 1019.62 8.55059C1020.68 6.90215 1022.29 6.09445 1024.46 6.12749C1026.57 6.15686 1028.27 6.95722 1029.52 8.53223C1030.77 10.0669 1031.46 12.2036 1031.59 14.9167C1031.59 15.0611 1031.6 15.2006 1031.61 15.3353C1031.67 16.6643 1031.58 17.8685 1031.33 18.9258C1031.09 19.9979 1030.64 21.0699 1029.99 22.1346C1029.35 23.1809 1028.45 24.3705 1027.27 25.7142C1026.45 26.6394 1025.63 27.5621 1024.82 28.4824C1027.39 28.4261 1029.97 28.371 1032.55 28.3172ZM1048.59 32.2382C1048.6 32.5025 1048.62 32.7669 1048.63 33.0312C1047.38 33.0704 1046.14 33.1083 1044.89 33.145C1043.53 30.5579 1042.17 27.9623 1040.81 25.3581C1040.07 26.6797 1039.33 28.0002 1038.59 29.3195C1038.65 30.6534 1038.71 31.991 1038.78 33.3322C1037.72 33.3641 1036.66 33.3959 1035.61 33.4277C1035.17 23.9948 1034.74 14.563 1034.31 5.13256C1035.36 5.14969 1036.42 5.16682 1037.48 5.18396C1037.74 10.8966 1038.01 16.6092 1038.27 22.3218C1040.05 19.2281 1041.84 16.1503 1043.62 13.0884C1044.91 13.0908 1046.19 13.0945 1047.48 13.0994C1047.49 13.3809 1047.51 13.6611 1047.52 13.9401C1046.02 16.5346 1044.53 19.1388 1043.03 21.7528C1044.89 25.2626 1046.74 28.7577 1048.59 32.2382ZM1071.59 13.1875C1071.6 13.4543 1071.61 13.7223 1071.62 13.9915C1069.99 20.764 1068.37 27.5719 1066.74 34.4153C1066.34 36.049 1065.82 37.2422 1065.17 37.9875C1064.52 38.7659 1063.62 39.1734 1062.47 39.2211C1061.52 39.2603 1060.56 39.2994 1059.61 39.3386C1059.53 37.6889 1059.46 36.0368 1059.38 34.3823C1060.28 34.3504 1061.19 34.3198 1062.09 34.2905C1062.48 34.2758 1062.79 34.1803 1063 33.9894C1063.22 33.8315 1063.41 33.5121 1063.55 33.0459C1061.43 26.7116 1059.31 20.3503 1057.19 13.9622C1057.18 13.6856 1057.17 13.4102 1057.16 13.1361C1058.28 13.1386 1059.4 13.1422 1060.53 13.1471C1062.03 17.8195 1063.53 22.476 1065.03 27.1166C1066.09 22.454 1067.15 17.8061 1068.22 13.1728C1069.34 13.1777 1070.46 13.1826 1071.59 13.1875ZM1087.92 27.1166C1087.99 28.6904 1088.06 30.2642 1088.13 31.838C1083.55 31.9751 1078.97 32.1134 1074.39 32.2529C1074.32 30.7525 1074.25 29.2558 1074.19 27.7628C1076.38 25.4792 1078.58 23.2115 1080.78 20.9598C1081.68 20.0456 1082.33 19.3223 1082.74 18.768C1083.17 18.2136 1083.45 17.7033 1083.6 17.226C1083.73 16.7561 1083.79 16.198 1083.76 15.5409C1083.75 15.4307 1083.75 15.3206 1083.74 15.2104C1083.7 14.1421 1083.37 13.3307 1082.76 12.78C1082.17 12.2036 1081.33 11.9099 1080.26 11.9025C1079.11 11.8952 1078.26 12.2256 1077.69 12.9048C1077.13 13.562 1076.88 14.5276 1076.94 15.8089C1076.95 16.061 1076.96 16.3131 1076.98 16.5652C1075.89 16.5676 1074.81 16.5701 1073.73 16.5725C1073.72 16.3131 1073.71 16.0487 1073.7 15.7795C1073.57 12.8644 1074.04 10.6543 1075.12 9.14902C1076.18 7.64743 1077.8 6.91316 1079.97 6.94621C1082.08 6.97925 1083.77 7.70618 1085.01 9.14168C1086.25 10.5368 1086.93 12.4789 1087.04 14.9424C1087.04 15.0721 1087.05 15.1994 1087.06 15.3242C1087.11 16.5321 1087.01 17.6262 1086.76 18.5844C1086.51 19.5573 1086.06 20.5339 1085.4 21.5031C1084.75 22.454 1083.84 23.5371 1082.66 24.7596C1081.83 25.604 1081.01 26.4448 1080.18 27.2818C1082.76 27.228 1085.34 27.1729 1087.92 27.1166ZM1103.93 30.6375C1103.95 30.8773 1103.96 31.1172 1103.96 31.3571C1102.72 31.3938 1101.48 31.4317 1100.23 31.4709C1098.89 29.1261 1097.55 26.774 1096.21 24.4145C1095.46 25.6163 1094.71 26.8168 1093.96 28.0161C1094.01 29.2252 1094.07 30.438 1094.12 31.6544C1093.06 31.6863 1092 31.7181 1090.95 31.7499C1090.57 23.1834 1090.2 14.6193 1089.83 6.05774C1090.89 6.07487 1091.95 6.092 1093 6.10914C1093.23 11.2931 1093.46 16.4783 1093.68 21.6647C1095.48 18.8549 1097.29 16.061 1099.09 13.283C1100.38 13.2879 1101.66 13.2928 1102.95 13.2977C1102.96 13.5522 1102.97 13.8055 1102.98 14.0576C1101.47 16.4097 1099.96 18.7716 1098.45 21.1433C1100.28 24.3227 1102.1 27.4874 1103.93 30.6375ZM1127.06 13.3821C1127.06 13.6244 1127.07 13.8667 1127.09 14.109C1125.41 20.2231 1123.73 26.3714 1122.06 32.5539C1121.66 34.0298 1121.13 35.1092 1120.47 35.7847C1119.82 36.4933 1118.92 36.8604 1117.77 36.9118C1116.81 36.951 1115.86 36.9901 1114.91 37.0293C1114.85 35.5387 1114.78 34.0433 1114.72 32.5429C1115.62 32.5135 1116.52 32.4842 1117.42 32.4548C1117.82 32.4401 1118.12 32.352 1118.33 32.1794C1118.56 32.0363 1118.74 31.7499 1118.89 31.324C1116.81 25.6016 1114.74 19.8535 1112.66 14.0796C1112.65 13.83 1112.64 13.5803 1112.63 13.3307C1113.75 13.3356 1114.87 13.3405 1116 13.3454C1117.47 17.5674 1118.94 21.7736 1120.41 25.9638C1121.5 21.7516 1122.59 17.554 1123.68 13.3711C1124.81 13.376 1125.93 13.3796 1127.06 13.3821ZM1143.3 25.9161C1143.35 27.3308 1143.41 28.7455 1143.47 30.1602C1138.89 30.2997 1134.31 30.4392 1129.73 30.5787C1129.68 29.2252 1129.62 27.8754 1129.56 26.5292C1131.77 24.4635 1133.98 22.4161 1136.2 20.387C1137.1 19.561 1137.75 18.9112 1138.17 18.4119C1138.61 17.9125 1138.89 17.4536 1139.04 17.0204C1139.18 16.6019 1139.24 16.0952 1139.21 15.5078C1139.21 15.4075 1139.2 15.3083 1139.2 15.2104C1139.16 14.2485 1138.84 13.5179 1138.24 13.0223C1137.64 12.5046 1136.81 12.2366 1135.72 12.2293C1134.59 12.2219 1133.73 12.5193 1133.16 13.1324C1132.6 13.7235 1132.35 14.5936 1132.4 15.7501C1132.4 15.9777 1132.41 16.2041 1132.42 16.4293C1131.34 16.4318 1130.26 16.4342 1129.18 16.4367C1129.17 16.2017 1129.16 15.9643 1129.15 15.7244C1129.04 13.0957 1129.53 11.1022 1130.61 9.74378C1131.7 8.39272 1133.32 7.73555 1135.47 7.76492C1137.59 7.79796 1139.27 8.45881 1140.51 9.74745C1141.74 11.0067 1142.41 12.7506 1142.5 14.9681C1142.5 15.0856 1142.51 15.1994 1142.52 15.3096C1142.56 16.3963 1142.45 17.3802 1142.2 18.2466C1141.94 19.1204 1141.48 19.9979 1140.82 20.8717C1140.16 21.7271 1139.24 22.7037 1138.05 23.8087C1137.22 24.5675 1136.39 25.325 1135.56 26.0813C1138.14 26.0275 1140.72 25.9724 1143.3 25.9161ZM1159.28 29.0368C1159.29 29.2521 1159.3 29.4675 1159.31 29.6829C1158.06 29.7196 1156.82 29.7563 1155.57 29.7931C1154.25 27.6955 1152.92 25.5894 1151.59 23.4747C1150.84 24.554 1150.08 25.6322 1149.32 26.7091C1149.36 27.7958 1149.41 28.8862 1149.45 29.9803C1148.4 30.0121 1147.34 30.0439 1146.29 30.0757C1145.97 22.3757 1145.66 14.6781 1145.34 6.98292C1146.4 7.00005 1147.46 7.01719 1148.52 7.03432C1148.71 11.6896 1148.9 16.3461 1149.09 21.0038C1150.91 18.4828 1152.73 15.9753 1154.56 13.4812C1155.85 13.4861 1157.13 13.491 1158.41 13.4959C1158.42 13.7235 1158.43 13.9499 1158.44 14.1751C1156.91 16.2849 1155.39 18.4033 1153.87 20.5302C1155.67 23.3816 1157.48 26.2172 1159.28 29.0368ZM1182.53 13.5803C1182.53 13.7957 1182.54 14.0111 1182.55 14.2265C1180.83 19.6797 1179.11 25.1671 1177.39 30.6889C1176.98 32.0106 1176.44 32.9761 1175.78 33.5819C1175.12 34.217 1174.22 34.5511 1173.06 34.5989C1172.11 34.6405 1171.16 34.6809 1170.2 34.72C1170.15 33.3861 1170.1 32.0485 1170.04 30.7072C1170.94 30.6779 1171.85 30.6485 1172.75 30.6191C1173.15 30.6044 1173.45 30.5273 1173.66 30.3695C1173.89 30.241 1174.08 29.984 1174.22 29.6021C1172.19 24.4941 1170.16 19.3591 1168.13 14.1971C1168.12 13.9744 1168.11 13.7517 1168.1 13.5289C1169.22 13.5338 1170.35 13.5375 1171.47 13.54C1172.91 17.3141 1174.34 21.0711 1175.78 24.811C1176.9 21.0491 1178.03 17.3019 1179.15 13.5693C1180.28 13.5718 1181.4 13.5755 1182.53 13.5803ZM1198.67 24.7156C1198.72 25.9712 1198.77 27.228 1198.81 28.4861C1194.23 28.6231 1189.65 28.7614 1185.07 28.9009C1185.02 27.6943 1184.98 26.4913 1184.93 25.292C1187.15 23.449 1189.38 21.6231 1191.61 19.8143C1192.52 19.08 1193.19 18.5 1193.61 18.0557C1194.04 17.6115 1194.33 17.2003 1194.47 16.8185C1194.62 16.444 1194.69 15.9961 1194.67 15.4748C1194.67 15.3867 1194.66 15.2973 1194.66 15.2068C1194.63 14.355 1194.31 13.7052 1193.71 13.2609C1193.12 12.802 1192.29 12.5634 1191.21 12.556C1190.07 12.5524 1189.21 12.813 1188.63 13.3564C1188.07 13.8851 1187.8 14.6597 1187.84 15.6877C1187.85 15.8909 1187.86 16.094 1187.87 16.2971C1186.79 16.2996 1185.71 16.302 1184.63 16.3045C1184.62 16.094 1184.61 15.8811 1184.6 15.6657C1184.52 13.3234 1185.01 11.5501 1186.1 10.3422C1187.2 9.13801 1188.83 8.55426 1190.99 8.5873C1193.11 8.62034 1194.78 9.20776 1196 10.3569C1197.23 11.4767 1197.88 13.026 1197.95 14.9938C1197.96 15.0991 1197.96 15.2006 1197.96 15.2985C1198 16.2641 1197.89 17.1379 1197.63 17.9052C1197.36 18.6835 1196.9 19.4619 1196.22 20.2365C1195.57 21.0002 1194.64 21.8666 1193.44 22.8542C1192.6 23.5297 1191.77 24.2053 1190.93 24.8808C1193.51 24.8269 1196.09 24.7719 1198.67 24.7156ZM1214.63 27.4324C1214.63 27.6233 1214.64 27.8142 1214.65 28.0051C1213.4 28.0418 1212.16 28.0798 1210.92 28.1189C1209.61 26.2637 1208.3 24.4011 1206.99 22.5311C1206.22 23.4881 1205.46 24.4463 1204.69 25.4058C1204.73 26.3677 1204.76 27.3332 1204.79 28.3025C1203.74 28.3343 1202.69 28.3661 1201.63 28.3979C1201.37 21.5668 1201.12 14.7368 1200.86 7.9081C1201.92 7.92523 1202.98 7.94237 1204.04 7.9595C1204.19 12.0886 1204.35 16.2176 1204.5 20.3467C1206.34 18.1096 1208.19 15.8872 1210.03 13.6795C1211.32 13.6819 1212.6 13.6856 1213.88 13.6905C1213.89 13.8936 1213.9 14.0956 1213.91 14.2963C1212.36 16.1589 1210.82 18.0337 1209.28 19.9208C1211.06 22.4393 1212.84 24.9432 1214.63 27.4324ZM1237.99 13.7786C1238 13.9671 1238 14.1567 1238.01 14.3477C1236.24 19.1376 1234.48 23.9642 1232.72 28.8275C1232.3 29.9913 1231.75 30.8431 1231.08 31.3791C1230.42 31.9445 1229.51 32.2418 1228.36 32.2896C1227.41 32.3287 1226.45 32.3679 1225.5 32.4071C1225.46 31.2322 1225.42 30.0537 1225.38 28.8715C1226.28 28.8422 1227.18 28.8128 1228.08 28.7834C1228.48 28.7687 1228.78 28.699 1228.99 28.5595C1229.22 28.4457 1229.41 28.218 1229.56 27.8839C1227.57 23.3878 1225.58 18.8647 1223.58 14.3146C1223.58 14.1188 1223.57 13.923 1223.57 13.7272C1224.69 13.7296 1225.81 13.7333 1226.93 13.7382C1228.34 17.062 1229.75 20.3687 1231.16 23.6582C1232.32 20.3467 1233.47 17.0486 1234.62 13.7639C1235.74 13.7688 1236.87 13.7737 1237.99 13.7786ZM1254.04 23.5114C1254.08 24.6103 1254.11 25.7093 1254.15 26.8082C1249.57 26.9453 1244.99 27.0836 1240.42 27.2231C1240.38 26.1658 1240.34 25.1109 1240.31 24.0584C1242.54 22.4357 1244.79 20.8301 1247.03 19.2416C1247.94 18.5954 1248.61 18.0888 1249.04 17.6996C1249.47 17.3104 1249.77 16.9507 1249.91 16.6166C1250.07 16.2898 1250.13 15.897 1250.12 15.4417C1250.12 15.3634 1250.11 15.2851 1250.11 15.2068C1250.08 14.4615 1249.77 13.8924 1249.18 13.5032C1248.59 13.1031 1247.76 12.8938 1246.68 12.8865C1245.54 12.8791 1244.68 13.1104 1244.1 13.584C1243.54 14.0503 1243.26 14.7258 1243.3 15.629C1243.3 15.8052 1243.31 15.9826 1243.32 16.1613C1242.23 16.1638 1241.15 16.1662 1240.07 16.1687C1240.07 15.9851 1240.06 15.7991 1240.06 15.6106C1239.98 13.5546 1240.5 11.9943 1241.6 10.937C1242.7 9.88329 1244.33 9.37664 1246.49 9.40969C1248.61 9.43906 1250.28 9.95672 1251.5 10.9663C1252.71 11.9429 1253.35 13.3013 1253.41 15.0195C1253.41 15.1125 1253.41 15.2019 1253.41 15.2875C1253.44 16.1283 1253.33 16.8919 1253.06 17.5638C1252.79 18.243 1252.31 18.9258 1251.64 19.605C1250.97 20.2732 1250.04 21.0332 1248.83 21.896C1247.99 22.4932 1247.15 23.0879 1246.3 23.6802C1248.88 23.624 1251.46 23.5677 1254.04 23.5114ZM1269.98 25.8317C1269.98 25.9956 1269.98 26.1609 1269.99 26.3273C1268.74 26.364 1267.5 26.4019 1266.25 26.4411C1264.96 24.8306 1263.67 23.2128 1262.37 21.5876C1261.6 22.4246 1260.83 23.2617 1260.05 24.0988C1260.08 24.9383 1260.11 25.7803 1260.14 26.6247C1259.08 26.6565 1258.02 26.6895 1256.96 26.7238C1256.77 20.7591 1256.57 14.7956 1256.37 8.83328C1257.43 8.85042 1258.49 8.86877 1259.55 8.88835C1259.67 12.4887 1259.79 16.0891 1259.9 19.6895C1261.77 17.7363 1263.63 15.7991 1265.49 13.8777C1266.78 13.8802 1268.06 13.8838 1269.35 13.8887C1269.36 14.065 1269.36 14.24 1269.37 14.4137C1267.81 16.0365 1266.25 17.669 1264.69 19.3113C1266.45 21.4995 1268.21 23.6729 1269.98 25.8317ZM1293.46 13.9769C1293.47 14.1408 1293.47 14.3036 1293.48 14.4651C1291.66 18.5966 1289.86 22.7624 1288.05 26.9624C1287.61 27.9684 1287.06 28.7063 1286.39 29.1763C1285.72 29.6646 1284.81 29.9289 1283.66 29.9766C1282.7 30.0158 1281.75 30.0562 1280.8 30.0978C1280.76 29.0771 1280.73 28.0565 1280.7 27.0359C1281.6 27.004 1282.51 26.9735 1283.41 26.9441C1283.81 26.9294 1284.11 26.867 1284.32 26.7495C1284.55 26.6467 1284.74 26.4485 1284.89 26.1584C1282.95 22.279 1281 18.3715 1279.04 14.4358C1279.04 14.2644 1279.03 14.0943 1279.03 13.9255C1280.15 13.9279 1281.27 13.9316 1282.4 13.9365C1283.78 16.8075 1285.16 19.6638 1286.53 22.5054C1287.72 19.6418 1288.9 16.7952 1290.09 13.9658C1291.21 13.9683 1292.34 13.972 1293.46 13.9769ZM1309.42 22.3108C1309.44 23.2507 1309.47 24.1893 1309.5 25.1268C1304.91 25.2663 1300.33 25.4058 1295.75 25.5453C1295.72 24.6348 1295.7 23.7268 1295.67 22.8211C1297.92 21.4211 1300.18 20.037 1302.44 18.6688C1303.36 18.1145 1304.04 17.6776 1304.47 17.3435C1304.91 17.0094 1305.21 16.701 1305.36 16.4146C1305.51 16.1356 1305.58 15.7978 1305.57 15.4087C1305.57 15.3426 1305.57 15.2753 1305.57 15.2068C1305.55 14.5679 1305.24 14.0797 1304.65 13.7492C1304.07 13.4041 1303.24 13.2242 1302.15 13.2169C1301.02 13.2095 1300.16 13.4078 1299.56 13.8153C1298.99 14.2118 1298.72 14.7956 1298.74 15.5702C1298.75 15.722 1298.75 15.8737 1298.76 16.0255C1297.68 16.0279 1296.6 16.0304 1295.52 16.0328C1295.51 15.8762 1295.51 15.7171 1295.51 15.5555C1295.46 13.7859 1295.98 12.4422 1297.09 11.5354C1298.21 10.6322 1299.85 10.199 1302.01 10.2321C1304.13 10.2651 1305.79 10.7093 1307 11.5721C1308.2 12.4129 1308.82 13.5767 1308.86 15.0489C1308.86 15.1272 1308.86 15.2031 1308.86 15.2765C1308.89 15.9961 1308.77 16.6496 1308.49 17.2223C1308.21 17.8061 1307.74 18.3898 1307.05 18.9736C1306.38 19.5463 1305.43 20.1998 1304.21 20.9414C1303.37 21.4554 1302.52 21.9682 1301.68 22.4797C1304.25 22.4234 1306.83 22.3671 1309.42 22.3108ZM1325.32 24.2236C1325.32 24.3656 1325.33 24.5063 1325.33 24.6458C1324.08 24.685 1322.83 24.7229 1321.59 24.7596C1320.32 23.3963 1319.05 22.0232 1317.77 20.6404C1316.99 21.3575 1316.2 22.0746 1315.42 22.7918C1315.44 23.5065 1315.46 24.2248 1315.48 24.9469C1314.42 24.9787 1313.36 25.0105 1312.31 25.0423C1312.17 19.9489 1312.03 14.8555 1311.89 9.76214C1312.95 9.77927 1314.01 9.79763 1315.08 9.81721C1315.16 12.8889 1315.24 15.9594 1315.32 19.0286C1317.2 17.3643 1319.08 15.7134 1320.96 14.076C1322.25 14.0809 1323.53 14.0858 1324.82 14.0907C1324.83 14.24 1324.83 14.388 1324.84 14.5349C1323.25 15.9129 1321.68 17.3007 1320.1 18.6982C1321.84 20.5559 1323.58 22.3977 1325.32 24.2236ZM1348.93 14.1788C1348.93 14.3158 1348.94 14.4529 1348.94 14.59C1347.08 18.0533 1345.23 21.5533 1343.38 25.09C1342.93 25.9418 1342.37 26.5696 1341.69 26.9661C1341.01 27.3846 1340.11 27.6123 1338.95 27.66C1338 27.7016 1337.05 27.742 1336.1 27.7812C1336.07 26.9196 1336.05 26.0568 1336.03 25.1928C1336.94 25.1635 1337.84 25.1329 1338.74 25.1011C1339.13 25.09 1339.44 25.035 1339.66 24.9322C1339.89 24.8477 1340.08 24.6789 1340.23 24.4329C1338.33 21.1703 1336.42 17.8783 1334.51 14.5569C1334.51 14.4125 1334.5 14.2693 1334.5 14.1274C1335.62 14.1298 1336.75 14.1335 1337.88 14.1384C1339.22 16.559 1340.57 18.9626 1341.91 21.3489C1343.13 18.9405 1344.34 16.5468 1345.56 14.1678C1346.68 14.1702 1347.8 14.1739 1348.93 14.1788ZM1364.78 21.103C1364.79 21.8837 1364.81 22.6633 1364.83 23.4416C1360.25 23.5836 1355.67 23.7243 1351.09 23.8638C1351.08 23.1002 1351.06 22.339 1351.04 21.5802C1353.31 20.403 1355.59 19.2416 1357.86 18.0961C1358.79 17.6335 1359.46 17.2664 1359.89 16.9874C1360.35 16.712 1360.64 16.455 1360.8 16.2164C1360.96 15.9851 1361.03 15.7024 1361.02 15.3793C1361.02 15.323 1361.02 15.2679 1361.02 15.2141C1361.01 14.6781 1360.71 14.2742 1360.12 13.9989C1359.55 13.7088 1358.72 13.5583 1357.63 13.551C1356.5 13.5436 1355.63 13.7088 1355.04 14.0503C1354.46 14.3807 1354.18 14.8653 1354.19 15.5152C1354.2 15.6424 1354.2 15.7697 1354.21 15.897C1353.12 15.8994 1352.04 15.9019 1350.96 15.9043C1350.96 15.7721 1350.96 15.6375 1350.96 15.5005C1350.92 14.0209 1351.47 12.8975 1352.59 12.1375C1353.71 11.3885 1355.35 11.0288 1357.52 11.0618C1359.64 11.0948 1361.3 11.4693 1362.49 12.1889C1363.69 12.8901 1364.3 13.8594 1364.33 15.0819C1364.33 15.1456 1364.33 15.208 1364.33 15.2692C1364.34 15.8676 1364.2 16.411 1363.92 16.8882C1363.63 17.3692 1363.15 17.8575 1362.46 18.3421C1361.78 18.8194 1360.83 19.3627 1359.61 19.9832C1358.75 20.414 1357.9 20.8435 1357.05 21.2718C1359.63 21.2155 1362.21 21.1592 1364.78 21.103ZM1380.66 22.6119C1380.66 22.7269 1380.67 22.842 1380.67 22.957C1379.42 22.9962 1378.18 23.0353 1376.93 23.0745C1375.67 21.9559 1374.41 20.8301 1373.15 19.6968C1372.37 20.2891 1371.58 20.8827 1370.78 21.4774C1370.79 22.0697 1370.81 22.6645 1370.81 23.2617C1369.75 23.2935 1368.7 23.3253 1367.65 23.3572C1367.57 19.14 1367.49 14.9204 1367.41 10.6983C1368.47 10.7155 1369.53 10.7338 1370.59 10.7534C1370.64 13.294 1370.68 15.8333 1370.73 18.3715C1372.63 16.9935 1374.53 15.6314 1376.43 14.2852C1377.72 14.2901 1379 14.295 1380.29 14.2999C1380.29 14.4199 1380.29 14.541 1380.29 14.6634C1378.7 15.7942 1377.11 16.936 1375.51 18.0888C1377.23 19.6112 1378.95 21.1189 1380.66 22.6119ZM1404.4 14.3991C1404.4 14.5092 1404.4 14.6193 1404.4 14.7295C1402.5 17.5148 1400.6 20.3405 1398.7 23.2066C1398.24 23.9005 1397.67 24.4108 1397 24.7413C1396.31 25.0864 1395.41 25.281 1394.25 25.3287C1393.3 25.3703 1392.34 25.4107 1391.39 25.4498C1391.38 24.7474 1391.37 24.0437 1391.36 23.3388C1392.26 23.3094 1393.16 23.2788 1394.07 23.247C1394.47 23.2323 1394.77 23.1883 1394.98 23.1038C1395.22 23.0304 1395.41 22.8946 1395.57 22.6927C1393.7 20.0542 1391.84 17.3863 1389.97 14.6891C1389.97 14.5716 1389.97 14.4541 1389.97 14.3366C1391.09 14.3415 1392.22 14.3464 1393.34 14.3513C1394.66 16.3143 1395.97 18.2589 1397.29 20.1851C1398.53 18.2368 1399.78 16.3033 1401.03 14.3844C1402.15 14.3893 1403.28 14.3942 1404.4 14.3991ZM1420.16 19.8804C1420.17 20.4947 1420.17 21.1103 1420.17 21.7271C1415.59 21.8715 1411.01 22.0159 1406.43 22.1603C1406.42 21.5484 1406.42 20.939 1406.41 20.332C1408.7 19.3799 1410.99 18.4449 1413.27 17.5271C1414.21 17.1562 1414.89 16.8662 1415.33 16.6459C1415.77 16.4256 1416.08 16.2237 1416.24 16.0328C1416.39 15.8492 1416.48 15.6253 1416.48 15.3683C1416.48 15.3242 1416.48 15.2802 1416.48 15.2361C1416.47 14.8139 1416.18 14.4945 1415.59 14.2706C1415.02 14.0393 1414.19 13.9181 1413.11 13.9108C1411.98 13.9034 1411.11 14.0319 1410.51 14.3036C1409.93 14.5679 1409.64 14.9571 1409.65 15.4711C1409.65 15.5739 1409.65 15.6767 1409.65 15.7795C1408.56 15.7795 1407.49 15.7807 1406.42 15.7832C1406.41 15.6779 1406.41 15.5702 1406.41 15.4601C1406.4 14.2742 1406.96 13.3711 1408.09 12.7653C1409.23 12.1632 1410.87 11.8805 1413.04 11.9172C1415.15 11.9503 1416.8 12.2587 1417.99 12.8387C1419.18 13.4005 1419.77 14.1714 1419.78 15.137C1419.78 15.1884 1419.78 15.2374 1419.78 15.2839C1419.78 15.7575 1419.64 16.1833 1419.35 16.5615C1419.06 16.9433 1418.57 17.3251 1417.87 17.7106C1417.19 18.0888 1416.23 18.522 1414.99 19.0213C1414.13 19.364 1413.27 19.7091 1412.42 20.0566C1415 19.9979 1417.58 19.9391 1420.16 19.8804ZM1436 20.9781C1436 21.0662 1436 21.1556 1436 21.2461C1434.76 21.2804 1433.51 21.3147 1432.27 21.3489C1431.03 20.4849 1429.78 19.6148 1428.54 18.7386C1427.74 19.2036 1426.95 19.6711 1426.15 20.1411C1426.15 20.6061 1426.15 21.0724 1426.15 21.5398C1425.1 21.5717 1424.04 21.6047 1422.98 21.639C1422.97 18.3274 1422.95 15.0048 1422.94 11.6712C1424 11.6908 1425.06 11.7104 1426.11 11.73C1426.12 13.7345 1426.13 15.7293 1426.14 17.7143C1428.06 16.6374 1429.98 15.5739 1431.9 14.5239C1433.19 14.5263 1434.47 14.5276 1435.76 14.5276C1435.76 14.623 1435.76 14.7185 1435.76 14.8139C1434.15 15.695 1432.54 16.5847 1430.93 17.483C1432.62 18.6578 1434.31 19.8229 1436 20.9781Z" fill="#625C5A"/>
</svg>
